<?xml version="1.0" encoding="UTF-8"?>
<svg version="1.1" xmlns="http://www.w3.org/2000/svg" width="392" height="220">
<path d="M0 0 C129.36 0 258.72 0 392 0 C392 72.6 392 145.2 392 220 C262.64 220 133.28 220 0 220 C0 147.4 0 74.8 0 0 Z " fill="#FCFDFC" transform="translate(0,0)"/>
<path d="M0 0 C1.28793457 -0.00563965 2.57586914 -0.0112793 3.90283203 -0.01708984 C11.07298493 0.03765831 17.73964343 0.51747523 24.6875 2.3125 C25.68245483 2.56181274 25.68245483 2.56181274 26.69750977 2.81616211 C45.01828934 7.66709298 62.41658568 16.61993455 75.6875 30.3125 C76.62142578 31.15941406 76.62142578 31.15941406 77.57421875 32.0234375 C95.2438333 48.35154118 106.58530528 74.86024087 107.81030273 98.70263672 C108.86277358 130.80139814 99.52346722 158.23415573 78.0625 182.25 C71.61628759 188.99603624 64.62963204 194.44009235 56.6875 199.3125 C56.07197266 199.69680176 55.45644531 200.08110352 54.82226562 200.47705078 C32.69183006 214.03166286 3.64347854 219.4134754 -21.8125 213.625 C-41.75204922 208.72653054 -57.65378862 200.34119525 -73.3125 187.3125 C-74.23675781 186.59578125 -75.16101563 185.8790625 -76.11328125 185.140625 C-78.57602594 183.09344114 -79.72566273 181.072217 -81.3125 178.3125 C-81.93511719 177.68988281 -82.55773437 177.06726563 -83.19921875 176.42578125 C-94.64369141 164.98130859 -101.40722175 148.76710889 -105.3125 133.3125 C-105.79203125 131.41757812 -105.79203125 131.41757812 -106.28125 129.484375 C-112.14797279 102.64955037 -107.14843427 73.54290054 -92.3125 50.3125 C-74.87213758 25.1749944 -50.64103899 6.31975947 -20.04296875 0.77734375 C-13.39610168 -0.02525672 -6.68626861 0.02162141 0 0 Z " fill="#377CD7" transform="translate(196.3125,2.6875)"/>
<path d="M0 0 C4.83773699 4.0046827 8.11333435 7.82250456 9.5 14.0625 C10.36954827 23.87161474 8.72144994 32.24124864 2.5 40.0625 C-1.73802692 44.17487113 -5.20887586 46.94600216 -11.1875 47.25 C-14.5 47.0625 -14.5 47.0625 -15.5 46.0625 C-15.27614733 41.13774126 -13.83178223 37.2952041 -11.9375 32.75 C-9.62013738 26.90971039 -8.71510191 22.28865105 -9.5 16.0625 C-9.59539062 15.29550781 -9.69078125 14.52851562 -9.7890625 13.73828125 C-10.17027483 11.29487754 -10.17027483 11.29487754 -11.5 8.0625 C-13.94896633 6.53113044 -13.94896633 6.53113044 -16.5 6.0625 C-16.995 5.5675 -16.995 5.5675 -17.5 5.0625 C-30.28265931 3.62194353 -38.68048837 7.26036628 -48.75 14.8125 C-64.1841642 27.93277037 -74.03210361 48.1494442 -75.77783203 68.26367188 C-76.66838845 83.84282921 -77.15105428 102.99007638 -66.1640625 115.5546875 C-59.0995081 121.95590346 -51.4704187 124.48962612 -41.97265625 124.24609375 C-29.22087213 123.29927882 -18.92244105 116.38251506 -10.5 107.0625 C-8.35500303 104.13757853 -6.41817067 101.098631 -4.57983398 97.97290039 C-2.299741 94.10804628 0.08377707 90.98990647 3.5 88.0625 C4.49 88.0625 5.48 88.0625 6.5 88.0625 C7.76412834 97.27257788 2.79242166 104.41075903 -2.3828125 111.72265625 C-4.04506642 113.87782963 -5.75216775 115.97650907 -7.5 118.0625 C-8.13550781 118.88878906 -8.77101563 119.71507812 -9.42578125 120.56640625 C-17.68174772 130.50155234 -30.71609132 138.05006353 -43.66357422 139.265625 C-45.90525866 139.36496843 -48.13122342 139.39182172 -50.375 139.375 C-51.16656494 139.36936035 -51.95812988 139.3637207 -52.77368164 139.35791016 C-58.77559882 139.2334734 -63.97950401 138.54954939 -69.5 136.0625 C-70.39976562 135.6603125 -71.29953125 135.258125 -72.2265625 134.84375 C-85.14198283 128.43940934 -91.85417649 119.05345867 -96.71875 105.72265625 C-103.8880948 83.77934019 -102.15305148 59.30813769 -92.13061523 38.56445312 C-81.68303416 18.26652778 -64.77531759 1.85784151 -42.8125 -5.4375 C-28.50455731 -9.04265091 -12.36363267 -8.74721361 0 0 Z " fill="#F8FAFA" transform="translate(241.5,43.9375)"/>
<path d="M0 0 C2.57410619 2.25492061 3.59217427 4.08858135 4.5703125 7.3515625 C4.95509766 8.62966797 4.95509766 8.62966797 5.34765625 9.93359375 C5.73244141 11.26583984 5.73244141 11.26583984 6.125 12.625 C6.38925781 13.48996094 6.65351563 14.35492188 6.92578125 15.24609375 C14.96934428 42.47988331 9.53345444 72.00602738 -3.76318359 96.55834961 C-12.74807742 112.40676229 -25.47869771 125.47785761 -41 135 C-41.92329102 135.57645264 -41.92329102 135.57645264 -42.86523438 136.16455078 C-65.00071303 149.72225169 -94.03905847 155.09390258 -119.5 149.3125 C-129.37396646 146.91424002 -138.9602397 143.66873848 -148 139 C-144.47399672 137.76713172 -142.33250451 138.26769699 -138.8125 139.375 C-130.35606531 142.12926016 -130.35606531 142.12926016 -122 141 C-119.98072489 141.60578253 -117.97746603 142.26919734 -116 143 C-116 144.32 -116 145.64 -116 147 C-114.02 146.67 -112.04 146.34 -110 146 C-110 146.66 -110 147.32 -110 148 C-107.36 148 -104.72 148 -102 148 C-101.67 147.01 -101.34 146.02 -101 145 C-98.41659616 144.97296438 -95.83347692 144.95314389 -93.25 144.9375 C-92.15558594 144.92493164 -92.15558594 144.92493164 -91.0390625 144.91210938 C-85.44008287 144.88665947 -85.44008287 144.88665947 -82.92871094 145.53344727 C-80.39785125 146.14565902 -78.49643074 145.62410768 -76 145 C-76.33 144.01 -76.66 143.02 -77 142 C-73.56889804 141.14222451 -71.38420123 141.03308536 -68 142 C-67.67 141.67 -67.34 141.34 -67 141 C-65.37990641 140.79095567 -63.75317119 140.63214143 -62.125 140.5 C-59.15077151 140.25720584 -56.84924786 139.94974929 -54 139 C-54 137.02 -54 135.04 -54 133 C-51.01758453 132.22678118 -48.02419525 131.58803797 -45 131 C-45 131.66 -45 132.32 -45 133 C-44.01 132.34 -43.02 131.68 -42 131 C-41.7497843 127.91634129 -41.7497843 127.91634129 -42 125 C-40.02 125 -38.04 125 -36 125 C-35.505 123.515 -35.505 123.515 -35 122 C-34.67 122.99 -34.34 123.98 -34 125 C-33.34 125 -32.68 125 -32 125 C-31.896875 123.72125 -31.79375 122.4425 -31.6875 121.125 C-31.51171875 118.9453125 -31.51171875 118.9453125 -31 117 C-27.5647952 114.70986347 -26.014669 114.82157027 -22 115 C-22 113.02 -22 111.04 -22 109 C-18.535 108.01 -18.535 108.01 -15 107 C-14.40667939 102.62426048 -13.86172764 98.42471556 -14 94 C-11.29889598 92.64944799 -8.99210994 93 -6 93 C-6 92.38511719 -6 91.77023438 -6 91.13671875 C-6 86.42447917 -6 81.71223958 -6 77 C-5.01 77 -4.02 77 -3 77 C-3 75.35 -3 73.7 -3 72 C-2.67 72 -2.34 72 -2 72 C-2 73.65 -2 75.3 -2 77 C-1.34 77 -0.68 77 0 77 C0 75.02 0 73.04 0 71 C0.99 71 1.98 71 3 71 C2.649375 70.278125 2.29875 69.55625 1.9375 68.8125 C0.85157189 65.55471566 0.97198241 64.24220932 2 61 C2.53625 59.948125 3.0725 58.89625 3.625 57.8125 C4.07875 56.884375 4.5325 55.95625 5 55 C4.16666667 52.83333333 4.16666667 52.83333333 2 52 C2.06005854 49.08115472 2.14708616 46.16738361 2.25 43.25 C2.26417969 42.425 2.27835938 41.6 2.29296875 40.75 C2.54187913 34.57702246 2.54187913 34.57702246 5.046875 31.421875 C6.01367188 30.71804687 6.01367188 30.71804687 7 30 C6.01 30.33 5.02 30.66 4 31 C4 30.34 4 29.68 4 29 C2.68 29 1.36 29 0 29 C-0.02692484 26.70839681 -0.04636124 24.41670454 -0.0625 22.125 C-0.07410156 20.84882812 -0.08570313 19.57265625 -0.09765625 18.2578125 C0 15 0 15 1 13 C1.66 13 2.32 13 3 13 C2.690625 11.783125 2.38125 10.56625 2.0625 9.3125 C1.28842823 6.2217028 0.58737312 3.13265666 0 0 Z " fill="#782BDF" transform="translate(294,67)"/>
<path d="M0 0 C-0.66 1.32 -1.32 2.64 -2 4 C-5.66666667 4 -9.33333333 4 -13 4 C-13 3.34 -13 2.68 -13 2 C-16.96 2.66 -20.92 3.32 -25 4 C-24.34 3.01 -23.68 2.02 -23 1 C-36.58400519 1.05193994 -36.58400519 1.05193994 -48.125 7.125 C-50.86374616 9.86374616 -53.17433141 9.63565061 -57 10 C-64.60551174 10.52430642 -64.60551174 10.52430642 -70.375 14.875 C-70.91125 15.90625 -71.4475 16.9375 -72 18 C-72.886875 18.70125 -73.77375 19.4025 -74.6875 20.125 C-77.13130744 22.10646549 -77.67201637 22.93881949 -78 26 C-80.31 26.33 -82.62 26.66 -85 27 C-85.33 28.98 -85.66 30.96 -86 33 C-89 34 -89 34 -91 34 C-92.83136397 35.14121942 -94.52136926 36.42250612 -96.24609375 37.71875 C-98 39 -98 39 -100.4375 40.3125 C-102.40003649 42.43203941 -102.23509717 43.35596311 -102.25 46.1875 C-102.12625 48.0746875 -102.12625 48.0746875 -102 50 C-103.175625 50.433125 -103.175625 50.433125 -104.375 50.875 C-107.09671632 51.84912254 -107.09671632 51.84912254 -109 54 C-108.979375 54.94875 -108.95875 55.8975 -108.9375 56.875 C-109.00871053 60.4355263 -109.74822309 61.37292694 -112 64 C-112 64.66 -112 65.32 -112 66 C-113.98 66.495 -113.98 66.495 -116 67 C-116.12117188 67.83402344 -116.24234375 68.66804688 -116.3671875 69.52734375 C-117.34461632 76.09115424 -118.46783577 82.54302216 -120 89 C-119.34 89 -118.68 89 -118 89 C-118.14243597 91.66688629 -118.28886578 94.33345767 -118.4375 97 C-118.49647461 98.11568359 -118.49647461 98.11568359 -118.55664062 99.25390625 C-118.83661727 104.20733918 -119.33510571 109.08313469 -120 114 C-119.34 114 -118.68 114 -118 114 C-118.165 114.7425 -118.33 115.485 -118.5 116.25 C-119.19160491 120.05382699 -118.98008068 123.5743613 -118.5 127.375 C-118.0817234 130.93918795 -117.90786006 134.40654248 -118 138 C-115.03 138 -112.06 138 -109 138 C-109.2784375 139.11375 -109.2784375 139.11375 -109.5625 140.25 C-110.17039473 142.87097652 -110.17039473 142.87097652 -109.5 144.875 C-108.75699159 148.03278574 -109.45295708 150.83930758 -110 154 C-107.36 154 -104.72 154 -102 154 C-102 158.95 -102 163.9 -102 169 C-112.15519268 163.92240366 -117.56964683 147.48123181 -121.02197266 137.19384766 C-130.00537728 109.26817972 -126.85109556 81.33438934 -114.59765625 54.984375 C-103.95027704 34.33848734 -85.44984156 15.37042768 -64 6 C-63.24589844 5.65582031 -62.49179688 5.31164062 -61.71484375 4.95703125 C-57.32284131 3.4087714 -52.78588352 3.10784245 -48.1796875 2.5625 C-44.85605254 2.19384576 -44.85605254 2.19384576 -42 0 C-39.56315819 -0.47221097 -37.20897929 -0.84128284 -34.75 -1.125 C-34.04415771 -1.20919189 -33.33831543 -1.29338379 -32.61108398 -1.38012695 C-8.13814371 -4.06907185 -8.13814371 -4.06907185 0 0 Z " fill="#0AB7C9" transform="translate(214,6)"/>
<path d="M0 0 C3.63 0 7.26 0 11 0 C11 1.32 11 2.64 11 4 C11.99 3.67 12.98 3.34 14 3 C15.82518575 5.33623775 17.01010373 7.08898065 16.9765625 10.11328125 C16.71735287 12.08537617 16.36455921 14.04463697 16 16 C13.69 16.66 11.38 17.32 9 18 C8.34843591 22.72383963 7.88049363 27.21974517 8 32 C4.535 32.495 4.535 32.495 1 33 C0.67 35.31 0.34 37.62 0 40 C-1.485 39.505 -1.485 39.505 -3 39 C-5.19038423 40.37168238 -5.19038423 40.37168238 -7 42 C-6.175 42.45375 -5.35 42.9075 -4.5 43.375 C-3.675 43.91125 -2.85 44.4475 -2 45 C-2 45.66 -2 46.32 -2 47 C-6.38678979 48.11410534 -10.32197084 49.01093595 -14.875 48.9375 C-17.99070953 48.67570781 -17.99070953 48.67570781 -19.8125 50.5 C-20.204375 50.995 -20.59625 51.49 -21 52 C-21.66 52 -22.32 52 -23 52 C-23.103125 52.639375 -23.20625 53.27875 -23.3125 53.9375 C-23.539375 54.618125 -23.76625 55.29875 -24 56 C-27 57 -27 57 -29.25 56.5 C-33.30819321 55.76214669 -37.28591734 56.14295867 -41 58 C-42.44998537 58.27712076 -43.91070004 58.50020582 -45.375 58.6875 C-46.14585937 58.79449219 -46.91671875 58.90148437 -47.7109375 59.01171875 C-50.37463087 58.99808209 -51.67117051 58.23075664 -54 57 C-56.18803327 56.62317157 -56.18803327 56.62317157 -58.4375 56.5 C-61.99350911 56.16934336 -64.72113069 55.46686259 -68 54 C-69.155 53.731875 -70.31 53.46375 -71.5 53.1875 C-75.50866859 51.82741602 -77.20093311 50.11007432 -80 47 C-80.99 46.34 -81.98 45.68 -83 45 C-83 44.34 -83 43.68 -83 43 C-83.66 43 -84.32 43 -85 43 C-86.5078125 41.03125 -86.5078125 41.03125 -88.125 38.5 C-88.66382813 37.6646875 -89.20265625 36.829375 -89.7578125 35.96875 C-90.16773438 35.3190625 -90.57765625 34.669375 -91 34 C-87.60459566 35.13180145 -86.84642148 36.10357199 -84.625 38.8125 C-77.20176207 47.48580502 -67.36184879 53.11794144 -55.83374023 54.20410156 C-53.59305219 54.30252779 -51.36774407 54.32907555 -49.125 54.3125 C-48.33416016 54.30758545 -47.54332031 54.3026709 -46.72851562 54.29760742 C-40.7291106 54.17744678 -35.53803492 53.41924683 -30 51 C-29.16210938 50.64808594 -28.32421875 50.29617187 -27.4609375 49.93359375 C-22.05981936 47.46148077 -17.87306839 44.46817434 -13.59375 40.35546875 C-12 39 -12 39 -10 39 C-9.59007812 38.10667969 -9.59007812 38.10667969 -9.171875 37.1953125 C-8.03924984 35.07352802 -6.88337128 33.62253164 -5.25 31.875 C-1.51132741 27.62443092 1.23327221 22.91953669 4 18 C4.598125 16.96875 5.19625 15.9375 5.8125 14.875 C7.33170785 11.19691784 7.65866671 7.95946621 8 4 C2.14941991 5.95019336 0.4134128 9.21715542 -2.4453125 14.3125 C-8.51544145 24.80558723 -18.04829057 35.44531859 -30 39 C-33.44816014 39.09434091 -36.6323248 38.7236919 -40 38 C-39.34 37.34 -38.68 36.68 -38 36 C-34.875 36.375 -34.875 36.375 -32 37 C-31.67 36.01 -31.34 35.02 -31 34 C-29.22265625 33.04296875 -29.22265625 33.04296875 -27.0625 32.1875 C-23.6602613 30.62332228 -23.1564671 30.33901205 -21.5 26.75 C-21.335 25.8425 -21.17 24.935 -21 24 C-19.35 24 -17.7 24 -16 24 C-16 21.36 -16 18.72 -16 16 C-14.8553125 15.9690625 -14.8553125 15.9690625 -13.6875 15.9375 C-10.58610882 15.20339051 -10.58610882 15.20339051 -9.1875 11.4375 C-8.795625 10.303125 -8.40375 9.16875 -8 8 C-5.69 8 -3.38 8 -1 8 C-0.67 5.36 -0.34 2.72 0 0 Z " fill="#535DD4" transform="translate(240,128)"/>
<path d="M0 0 C1.12148437 0.12568359 1.12148437 0.12568359 2.265625 0.25390625 C3.25046875 0.35574219 4.2353125 0.45757812 5.25 0.5625 C6.71179688 0.71912109 6.71179688 0.71912109 8.203125 0.87890625 C10.78947553 0.99088511 12.54087193 0.67893318 15 0 C16.66666667 0.33333333 18.33333333 0.66666667 20 1 C20.66 0.835 21.32 0.67 22 0.5 C24 0 24 0 26.4375 0.5 C29.30677352 1.05985825 31.16577814 0.58137884 34 0 C35.33568021 0.32380126 36.66923011 0.65657551 38 1 C38.61875 0.835 39.2375 0.67 39.875 0.5 C42.76460047 -0.17990599 45.12253502 0.41142762 48 1 C47.67 1.66 47.34 2.32 47 3 C45 3.5 45 3.5 42 4 C41.35877197 4.16266357 40.71754395 4.32532715 40.05688477 4.49291992 C34.51107463 5.89351517 29.62024724 6.07527567 23.9375 5.8125 C4.90833311 5.4214 -11.29303098 14.07456869 -25 27 C-31.04327375 33.30405696 -36.21078376 40.10247563 -40 48 C-40.99 48 -41.98 48 -43 48 C-43 48.99 -43 49.98 -43 51 C-43.66 51 -44.32 51 -45 51 C-45.33 52.98 -45.66 54.96 -46 57 C-46.66 56.67 -47.32 56.34 -48 56 C-48.44921875 53.41796875 -48.44921875 53.41796875 -48.6875 50.1875 C-48.77386719 49.12917969 -48.86023438 48.07085937 -48.94921875 46.98046875 C-48.993624 44.37422205 -48.79191642 42.45910887 -48 40 C-47.34 40 -46.68 40 -46 40 C-45.67 39.34 -45.34 38.68 -45 38 C-44.34 38.66 -43.68 39.32 -43 40 C-42.34 38.68 -41.68 37.36 -41 36 C-40.34 36 -39.68 36 -39 36 C-39 34.68 -39 33.36 -39 32 C-36.69 32 -34.38 32 -32 32 C-32 29.36 -32 26.72 -32 24 C-30.02 23.67 -28.04 23.34 -26 23 C-25.01 19.535 -25.01 19.535 -24 16 C-20.535 15.505 -20.535 15.505 -17 15 C-16.505 8.565 -16.505 8.565 -16 2 C-15.01 2 -14.02 2 -13 2 C-13.33 3.98 -13.66 5.96 -14 8 C-11.36 8.66 -8.72 9.32 -6 10 C-6 9.01 -6 8.02 -6 7 C-6.99 6.67 -7.98 6.34 -9 6 C-7.68 6 -6.36 6 -5 6 C-5 6.66 -5 7.32 -5 8 C-3.68 8.33 -2.36 8.66 -1 9 C-0.67 6.03 -0.34 3.06 0 0 Z M-13 10 C-12 12 -12 12 -12 12 Z " fill="#1C9CC1" transform="translate(192,32)"/>
<path d="M0 0 C0.495 1.485 0.495 1.485 1 3 C2.99665314 4.68538601 2.99665314 4.68538601 5 6 C4.67 7.32 4.34 8.64 4 10 C3.34 8.68 2.68 7.36 2 6 C1.34 6.33 0.68 6.66 0 7 C-2.01927511 6.39421747 -4.02253397 5.73080266 -6 5 C-6.33 5.99 -6.66 6.98 -7 8 C-10 6 -10 6 -10.6875 3.875 C-10.8421875 2.946875 -10.8421875 2.946875 -11 2 C-11.66 2.33 -12.32 2.66 -13 3 C-12.34 3.99 -11.68 4.98 -11 6 C-11.9590625 6.433125 -11.9590625 6.433125 -12.9375 6.875 C-15.15206079 7.82823451 -15.15206079 7.82823451 -16 10 C-17.32 10 -18.64 10 -20 10 C-21.67225729 10.30404678 -23.34080104 10.63128912 -25 11 C-24.505 13.475 -24.505 13.475 -24 16 C-25.98 16 -27.96 16 -30 16 C-31.4606285 18.64738916 -32 19.89448334 -32 23 C-32.66 23 -33.32 23 -34 23 C-34.2475 23.556875 -34.495 24.11375 -34.75 24.6875 C-36.25686838 27.47520651 -37.8181426 29.69346503 -40 32 C-41.299375 32.2475 -41.299375 32.2475 -42.625 32.5 C-43.800625 32.7475 -43.800625 32.7475 -45 33 C-46.23290201 35.45704762 -46.23290201 35.45704762 -47 38 C-47.99 38.495 -47.99 38.495 -49 39 C-50.05021103 40.84971696 -50.05021103 40.84971696 -51 43 C-51.32871094 43.5878125 -51.65742188 44.175625 -51.99609375 44.78125 C-54.00508176 49.22134801 -54.31216953 54.20953466 -55 59 C-55.11472656 59.75667969 -55.22945312 60.51335937 -55.34765625 61.29296875 C-56.26382319 68.17067266 -56.08865825 75.07480592 -56 82 C-56.66 82 -57.32 82 -58 82 C-58 83.98 -58 85.96 -58 88 C-58.33 88 -58.66 88 -59 88 C-60.00673498 60.37828978 -56.52238691 36.96552433 -37.671875 15.65625 C-25.98613232 4.03884499 -16.38645873 -0.83913587 0 0 Z " fill="#3E91D1" transform="translate(224,48)"/>
<path d="M0 0 C0.99 0.495 0.99 0.495 2 1 C-20.06820029 14.73597301 -48.99614914 20.10364598 -74.5 14.3125 C-84.37396646 11.91424002 -93.9602397 8.66873848 -103 4 C-99.47399672 2.76713172 -97.33250451 3.26769699 -93.8125 4.375 C-85.35606531 7.12926016 -85.35606531 7.12926016 -77 6 C-74.98072489 6.60578253 -72.97746603 7.26919734 -71 8 C-71 9.32 -71 10.64 -71 12 C-69.02 11.67 -67.04 11.34 -65 11 C-65 11.66 -65 12.32 -65 13 C-62.36 13 -59.72 13 -57 13 C-56.67 12.01 -56.34 11.02 -56 10 C-53.41659616 9.97296438 -50.83347692 9.95314389 -48.25 9.9375 C-47.52039063 9.92912109 -46.79078125 9.92074219 -46.0390625 9.91210938 C-40.44008287 9.88665947 -40.44008287 9.88665947 -37.92871094 10.53344727 C-35.39785125 11.14565902 -33.49643074 10.62410768 -31 10 C-31.495 8.515 -31.495 8.515 -32 7 C-28.56889804 6.14222451 -26.38420123 6.03308536 -23 7 C-22.67 6.67 -22.34 6.34 -22 6 C-19.81620888 5.70072876 -17.62764822 5.43601099 -15.4375 5.1875 C-9.40807355 4.38849344 -5.26051276 2.9337475 0 0 Z " fill="#5D2FB2" transform="translate(249,202)"/>
<path d="M0 0 C11.39480454 4.91590019 18.78164275 20.26121841 23.328125 31.12890625 C24.13973916 33.38915732 24.64051341 35.62738849 25 38 C25.33 38.66 25.66 39.32 26 40 C26.039992 41.99960012 26.04346799 44.00047242 26 46 C20.375 47.125 20.375 47.125 17 46 C17.01160156 45.18015625 17.02320313 44.3603125 17.03515625 43.515625 C17.04417969 42.43796875 17.05320312 41.3603125 17.0625 40.25 C17.07410156 39.18265625 17.08570313 38.1153125 17.09765625 37.015625 C17.10936547 34.09883173 17.10936547 34.09883173 16.43359375 31.734375 C16 30 16 30 17 28 C16.67 27.34 16.34 26.68 16 26 C15.01 26 14.02 26 13 26 C13 24.68 13 23.36 13 22 C12.01 22 11.02 22 10 22 C9.896875 20.88625 9.79375 19.7725 9.6875 18.625 C9.460625 17.42875 9.23375 16.2325 9 15 C8.01 14.34 7.02 13.68 6 13 C6 12.34 6 11.68 6 11 C5.01 11 4.02 11 3 11 C3.20625 10.2575 3.4125 9.515 3.625 8.75 C4.04408751 5.67669159 3.61949011 4.57213134 2 2 C1.34 2 0.68 2 0 2 C0 1.34 0 0.68 0 0 Z " fill="#4A6CDB" transform="translate(271,34)"/>
<path d="M0 0 C19.47 0 38.94 0 59 0 C56 2 56 2 54 3 C56.64 3.66 59.28 4.32 62 5 C62 5.66 62 6.32 62 7 C63.41601714 7.48108275 64.83284437 7.95978141 66.25 8.4375 C67.43335938 8.83775391 67.43335938 8.83775391 68.640625 9.24609375 C70.74821988 9.91954708 72.84753973 10.49150595 75 11 C74.67 11.99 74.34 12.98 74 14 C72.92105469 13.56494141 72.92105469 13.56494141 71.8203125 13.12109375 C56.18051313 6.90416519 42.25040804 3.82078038 25.375 3.8125 C23.43947266 3.79413086 23.43947266 3.79413086 21.46484375 3.77539062 C13.12408758 3.7627913 5.19900544 4.46605421 -3 6 C-3 5.01 -3 4.02 -3 3 C-2.01 2.34 -1.02 1.68 0 1 C0 0.67 0 0.34 0 0 Z " fill="#F3FCFB" transform="translate(171,0)"/>
<path d="M0 0 C0 0.33 0 0.66 0 1 C-0.59167969 0.90460937 -1.18335938 0.80921875 -1.79296875 0.7109375 C-6.49943935 0.05064962 -9.67221299 -0.28410981 -14 2 C-16.98539277 3.27945405 -18.72477948 4 -22 4 C-22 4.66 -22 5.32 -22 6 C-17.71 6 -13.42 6 -9 6 C-8.505 8.475 -8.505 8.475 -8 11 C-8.66386719 10.50886719 -9.32773438 10.01773438 -10.01171875 9.51171875 C-13.69393676 7.64894964 -16.7946943 7.66255318 -20.8125 7.8125 C-21.50537109 7.82603516 -22.19824219 7.83957031 -22.91210938 7.85351562 C-24.60841265 7.88861155 -26.30431136 7.94241057 -28 8 C-26.78534783 4.92254092 -25.52352768 1.93823196 -24 -1 C-27.90164684 -1.23409881 -30.41494626 -1.29875085 -33.9375 0.5 C-37.93348703 2.45721814 -40.59308635 2.22794381 -45 2 C-45 2.66 -45 3.32 -45 4 C-45.66386719 4.23074219 -46.32773438 4.46148437 -47.01171875 4.69921875 C-52.50931897 6.72971927 -56.0189988 8.57666534 -60 13 C-63.125 15.375 -63.125 15.375 -66 17 C-66.99 16.67 -67.98 16.34 -69 16 C-49.73589569 -0.68963876 -24.82735994 -11.10045634 0 0 Z " fill="#F0FAFC" transform="translate(237,41)"/>
<path d="M0 0 C0.99 0.33 1.98 0.66 3 1 C1.00594719 4.24956754 -0.6797356 6.74676769 -3.6875 9.125 C-6.13130744 11.10646549 -6.67201637 11.93881949 -7 15 C-9.31 15.33 -11.62 15.66 -14 16 C-14.33 17.98 -14.66 19.96 -15 22 C-18 23 -18 23 -20 23 C-21.83136397 24.14121942 -23.52136926 25.42250612 -25.24609375 26.71875 C-27 28 -27 28 -29.4375 29.3125 C-31.40003649 31.43203941 -31.23509717 32.35596311 -31.25 35.1875 C-31.1675 36.445625 -31.085 37.70375 -31 39 C-31.763125 39.28875 -32.52625 39.5775 -33.3125 39.875 C-36.15029308 40.96269013 -36.15029308 40.96269013 -39 43 C-37.75237892 34.13869133 -30.99703735 25.40931911 -24 20 C-23.34 20 -22.68 20 -22 20 C-21.401875 19.071875 -20.80375 18.14375 -20.1875 17.1875 C-17.9687264 13.95442989 -16.37403243 12.82380132 -13 11 C-12.67 10.34 -12.34 9.68 -12 9 C-11.34 9 -10.68 9 -10 9 C-10 8.34 -10 7.68 -10 7 C-7.09451118 4.95830515 -5.59857954 4 -2 4 C-2 3.34 -2 2.68 -2 2 C-1.34 2 -0.68 2 0 2 C0 1.34 0 0.68 0 0 Z M-41 43 C-40.34 43 -39.68 43 -39 43 C-38.3125 45.75 -38.3125 45.75 -38 49 C-39.4375 51.25 -39.4375 51.25 -41 53 C-41 53.66 -41 54.32 -41 55 C-42.32 54.67 -43.64 54.34 -45 54 C-44.34 53.01 -43.68 52.02 -43 51 C-42.33841957 48.95415921 -42.33841957 48.95415921 -41.875 46.8125 C-41.58625 45.554375 -41.2975 44.29625 -41 43 Z " fill="#06BFCD" transform="translate(143,17)"/>
<path d="M0 0 C2.05078125 0.03255208 4.1015625 0.06510417 6.15234375 0.09765625 C5.27734375 4.97265625 5.27734375 4.97265625 4.15234375 6.09765625 C4.05123753 8.51352255 4.01264535 10.90010583 4.01953125 13.31640625 C4.01809616 14.41426453 4.01809616 14.41426453 4.01663208 15.53430176 C4.01594969 17.09122808 4.01780805 18.64815722 4.02197266 20.20507812 C4.02725913 22.55996336 4.0220618 24.91465247 4.015625 27.26953125 C4.01269553 34.60492037 4.10106433 41.82213519 5.15234375 49.09765625 C0.27734375 48.22265625 0.27734375 48.22265625 -0.84765625 47.09765625 C-1.13603252 39.7440613 -0.4239609 32.42495822 0.15234375 25.09765625 C-0.83765625 24.76765625 -1.82765625 24.43765625 -2.84765625 24.09765625 C-2.87652861 20.28517199 -2.89441117 16.47271555 -2.91015625 12.66015625 C-2.91853516 11.57154297 -2.92691406 10.48292969 -2.93554688 9.36132812 C-2.93876953 8.32685547 -2.94199219 7.29238281 -2.9453125 6.2265625 C-2.95054932 5.2682251 -2.95578613 4.3098877 -2.96118164 3.32250977 C-2.82093943 0.57406403 -2.75575747 0.14565314 0 0 Z " fill="#1F9ED4" transform="translate(136.84765625,95.90234375)"/>
<path d="M0 0 C2.1446143 2.1446143 2.44564603 3.01739998 3.125 5.875 C3.29257813 6.55304688 3.46015625 7.23109375 3.6328125 7.9296875 C4 10 4 10 4 14 C4.66 14 5.32 14 6 14 C6 14.66 6 15.32 6 16 C8.97 16 11.94 16 15 16 C14.814375 16.7425 14.62875 17.485 14.4375 18.25 C13.82960527 20.87097652 13.82960527 20.87097652 14.5 22.875 C15.24300841 26.03278574 14.54704292 28.83930758 14 32 C16.64 32 19.28 32 22 32 C22 36.95 22 41.9 22 47 C12.36283258 42.18141629 6.92975431 26.72296815 3.5859375 16.93359375 C3.11488353 15.49899815 2.64870899 14.0627909 2.1875 12.625 C1.96811768 11.94655029 1.74873535 11.26810059 1.52270508 10.5690918 C0.41047431 6.95041284 -0.25598323 3.78855183 0 0 Z " fill="#319CBB" transform="translate(90,128)"/>
<path d="M0 0 C0.66 0 1.32 0 2 0 C1.67 1.32 1.34 2.64 1 4 C0.38125 4.0825 -0.2375 4.165 -0.875 4.25 C-3.15354435 4.79278299 -3.15354435 4.79278299 -4.0625 6.875 C-4.5265625 7.926875 -4.5265625 7.926875 -5 9 C-6.72324651 11.05148394 -8.20229023 12.11347988 -10.5625 13.4375 C-13.15777979 15.10114089 -13.92565703 16.16764125 -15 19 C-15.66 19 -16.32 19 -17 19 C-17.103125 19.639375 -17.20625 20.27875 -17.3125 20.9375 C-17.539375 21.618125 -17.76625 22.29875 -18 23 C-21 24 -21 24 -23.25 23.5 C-27.30819321 22.76214669 -31.28591734 23.14295867 -35 25 C-36.44998537 25.27712076 -37.91070004 25.50020582 -39.375 25.6875 C-40.14585937 25.79449219 -40.91671875 25.90148437 -41.7109375 26.01171875 C-44.37463087 25.99808209 -45.67117051 25.23075664 -48 24 C-50.18803327 23.62317157 -50.18803327 23.62317157 -52.4375 23.5 C-55.99350911 23.16934336 -58.72113069 22.46686259 -62 21 C-63.155 20.731875 -64.31 20.46375 -65.5 20.1875 C-69.50866859 18.82741602 -71.20093311 17.11007432 -74 14 C-74.99 13.34 -75.98 12.68 -77 12 C-77 11.34 -77 10.68 -77 10 C-77.66 10 -78.32 10 -79 10 C-80.5078125 8.03125 -80.5078125 8.03125 -82.125 5.5 C-82.66382813 4.6646875 -83.20265625 3.829375 -83.7578125 2.96875 C-84.16773438 2.3190625 -84.57765625 1.669375 -85 1 C-81.60459566 2.13180145 -80.84642148 3.10357199 -78.625 5.8125 C-71.20176207 14.48580502 -61.36184879 20.11794144 -49.83374023 21.20410156 C-47.59305219 21.30252779 -45.36774407 21.32907555 -43.125 21.3125 C-42.33416016 21.30758545 -41.54332031 21.3026709 -40.72851562 21.29760742 C-34.7291106 21.17744678 -29.53803492 20.41924683 -24 18 C-23.16210938 17.64808594 -22.32421875 17.29617187 -21.4609375 16.93359375 C-16.05981936 14.46148077 -11.87306839 11.46817434 -7.59375 7.35546875 C-6 6 -6 6 -4 6 C-3.71125 5.38125 -3.4225 4.7625 -3.125 4.125 C-2 2 -2 2 0 0 Z " fill="#625ABD" transform="translate(234,161)"/>
<path d="M0 0 C0.99 0 1.98 0 3 0 C3.01417969 0.6290625 3.02835938 1.258125 3.04296875 1.90625 C3.41761559 8.62964185 5.1087908 12.59822822 9 18 C9.495 18.9075 9.99 19.815 10.5 20.75 C12.29726713 23.44590069 14.39634981 25.10003905 17 27 C16.67 25.68 16.34 24.36 16 23 C19.41099168 23 22.63088314 23.49145406 26 24 C26.33 24.99 26.66 25.98 27 27 C29.31 27 31.62 27 34 27 C34 26.01 34 25.02 34 24 C37.63 24 41.26 24 45 24 C45 26 45 26 43.6875 27.625 C42 29 42 29 39 29 C39.99 29.99 40.98 30.98 42 32 C31.55916263 34.19807103 22.144374 33.42655187 12.92578125 27.71484375 C5.82878065 22.18811226 2.08988912 13.57517996 0 5 C-0.1875 1.9375 -0.1875 1.9375 0 0 Z " fill="#466CDC" transform="translate(166,136)"/>
<path d="M0 0 C2.57410619 2.25492061 3.59217427 4.08858135 4.5703125 7.3515625 C4.82683594 8.20363281 5.08335937 9.05570313 5.34765625 9.93359375 C5.60417969 10.82175781 5.86070312 11.70992187 6.125 12.625 C6.38925781 13.48996094 6.65351563 14.35492188 6.92578125 15.24609375 C14.69942322 41.56598813 10.02922245 70.67859446 -2.875 94.5 C-3.90621893 96.3392303 -4.94376289 98.17502227 -6 100 C-7 98 -7 98 -6.44140625 96.0546875 C-6.00634766 94.97574219 -6.00634766 94.97574219 -5.5625 93.875 C-5.13130859 92.78832031 -5.13130859 92.78832031 -4.69140625 91.6796875 C-4.46324219 91.12539062 -4.23507812 90.57109375 -4 90 C-3.34 90 -2.68 90 -2 90 C-1.7525 89.071875 -1.505 88.14375 -1.25 87.1875 C-0.36458589 84.04145412 0.75000689 81.04380419 1.9375 78 C6.27535105 65.88001168 7.27138128 54.73965464 7.3125 41.9375 C7.31797852 40.66406738 7.32345703 39.39063477 7.32910156 38.07861328 C7.26689283 29.8550516 7.26689283 29.8550516 5 22 C4.34 21.67 3.68 21.34 3 21 C2.67 23.64 2.34 26.28 2 29 C1.34 29 0.68 29 0 29 C-0.02692484 26.70839681 -0.04636124 24.41670454 -0.0625 22.125 C-0.07410156 20.84882812 -0.08570313 19.57265625 -0.09765625 18.2578125 C0 15 0 15 1 13 C1.66 13 2.32 13 3 13 C2.690625 11.783125 2.38125 10.56625 2.0625 9.3125 C1.28842823 6.2217028 0.58737312 3.13265666 0 0 Z " fill="#5A53D7" transform="translate(294,67)"/>
<path d="M0 0 C2.00093689 -0.00218046 4.00183416 -0.02068039 6.00268555 -0.03930664 C13.33292122 -0.0502965 20.10575775 0.32218157 27.20385742 2.18530273 C27.86651611 2.35167236 28.5291748 2.51804199 29.21191406 2.68945312 C45.93722588 7.10911731 64.26662099 15.24282534 76.20385742 28.18530273 C75.70885742 29.67030273 75.70885742 29.67030273 75.20385742 31.18530273 C75.20385742 30.52530273 75.20385742 29.86530273 75.20385742 29.18530273 C74.64698242 28.91717773 74.09010742 28.64905273 73.51635742 28.37280273 C69.79991837 26.46436106 66.77886025 24.82419477 63.95385742 21.68530273 C60.78581523 18.80526438 58.28994991 18.09846221 54.25854492 16.93530273 C52.20385742 16.18530273 52.20385742 16.18530273 50.26635742 14.12280273 C47.3531569 11.38615982 44.44483735 11.3754354 40.57885742 10.75170898 C38.20385742 10.18530273 38.20385742 10.18530273 35.76635742 8.12280273 C32.23722422 5.45443373 29.16129855 5.61511337 24.82495117 5.45874023 C22.11269387 5.17579238 20.57841622 4.45564283 18.20385742 3.18530273 C7.36823401 1.40897103 -3.67646742 1.76378287 -14.54614258 3.06030273 C-15.22555908 3.13869385 -15.90497559 3.21708496 -16.60498047 3.29785156 C-20.02605119 3.75026398 -21.86727373 4.2327235 -24.79614258 6.18530273 C-27.49536133 6.59936523 -27.49536133 6.59936523 -30.48364258 6.81030273 C-31.97444336 6.92245117 -31.97444336 6.92245117 -33.49536133 7.03686523 C-34.25461914 7.08584961 -35.01387695 7.13483398 -35.79614258 7.18530273 C-33.13358229 4.52274245 -30.72603849 4.13382837 -27.10864258 3.12280273 C-25.90852539 2.78120117 -24.7084082 2.43959961 -23.47192383 2.08764648 C-15.63231114 0.1631507 -8.03228787 -0.000978 0 0 Z " fill="#339DB4" transform="translate(193.796142578125,2.814697265625)"/>
<path d="M0 0 C0.66 0.33 1.32 0.66 2 1 C1.67 1.99 1.34 2.98 1 4 C-0.1865126 8.08594833 -0.14865179 11.76342394 0 16 C-2.31 16.33 -4.62 16.66 -7 17 C-7.33 19.31 -7.66 21.62 -8 24 C-8.99 23.67 -9.98 23.34 -11 23 C-13.19038423 24.37168238 -13.19038423 24.37168238 -15 26 C-14.175 26.45375 -13.35 26.9075 -12.5 27.375 C-11.675 27.91125 -10.85 28.4475 -10 29 C-10 29.66 -10 30.32 -10 31 C-15.45461169 32.38529821 -20.36718401 33.2396943 -26 33 C-26.33 33.66 -26.66 34.32 -27 35 C-27.66 34.67 -28.32 34.34 -29 34 C-24.375 29.125 -24.375 29.125 -21 28 C-20.360625 27.030625 -19.72125 26.06125 -19.0625 25.0625 C-17 22 -17 22 -14.8125 20.9375 C-13.9153125 20.4734375 -13.9153125 20.4734375 -13 20 C-12.85691406 19.25492188 -12.71382812 18.50984375 -12.56640625 17.7421875 C-11.93198278 14.67070285 -10.85783489 12.78675233 -9.125 10.1875 C-8.35542969 9.00220703 -8.35542969 9.00220703 -7.5703125 7.79296875 C-7.05210937 7.20128906 -6.53390625 6.60960937 -6 6 C-5.01 6 -4.02 6 -3 6 C-2.87625 5.195625 -2.7525 4.39125 -2.625 3.5625 C-2.315625 2.2940625 -2.315625 2.2940625 -2 1 C-1.34 0.67 -0.68 0.34 0 0 Z " fill="#5D4CDC" transform="translate(248,144)"/>
<path d="M0 0 C0.66 0.33 1.32 0.66 2 1 C2 1.99 2 2.98 2 4 C2.66 4 3.32 4 4 4 C4 6.64 4 9.28 4 12 C4.66 12 5.32 12 6 12 C6.81282889 18.17749956 4.0656946 22.83476909 1 28 C0.34 28.66 -0.32 29.32 -1 30 C-1.16687448 32.58354218 -1.16687448 32.58354218 -1 35 C2.89459074 35.21081851 2.89459074 35.21081851 6 34 C6.66 34.33 7.32 34.66 8 35 C8 33.68 8 32.36 8 31 C9.375 29.25 9.375 29.25 11 28 C11.66 28 12.32 28 13 28 C13.33 26.68 13.66 25.36 14 24 C14.66 24 15.32 24 16 24 C16.16955795 22.27111445 16.33551514 20.54187557 16.5 18.8125 C16.63921875 17.36810547 16.63921875 17.36810547 16.78125 15.89453125 C17.06200945 13.02718909 17.06200945 13.02718909 16.84375 10.26171875 C16.8953125 9.51535156 16.946875 8.76898438 17 8 C17.99 7.34 18.98 6.68 20 6 C20.5031283 15.96939417 19.36750148 23.995141 13 32 C8.76197308 36.11237113 5.29112414 38.88350216 -0.6875 39.1875 C-4 39 -4 39 -5 38 C-4.77614733 33.07524126 -3.33178223 29.2327041 -1.4375 24.6875 C1.90951022 16.26193381 1.95632034 9.49942097 -1 1 C-0.67 0.67 -0.34 0.34 0 0 Z " fill="#E6F6FD" transform="translate(231,52)"/>
<path d="M0 0 C0.99 0.33 1.98 0.66 3 1 C5.82650748 7.4389104 5.34046618 14.03553489 5.3125 20.9375 C5.31121094 22.23389404 5.30992187 23.53028809 5.30859375 24.8659668 C5.21778286 33.91356883 4.52527645 42.29681508 2 51 C-0.4798191 48.78826945 -0.99613366 48.01491302 -1.875 44.625 C-2.01599249 40.53621782 -1.29745091 39.26944938 1 36 C1.69579454 33.80869466 1.69579454 33.80869466 2 32 C1.01 31.67 0.02 31.34 -1 31 C-0.93994146 28.08115472 -0.85291384 25.16738361 -0.75 22.25 C-0.73582031 21.425 -0.72164063 20.6 -0.70703125 19.75 C-0.45812087 13.57702246 -0.45812087 13.57702246 2.046875 10.421875 C3.01367188 9.71804687 3.01367188 9.71804687 4 9 C3.01 9.33 2.02 9.66 1 10 C1 9.34 1 8.68 1 8 C0.34 8 -0.32 8 -1 8 C-0.67 5.36 -0.34 2.72 0 0 Z " fill="#752EDB" transform="translate(297,88)"/>
<path d="M0 0 C3.32983867 0.53235665 6.64105972 1.11796123 9.9453125 1.7890625 C10.97205078 1.99402344 10.97205078 1.99402344 12.01953125 2.203125 C13.43220577 2.48618409 14.84367367 2.77532807 16.25390625 3.0703125 C19.8596179 3.77918587 22.48958961 4.08197581 26 3 C29.25 3.9375 29.25 3.9375 32 5 C32 6.32 32 7.64 32 9 C33.98 8.67 35.96 8.34 38 8 C38 8.99 38 9.98 38 11 C46.25 11 54.5 11 63 11 C55.04816932 16.30122045 39.76689963 13.61684876 30.72973633 11.81860352 C20.07914391 9.40114177 9.71965892 6.01988372 0 1 C0 0.67 0 0.34 0 0 Z " fill="#645DC8" transform="translate(146,205)"/>
<path d="M0 0 C3.63 0 7.26 0 11 0 C11 1.32 11 2.64 11 4 C11.99 3.67 12.98 3.34 14 3 C15.82518575 5.33623775 17.01010373 7.08898065 16.9765625 10.11328125 C16.71735287 12.08537617 16.36455921 14.04463697 16 16 C11.05 16.495 11.05 16.495 6 17 C6.33 17.99 6.66 18.98 7 20 C6.01 20.99 5.02 21.98 4 23 C3 20 3 20 3.7421875 18.23828125 C4.11601562 17.60277344 4.48984375 16.96726563 4.875 16.3125 C7.11744863 12.14463858 7.66439107 8.69852507 8 4 C2.01930942 6.22537324 -0.108948 9.61445624 -3 15 C-3.33 14.34 -3.66 13.68 -4 13 C-3.34 12.01 -2.68 11.02 -2 10 C-1.56261304 8.28555111 -1.19151312 6.55332216 -0.875 4.8125 C-0.58625 3.224375 -0.2975 1.63625 0 0 Z " fill="#5856B8" transform="translate(240,128)"/>
<path d="M0 0 C1.1484375 3.703125 1.1484375 3.703125 -0.1875 6.375 C-0.785625 7.24125 -1.38375 8.1075 -2 9 C-4.90642774 13.21961611 -4.90642774 13.21961611 -7.125 17.8125 C-8 20 -8 20 -10 21 C-11.05021103 22.84971696 -11.05021103 22.84971696 -12 25 C-12.32871094 25.5878125 -12.65742188 26.175625 -12.99609375 26.78125 C-15.00508176 31.22134801 -15.31216953 36.20953466 -16 41 C-16.11472656 41.75667969 -16.22945312 42.51335937 -16.34765625 43.29296875 C-17.26382319 50.17067266 -17.08865825 57.07480592 -17 64 C-17.66 64 -18.32 64 -19 64 C-19 65.98 -19 67.96 -19 70 C-19.33 70 -19.66 70 -20 70 C-20.95757884 43.72698296 -18.4319845 20.13886673 0 0 Z " fill="#3F8FB8" transform="translate(185,66)"/>
<path d="M0 0 C-0.36764683 5.70486455 -1.1292697 9.94751468 -4 15 C-4.68528045 16.65910004 -5.35891863 18.32332564 -6 20 C-6.66 20 -7.32 20 -8 20 C-8.12375 20.86625 -8.2475 21.7325 -8.375 22.625 C-8.98058121 25.89513853 -9.88306035 28.87256899 -11 32 C-11.66 32 -12.32 32 -13 32 C-13.66 32.99 -14.32 33.98 -15 35 C-15.66 35 -16.32 35 -17 35 C-17.33 31.37 -17.66 27.74 -18 24 C-15.29889598 22.64944799 -12.99210994 23 -10 23 C-10 22.38511719 -10 21.77023438 -10 21.13671875 C-10 16.42447917 -10 11.71223958 -10 7 C-9.01 7 -8.02 7 -7 7 C-7 5.35 -7 3.7 -7 2 C-6.67 2 -6.34 2 -6 2 C-6 3.65 -6 5.3 -6 7 C-5.34 7 -4.68 7 -4 7 C-4 5.02 -4 3.04 -4 1 C-1 0 -1 0 0 0 Z " fill="#7A29E3" transform="translate(298,137)"/>
<path d="M0 0 C0 0.66 0 1.32 0 2 C-0.99 2 -1.98 2 -3 2 C-3 2.66 -3 3.32 -3 4 C-3.66 4 -4.32 4 -5 4 C-5 4.66 -5 5.32 -5 6 C-10.75 9 -10.75 9 -13 9 C-13 9.66 -13 10.32 -13 11 C-13.66 11 -14.32 11 -15 11 C-15.33 11.99 -15.66 12.98 -16 14 C-16.763125 14.4125 -17.52625 14.825 -18.3125 15.25 C-21.96328584 17.6272559 -23.03595735 20.14465702 -25 24 C-25.99 24 -26.98 24 -28 24 C-34.70326662 29.65990102 -38.48084775 37.12189779 -42 45 C-42.66 45 -43.32 45 -44 45 C-44.09796875 45.66386719 -44.1959375 46.32773437 -44.296875 47.01171875 C-45.23015337 52.52288843 -46.22046345 55.74802138 -50 60 C-51.25556887 63.17921787 -51.25556887 63.17921787 -52 66 C-53.26907163 63.03634449 -52.93586473 61.79288648 -51.9609375 58.64453125 C-51.44605011 57.36157979 -50.91661451 56.08439905 -50.375 54.8125 C-50.09503174 54.14049561 -49.81506348 53.46849121 -49.52661133 52.77612305 C-42.79747031 36.89749315 -20.0570183 0 0 0 Z " fill="#35B4BA" transform="translate(146,15)"/>
<path d="M0 0 C0.57234375 0.36867187 1.1446875 0.73734375 1.734375 1.1171875 C-2.765625 5.1171875 -2.765625 5.1171875 -7.265625 5.1171875 C-6.935625 6.7671875 -6.605625 8.4171875 -6.265625 10.1171875 C-8.245625 10.1171875 -10.225625 10.1171875 -12.265625 10.1171875 C-13.7262535 12.76457666 -14.265625 14.01167084 -14.265625 17.1171875 C-14.925625 17.1171875 -15.585625 17.1171875 -16.265625 17.1171875 C-16.636875 17.9525 -16.636875 17.9525 -17.015625 18.8046875 C-18.50433029 21.55879229 -20.14972472 23.80893264 -22.265625 26.1171875 C-23.255625 26.1171875 -24.245625 26.1171875 -25.265625 26.1171875 C-24.69486185 22.12184542 -23.36521085 19.5290145 -21.265625 16.1171875 C-21.15089844 15.48425781 -21.03617188 14.85132812 -20.91796875 14.19921875 C-20.0368731 11.38709909 -18.56040304 10.25634866 -16.328125 8.3671875 C-15.61785156 7.75359375 -14.90757812 7.14 -14.17578125 6.5078125 C-12.265625 5.1171875 -12.265625 5.1171875 -10.265625 5.1171875 C-10.265625 4.4571875 -10.265625 3.7971875 -10.265625 3.1171875 C-9.02678181 2.38951747 -7.77394159 1.68563935 -6.515625 0.9921875 C-5.81953125 0.59773438 -5.1234375 0.20328125 -4.40625 -0.203125 C-2.265625 -0.8828125 -2.265625 -0.8828125 0 0 Z " fill="#2198D2" transform="translate(206.265625,53.8828125)"/>
<path d="M0 0 C3.1415682 0.73691106 6.10108352 1.56641174 9 3 C10.625 6.0625 10.625 6.0625 11 9 C10.67 9.66 10.34 10.32 10 11 C11.65 11 13.3 11 15 11 C15.391875 11.969375 15.78375 12.93875 16.1875 13.9375 C16.785625 14.948125 17.38375 15.95875 18 17 C19.65391846 17.39171753 21.32345271 17.72057545 23 18 C24.68816933 19.64488294 26.35353315 21.31337542 28 23 C31.28321781 24.87612446 34.30327435 26.23516021 38 27 C38.99 27.33 39.98 27.66 41 28 C41.6875 30.0625 41.6875 30.0625 42 32 C31.75344556 30.36891582 24.95675477 25.19379673 17 19 C16.00742188 18.25492188 15.01484375 17.50984375 13.9921875 16.7421875 C9.65263815 13.41477794 6.71900653 10.78545149 4 6 C3.278125 5.278125 2.55625 4.55625 1.8125 3.8125 C1.214375 3.214375 0.61625 2.61625 0 2 C0 1.34 0 0.68 0 0 Z " fill="#3F88C1" transform="translate(111,175)"/>
<path d="M0 0 C1.06751688 3.30421892 0.98942604 4.03172187 -0.1875 7.5625 C-1.90049054 10.81127516 -2.80953223 12.305064 -6 14 C-6.99 14 -7.98 14 -9 14 C-9 15.98 -9 17.96 -9 20 C-9.99 20 -10.98 20 -12 20 C-12.99 22.64 -13.98 25.28 -15 28 C-15.66 28 -16.32 28 -17 28 C-16.6596875 29.2375 -16.6596875 29.2375 -16.3125 30.5 C-15.89811376 35.14112593 -17.16691666 37.74724665 -19 42 C-19.66 41.67 -20.32 41.34 -21 41 C-21.66 41.99 -22.32 42.98 -23 44 C-21.71965449 26.71533568 -11.25714955 12.43782708 0 0 Z " fill="#D7F5F8" transform="translate(167,58)"/>
<path d="M0 0 C0.66 0 1.32 0 2 0 C0.96806875 3.17517307 -0.11478402 6.2817426 -1.375 9.375 C-9.31987823 31.00951457 -9.49942941 53.6070643 -0.92578125 75.1015625 C0 78 0 78 -1 81 C-1.99 78.03 -1.99 78.03 -3 75 C-3.66 75 -4.32 75 -5 75 C-5.48651015 73.33546212 -5.96377915 71.66822271 -6.4375 70 C-6.70433594 69.071875 -6.97117188 68.14375 -7.24609375 67.1875 C-8.76069513 60.78379676 -9.15743179 54.4485745 -9.16796875 47.88671875 C-9.17296135 46.78237236 -9.17296135 46.78237236 -9.17805481 45.65571594 C-9.18307581 44.11545429 -9.18546465 42.57518194 -9.18530273 41.03491211 C-9.18751068 38.67609159 -9.20577468 36.31772376 -9.22460938 33.95898438 C-9.22754004 32.45573075 -9.22952702 30.95247493 -9.23046875 29.44921875 C-9.23765427 28.74609055 -9.24483978 28.04296234 -9.25224304 27.31852722 C-9.23499118 23.64760751 -9.0949602 22.1424403 -7 19 C-6.56261304 17.28555111 -6.19151312 15.55332216 -5.875 13.8125 C-5.70742187 12.91144531 -5.53984375 12.01039062 -5.3671875 11.08203125 C-5.24601563 10.39496094 -5.12484375 9.70789063 -5 9 C-4.34 9 -3.68 9 -3 9 C-2.67 7.02 -2.34 5.04 -2 3 C-1.34 3 -0.68 3 0 3 C0 2.01 0 1.02 0 0 Z " fill="#2589AA" transform="translate(149,80)"/>
<path d="M0 0 C2.97 0.495 2.97 0.495 6 1 C4.38731308 3.71224618 2.75098126 6.37352812 1 9 C0.43182698 10.21714128 -0.11003752 11.44690856 -0.625 12.6875 C-1.07875 13.780625 -1.5325 14.87375 -2 16 C-2.66 16 -3.32 16 -4 16 C-4 16.99 -4 17.98 -4 19 C-4.66 19 -5.32 19 -6 19 C-6.33 20.98 -6.66 22.96 -7 25 C-7.66 24.67 -8.32 24.34 -9 24 C-9.44921875 21.41796875 -9.44921875 21.41796875 -9.6875 18.1875 C-9.77386719 17.12917969 -9.86023438 16.07085937 -9.94921875 14.98046875 C-9.993624 12.37422205 -9.79191642 10.45910887 -9 8 C-8.34 8 -7.68 8 -7 8 C-6.67 7.34 -6.34 6.68 -6 6 C-5.34 6.66 -4.68 7.32 -4 8 C-3.34 6.68 -2.68 5.36 -2 4 C-1.34 4 -0.68 4 0 4 C0 2.68 0 1.36 0 0 Z " fill="#16A8D2" transform="translate(153,64)"/>
<path d="M0 0 C1.67099977 -0.31088368 3.33871537 -0.64080332 5 -1 C6.33568021 -0.67619874 7.66923011 -0.34342449 9 0 C9.61875 -0.165 10.2375 -0.33 10.875 -0.5 C13.76460047 -1.17990599 16.12253502 -0.58857238 19 0 C18.67 0.66 18.34 1.32 18 2 C16 2.5 16 2.5 13 3 C12.36239746 3.16121338 11.72479492 3.32242676 11.06787109 3.48852539 C5.45243864 4.90344248 0.38813229 5.14577044 -5.375 4.9375 C-11.99871997 4.79724363 -17.65366229 5.19315509 -23.96875 7.44140625 C-26 8 -26 8 -29 7 C-23.62819824 4.37124595 -18.95507399 3.3916035 -13 3 C-13 2.34 -13 1.68 -13 1 C-8.17069625 -1.00239424 -5.09872162 -0.83433626 0 0 Z " fill="#2691B8" transform="translate(221,33)"/>
<path d="M0 0 C3.77159691 1.25719897 4.83312718 2.7123309 7 6 C7.125 8.625 7.125 8.625 7 11 C7.99 12.485 7.99 12.485 9 14 C9.125 17.1875 9.125 17.1875 9 20 C3.375 21.125 3.375 21.125 0 20 C0.01160156 19.18015625 0.02320313 18.3603125 0.03515625 17.515625 C0.04869141 15.89914063 0.04869141 15.89914063 0.0625 14.25 C0.07410156 13.18265625 0.08570313 12.1153125 0.09765625 11.015625 C0.01456565 8.44978721 -0.3434391 6.45116071 -1 4 C-0.5625 1.75 -0.5625 1.75 0 0 Z " fill="#555BDE" transform="translate(288,60)"/>
<path d="M0 0 C2.59515537 0.35069667 4.52570246 0.66623506 6.6875 2.1875 C10.49421669 7.44439448 10.87287406 13.75296017 10 20 C8.87515847 23.40689413 7.5643506 26.68307738 6.1796875 29.9921875 C4.83369906 33.42401233 4.25494208 36.3458302 4 40 C9.65394631 40.34615998 13.03006806 39.43425238 18 37 C16.125 41.875 16.125 41.875 15 43 C12.98405418 43.23427778 10.961526 43.41336124 8.9375 43.5625 C7.83277344 43.64628906 6.72804687 43.73007813 5.58984375 43.81640625 C4.73519531 43.87699219 3.88054687 43.93757813 3 44 C0.88799528 40.13925537 0.53310496 37.43550292 1 33 C2.875 30.375 2.875 30.375 5 28 C7.02411831 23.97306989 7.29790914 20.54189513 7.3125 16.0625 C7.32925781 14.87785156 7.34601563 13.69320312 7.36328125 12.47265625 C6.86340644 7.69428306 5.48705581 4.27461926 1.8125 1.125 C1.214375 0.75375 0.61625 0.3825 0 0 Z " fill="#4177B1" transform="translate(223,50)"/>
<path d="M0 0 C0 0.33 0 0.66 0 1 C-1.134375 1.02578125 -2.26875 1.0515625 -3.4375 1.078125 C-12.83734304 1.09577301 -12.83734304 1.09577301 -21.5625 4.0625 C-25.85003873 6.47911274 -28.17778452 6.34444396 -33 6 C-33 6.66 -33 7.32 -33 8 C-33.66386719 8.23074219 -34.32773438 8.46148437 -35.01171875 8.69921875 C-40.50931897 10.72971927 -44.0189988 12.57666534 -48 17 C-51.125 19.375 -51.125 19.375 -54 21 C-54.99 20.67 -55.98 20.34 -57 20 C-39.49559335 4.83489194 -23.06575008 -0.88525267 0 0 Z " fill="#C2EFF9" transform="translate(225,37)"/>
<path d="M0 0 C0.99 0 1.98 0 3 0 C3.01417969 0.6290625 3.02835938 1.258125 3.04296875 1.90625 C3.41721848 8.62251543 5.10062109 12.6082662 9 18 C9.53625 18.928125 10.0725 19.85625 10.625 20.8125 C13.61600139 25.5709113 16.78644663 26.87595974 22 29 C22.33 29.33 22.66 29.66 23 30 C25.69235776 30.23678716 28.36498156 30.42198025 31.0625 30.5625 C31.82111328 30.60568359 32.57972656 30.64886719 33.36132812 30.69335938 C35.24065438 30.79973633 37.12030244 30.90039934 39 31 C34.67746159 33.88169227 31.07383137 33.56141979 26 33 C17.93937578 31.05927515 11.34626535 27.84568479 6.5703125 20.9296875 C2.90675087 14.70813609 -0.71525495 7.3909678 0 0 Z " fill="#507EB9" transform="translate(166,136)"/>
<path d="M0 0 C5.5446439 0.51578083 9.69811655 1.95029225 14.625 4.5 C15.66116455 5.02750854 15.66116455 5.02750854 16.71826172 5.56567383 C25.89136776 10.3566356 34.11243286 16.31780291 42 23 C41.505 24.485 41.505 24.485 41 26 C41 25.34 41 24.68 41 24 C40.443125 23.731875 39.88625 23.46375 39.3125 23.1875 C35.59606095 21.27905832 32.57500283 19.63889203 29.75 16.5 C26.58195781 13.61996164 24.08609248 12.91315947 20.0546875 11.75 C18 11 18 11 16.0625 8.9375 C13.16737065 6.21783304 10.29764741 6.11355277 6.4375 5.58984375 C3.64679619 4.91452921 2.09536893 3.94500681 0 2 C0 1.34 0 0.68 0 0 Z " fill="#3698BC" transform="translate(228,8)"/>
<path d="M0 0 C0.66 0 1.32 0 2 0 C2 0.66 2 1.32 2 2 C2.99 2 3.98 2 5 2 C5.95744681 20.34042553 5.95744681 20.34042553 0 29 C-0.66 29 -1.32 29 -2 29 C-2 29.99 -2 30.98 -2 32 C-2.66 32 -3.32 32 -4 32 C-4 32.66 -4 33.32 -4 34 C-4.66 34 -5.32 34 -6 34 C-5.00718233 32.00100837 -4.0052131 30.00989505 -2.96484375 28.03515625 C-2.62582031 27.38417969 -2.28679687 26.73320313 -1.9375 26.0625 C-1.42509766 25.08990234 -1.42509766 25.08990234 -0.90234375 24.09765625 C2.24269089 16.78647183 1.64916651 7.6273951 0 0 Z " fill="#4A75C6" transform="translate(249,52)"/>
<path d="M0 0 C0.33 0.99 0.66 1.98 1 3 C-4.26272519 11.97433138 -13.91403438 24.77103978 -24 28 C-21.67618214 24.83960771 -19.37693451 22.50257322 -16.25 20.1875 C-14.08758147 18.42160171 -13.12468413 17.59956803 -12.55078125 14.83984375 C-12.52148869 12.38294394 -12.52148869 12.38294394 -13 9 C-10.69 8.34 -8.38 7.68 -6 7 C-5.67 5.35 -5.34 3.7 -5 2 C-4.34 2.33 -3.68 2.66 -3 3 C-3.33 3.66 -3.66 4.32 -4 5 C-2.29159719 3.36587557 -1.06546953 2.13093906 0 0 Z " fill="#6526BF" transform="translate(285,167)"/>
<path d="M0 0 C0.99 0.33 1.98 0.66 3 1 C4.87957041 5.24782912 5.27159792 9.01384326 5.25 13.625 C5.25773437 15.28402344 5.25773437 15.28402344 5.265625 16.9765625 C5.00555031 19.93682437 4.65386529 21.56330514 3 24 C2.01 24.66 1.02 25.32 0 26 C-0.10832169 23.91781638 -0.18573541 21.83400871 -0.25 19.75 C-0.29640625 18.58984375 -0.3428125 17.4296875 -0.390625 16.234375 C0.06964494 12.42333987 1.05148444 11.34488245 4 9 C3.01 9.33 2.02 9.66 1 10 C1 9.34 1 8.68 1 8 C0.34 8 -0.32 8 -1 8 C-0.67 5.36 -0.34 2.72 0 0 Z " fill="#6B3DE0" transform="translate(297,88)"/>
<path d="M0 0 C3.39540434 1.13180145 4.15357852 2.10357199 6.375 4.8125 C14.36143935 14.1438491 24.59281641 19.26297881 36.83203125 20.3359375 C40.55252527 20.60753838 44.27423689 20.81565235 48 21 C48 21.33 48 21.66 48 22 C39.23571452 23.06481973 31.21471688 23.67500492 23 20 C21.845 19.731875 20.69 19.46375 19.5 19.1875 C15.49133141 17.82741602 13.79906689 16.11007432 11 13 C10.01 12.34 9.02 11.68 8 11 C8 10.34 8 9.68 8 9 C7.34 9 6.68 9 6 9 C4.4921875 7.03125 4.4921875 7.03125 2.875 4.5 C2.33617187 3.6646875 1.79734375 2.829375 1.2421875 1.96875 C0.83226562 1.3190625 0.42234375 0.669375 0 0 Z " fill="#506EB1" transform="translate(149,162)"/>
<path d="M0 0 C2.31 0 4.62 0 7 0 C5.66117477 3.77548716 3.98364112 6.61387689 1.5 9.75 C0.58734375 10.91789063 0.58734375 10.91789063 -0.34375 12.109375 C-2 14 -2 14 -4 15 C-4 14.34 -4 13.68 -4 13 C-4.66 13 -5.32 13 -6 13 C-6.66 11.35 -7.32 9.7 -8 8 C-7.236875 7.979375 -6.47375 7.95875 -5.6875 7.9375 C-2.58610882 7.20339051 -2.58610882 7.20339051 -1.1875 3.4375 C-0.795625 2.303125 -0.40375 1.16875 0 0 Z " fill="#535DE2" transform="translate(232,136)"/>
<path d="M0 0 C0.75539062 0.144375 1.51078125 0.28875 2.2890625 0.4375 C16.90652322 2.90227089 32.3031048 2.96896204 47 1 C45.96118164 2.46362305 45.96118164 2.46362305 44 4 C41.465865 4.35607884 39.16278872 4.53584065 36.62109375 4.58203125 C35.53103783 4.61607307 35.53103783 4.61607307 34.41896057 4.65080261 C32.87837177 4.69538908 31.33755932 4.73274731 29.79663086 4.76342773 C27.46955137 4.8118333 25.14456545 4.88745226 22.81835938 4.96679688 C15.01385407 5.18976477 7.58304695 5.13886841 0 3 C0 2.01 0 1.02 0 0 Z " fill="#F4F1FE" transform="translate(170,215)"/>
<path d="M0 0 C0.5625 1.9375 0.5625 1.9375 1 4 C0 5 0 5 -1.84765625 5.09765625 C-3.8984375 5.06510417 -5.94921875 5.03255208 -8 5 C-8 5.66 -8 6.32 -8 7 C-21.6332574 7.3690205 -21.6332574 7.3690205 -28 5 C-28 4.67 -28 4.34 -28 4 C-21.73 3.67 -15.46 3.34 -9 3 C-8.67 2.34 -8.34 1.68 -8 1 C-5.2303041 0.27113266 -2.87137415 0 0 0 Z " fill="#FBFCF0" transform="translate(208,174)"/>
<path d="M0 0 C0.33 0 0.66 0 1 0 C1.7725043 23.72182422 -1.93203506 42.4368229 -14 63 C-15 61 -15 61 -14.44140625 59.0546875 C-14.15136719 58.33539063 -13.86132812 57.61609375 -13.5625 56.875 C-13.27503906 56.15054688 -12.98757813 55.42609375 -12.69140625 54.6796875 C-12.34916016 53.84824219 -12.34916016 53.84824219 -12 53 C-11.34 53 -10.68 53 -10 53 C-9.7525 52.071875 -9.505 51.14375 -9.25 50.1875 C-8.36458589 47.04145412 -7.24999311 44.04380419 -6.0625 41 C-1.18123268 27.57651487 -0.41592722 14.12718331 0 0 Z " fill="#612BB6" transform="translate(302,104)"/>
<path d="M0 0 C0.66 0.33 1.32 0.66 2 1 C1.71125 1.72316406 1.4225 2.44632812 1.125 3.19140625 C-3.58878323 17.31638863 -2.35787102 32.29838302 -2 47 C-6.23610577 42.76389423 -5.39095419 35.3186795 -5.6875 29.625 C-5.77741211 28.24441406 -5.77741211 28.24441406 -5.86914062 26.8359375 C-6.15114175 21.42769678 -5.84091808 17.17329183 -4 12 C-3.64679688 10.90816406 -3.29359375 9.81632812 -2.9296875 8.69140625 C-2.40761719 7.14259766 -2.40761719 7.14259766 -1.875 5.5625 C-1.52179688 4.51191406 -1.16859375 3.46132812 -0.8046875 2.37890625 C-0.53914062 1.59386719 -0.27359375 0.80882813 0 0 Z " fill="#CCEFFA" transform="translate(168,93)"/>
<path d="M0 0 C0.33 0 0.66 0 1 0 C1.02505615 0.6798999 1.0501123 1.3597998 1.07592773 2.06030273 C1.19305822 5.18617279 1.31524656 8.31182628 1.4375 11.4375 C1.47681641 12.50677734 1.51613281 13.57605469 1.55664062 14.67773438 C1.80126504 20.83097936 2.23534 26.88914575 3 33 C-1.875 32.125 -1.875 32.125 -3 31 C-3.17765417 25.84802914 -2.84634488 21.07806929 -2 16 C-1.34 16 -0.68 16 0 16 C0 10.72 0 5.44 0 0 Z " fill="#2394D4" transform="translate(139,112)"/>
<path d="M0 0 C1.57326451 3.14652902 2.99000172 6.29741237 4.36010742 9.53393555 C8.29868181 18.78877495 12.62535656 27.15428499 19 35 C19 35.66 19 36.32 19 37 C18.01 37 17.02 37 16 37 C13.34245725 33.53714127 11.45076705 30.11050664 10 26 C9.01 26 8.02 26 7 26 C5.07528683 20.66164461 3.60108576 15.65020618 3 10 C2.34 10 1.68 10 1 10 C0.67 6.7 0.34 3.4 0 0 Z " fill="#D5F4FA" transform="translate(92,140)"/>
<path d="M0 0 C0.66 0.66 1.32 1.32 2 2 C1.79296875 4.171875 1.79296875 4.171875 1.1875 6.75 C0.88779297 8.08417969 0.88779297 8.08417969 0.58203125 9.4453125 C0.38996094 10.28835937 0.19789063 11.13140625 0 12 C-0.34450114 13.99810662 -0.68377223 15.99722415 -1 18 C-1.66 18 -2.32 18 -3 18 C-4.32 21.63 -5.64 25.26 -7 29 C-8.16400683 25.5079795 -7.49502309 23.7144836 -6.5390625 20.25390625 C-5.9827767 17.92798663 -5.71457675 15.69271246 -5.5 13.3125 C-4.962806 7.92203608 -3.43841045 4.21986737 0 0 Z " fill="#2694D3" transform="translate(175,86)"/>
<path d="M0 0 C4.29 0 8.58 0 13 0 C13 0.66 13 1.32 13 2 C20.92 2 28.84 2 37 2 C37 2.33 37 2.66 37 3 C35.87525269 3.029729 35.87525269 3.029729 34.7277832 3.06005859 C31.25573174 3.15664529 27.78417586 3.26577056 24.3125 3.375 C22.54422852 3.42140625 22.54422852 3.42140625 20.74023438 3.46875 C12.69651327 3.7332011 4.92360045 4.59330677 -3 6 C-3 5.01 -3 4.02 -3 3 C-2.01 2.34 -1.02 1.68 0 1 C0 0.67 0 0.34 0 0 Z " fill="#D4F3F7" transform="translate(171,0)"/>
<path d="M0 0 C2.58361518 -0.05407567 5.16609255 -0.093707 7.75 -0.125 C8.84441406 -0.15013672 8.84441406 -0.15013672 9.9609375 -0.17578125 C13.8044624 -0.21072239 16.74606772 -0.17499684 20 2 C20 2.33 20 2.66 20 3 C16.3535194 3.8410478 13.00049093 4.11764968 9.26171875 4.09765625 C8.19501953 4.09443359 7.12832031 4.09121094 6.02929688 4.08789062 C4.37510742 4.07532227 4.37510742 4.07532227 2.6875 4.0625 C1.56537109 4.05798828 0.44324219 4.05347656 -0.71289062 4.04882812 C-3.4753151 4.03707313 -6.23762998 4.02064077 -9 4 C-9 3.67 -9 3.34 -9 3 C-6.36 3 -3.72 3 -1 3 C-0.67 2.01 -0.34 1.02 0 0 Z " fill="#6448DF" transform="translate(193,212)"/>
<path d="M0 0 C-0.66 1.32 -1.32 2.64 -2 4 C-5.66666667 4 -9.33333333 4 -13 4 C-13 3.34 -13 2.68 -13 2 C-16.96 2.66 -20.92 3.32 -25 4 C-24.34 2.68 -23.68 1.36 -23 0 C-16.51785254 -1.25460919 -6.02958157 -3.01479079 0 0 Z " fill="#10ACD3" transform="translate(214,6)"/>
<path d="M0 0 C2.475 0.99 2.475 0.99 5 2 C4.40138258 4.35171131 3.73075648 6.6859378 3 9 C2.01 9.495 2.01 9.495 1 10 C0.67 9.67 0.34 9.34 0 9 C-0.928125 10.485 -0.928125 10.485 -1.875 12 C-2.57625 12.99 -3.2775 13.98 -4 15 C-4.66 15 -5.32 15 -6 15 C-6.33 15.99 -6.66 16.98 -7 18 C-7.99 18 -8.98 18 -10 18 C-8.14945936 14.14308372 -6.00656926 10.45576705 -3.875 6.75 C-3.50246094 6.1003125 -3.12992187 5.450625 -2.74609375 4.78125 C-1.83170879 3.18693776 -0.91598744 1.5933921 0 0 Z " fill="#FBF9FA" transform="translate(292,158)"/>
<path d="M0 0 C0.33 0 0.66 0 1 0 C0.93941406 0.98613281 0.87882812 1.97226563 0.81640625 2.98828125 C-0.01462236 16.98367255 -0.51486948 30.98893138 -1 45 C-1.33 45 -1.66 45 -2 45 C-4.17829426 29.82220773 -3.5403688 14.89905205 0 0 Z " fill="#47B4BE" transform="translate(91,83)"/>
<path d="M0 0 C6.36067423 -0.49887641 9.00846234 -0.13932391 14 4 C16.58890569 4.67608365 19.14652769 5.11898008 21.79296875 5.5078125 C24 6 24 6 26 8 C24.741875 8.020625 23.48375 8.04125 22.1875 8.0625 C21.47980469 8.07410156 20.77210938 8.08570313 20.04296875 8.09765625 C18 8 18 8 15 7 C14.175 7.185625 13.35 7.37125 12.5 7.5625 C10 8 10 8 7 6 C6.67 6.66 6.34 7.32 6 8 C5.67 6.02 5.34 4.04 5 2 C3.35 1.67 1.7 1.34 0 1 C0 0.67 0 0.34 0 0 Z " fill="#1E9AD3" transform="translate(218,8)"/>
<path d="M0 0 C6.14293342 1.14529267 8.67341769 2.3318454 13 7 C16.28321781 8.87612446 19.30327435 10.23516021 23 11 C23.99 11.33 24.98 11.66 26 12 C26.6875 14.0625 26.6875 14.0625 27 16 C16.92411262 14.39608323 9.70028336 9.36975821 2 3 C1.34 2.01 0.68 1.02 0 0 Z " fill="#4A71C8" transform="translate(126,191)"/>
<path d="M0 0 C0.33 0 0.66 0 1 0 C1.08226668 3.04386724 0.97608217 5.07175348 0 8 C-1.71095874 8.72386716 -3.42402884 9.44361096 -5.15234375 10.125 C-8.1069077 11.52420153 -9.92784149 13.51340979 -12 16 C-12.2475 16.886875 -12.495 17.77375 -12.75 18.6875 C-14 21 -14 21 -16.1171875 21.7578125 C-18.40703005 22.26428858 -20.67727422 22.67978883 -23 23 C-19.85720003 19.75244003 -16.58118624 16.7358164 -13.1875 13.75 C-8.9470944 9.97299202 -5.17052204 5.97737504 -1.49609375 1.65234375 C-1.00238281 1.10707031 -0.50867188 0.56179687 0 0 Z " fill="#F0DBFC" transform="translate(281,176)"/>
<path d="M0 0 C0.99 0.495 0.99 0.495 2 1 C2 1.99 2 2.98 2 4 C2.99 3.67 3.98 3.34 5 3 C6.82518575 5.33623775 8.01010373 7.08898065 7.9765625 10.11328125 C7.71735287 12.08537617 7.36455921 14.04463697 7 16 C5.35 16 3.7 16 2 16 C0.5192152 13.0384304 0.64685963 10.16493705 0.4375 6.875 C0.35371094 5.59367188 0.26992187 4.31234375 0.18359375 2.9921875 C0.12300781 2.00476563 0.06242188 1.01734375 0 0 Z " fill="#5C53DE" transform="translate(249,128)"/>
<path d="M0 0 C2.12177765 3.18266647 2.2303569 3.72116679 2.01171875 7.30859375 C1.96466797 8.13810547 1.91761719 8.96761719 1.86914062 9.82226562 C1.80919922 10.68529297 1.74925781 11.54832031 1.6875 12.4375 C1.63916016 13.29666016 1.59082031 14.15582031 1.54101562 15.04101562 C1.14890793 21.4388234 1.14890793 21.4388234 0.48193359 23.95239258 C-0.09950403 26.42276611 -0.11240752 28.66590724 -0.09765625 31.203125 C-0.09443359 32.1828125 -0.09121094 33.1625 -0.08789062 34.171875 C-0.07951172 35.18765625 -0.07113281 36.2034375 -0.0625 37.25 C-0.05798828 38.28125 -0.05347656 39.3125 -0.04882812 40.375 C-0.03706088 42.91672573 -0.02062011 45.45833319 0 48 C-2.62246777 45.37753223 -2.25737953 44.22061996 -2.265625 40.56640625 C-2.27142578 38.89251831 -2.27142578 38.89251831 -2.27734375 37.18481445 C-2.26832031 35.98945068 -2.25929688 34.79408691 -2.25 33.5625 C-2.24613281 32.35231201 -2.24226563 31.14212402 -2.23828125 29.89526367 C-2.1424658 19.83264485 -1.3593321 9.96438974 0 0 Z " fill="#0EB4BF" transform="translate(92,82)"/>
<path d="M0 0 C-2.72475403 2.72475403 -5.99255867 3.75005682 -9.5 5.1875 C-15.51190322 7.7202801 -20.77264707 10.537844 -25.984375 14.51953125 C-27.92080021 15.94182806 -29.82308283 16.99489185 -32 18 C-32 16.68 -32 15.36 -32 14 C-26.375 11 -26.375 11 -23 11 C-23 10.34 -23 9.68 -23 9 C-20 7 -20 7 -17 7 C-16.67 6.01 -16.34 5.02 -16 4 C-13.36 3.67 -10.72 3.34 -8 3 C-8 2.34 -8 1.68 -8 1 C-5.29120665 -0.35439668 -2.99066732 -0.06501451 0 0 Z " fill="#D4F9FB" transform="translate(160,8)"/>
<path d="M0 0 C9.43731605 4.07140847 15.34599404 15.2928574 20 24 C20.71642585 25.98271996 21.40005764 27.97898204 22 30 C17.31024303 26.53365789 15.69852971 24.6617657 14 19 C12.75459546 17.09807229 11.42052738 15.30842242 10.0234375 13.515625 C9 12 9 12 9 10 C8.01 9.67 7.02 9.34 6 9 C2 4.54285714 2 4.54285714 2 2 C1.34 2 0.68 2 0 2 C0 1.34 0 0.68 0 0 Z " fill="#4F68B4" transform="translate(271,34)"/>
<path d="M0 0 C-0.3125 1.9375 -0.3125 1.9375 -1 4 C-4 5 -4 5 -6.25 4.5 C-10.30819321 3.76214669 -14.28591734 4.14295867 -18 6 C-19.53668865 6.22467831 -21.07968054 6.40796805 -22.625 6.5625 C-23.85089844 6.68818359 -23.85089844 6.68818359 -25.1015625 6.81640625 C-26.04128906 6.90728516 -26.04128906 6.90728516 -27 7 C-27.66 6.01 -28.32 5.02 -29 4 C-5.76595745 0 -5.76595745 0 0 0 Z " fill="#585CC7" transform="translate(217,180)"/>
<path d="M0 0 C1.48828125 1.30078125 1.48828125 1.30078125 3 3 C3.1875 6.1875 3.1875 6.1875 3 9 C2.071875 9.226875 1.14375 9.45375 0.1875 9.6875 C-3.62605395 11.25778692 -4.07065233 12.47684339 -6 16 C-7.62332967 17.38576923 -9.28724465 18.72641268 -11 20 C-11.66 20.66 -12.32 21.32 -13 22 C-13.33 21.34 -13.66 20.68 -14 20 C-13.06553465 17.96855359 -12.06775224 15.96466413 -11 14 C-10.01 14.33 -9.02 14.66 -8 15 C-8 14.34 -8 13.68 -8 13 C-7.34 13 -6.68 13 -6 13 C-6 12.01 -6 11.02 -6 10 C-5.34 9.67 -4.68 9.34 -4 9 C-2.87293294 6.88984046 -2.87293294 6.88984046 -1.875 4.4375 C-1.52179688 3.61121094 -1.16859375 2.78492187 -0.8046875 1.93359375 C-0.53914062 1.29550781 -0.27359375 0.65742187 0 0 Z " fill="#4771CB" transform="translate(253,71)"/>
<path d="M0 0 C4.35834901 0.51274694 7.95893419 1.34212685 12 3 C13.9924325 3.37593066 15.9918674 3.71979545 18 4 C15.65704057 5.56197295 13.30985802 7.10846459 10.9375 8.625 C10.24527344 9.07101563 9.55304688 9.51703125 8.83984375 9.9765625 C7 11 7 11 5 11 C5.33 9.68 5.66 8.36 6 7 C5.01 6.67 4.02 6.34 3 6 C1.3125 2.9375 1.3125 2.9375 0 0 Z " fill="#EEF8F8" transform="translate(190,45)"/>
<path d="M0 0 C2.69725519 1.88807863 4.13216429 3.19824644 6 6 C6.5968343 10.20884445 6.66857733 13.85784706 4.5 17.5625 C4.005 18.036875 3.51 18.51125 3 19 C0.64891442 15.29178372 0.56844942 11.51394762 0.375 7.25 C0.33632812 6.55261719 0.29765625 5.85523438 0.2578125 5.13671875 C0.16401376 3.42489182 0.08093826 1.71248318 0 0 Z " fill="#2B85D6" transform="translate(225,53)"/>
<path d="M0 0 C0.680625 0.08765625 1.36125 0.1753125 2.0625 0.265625 C4 0.75 4 0.75 7 2.75 C8.57072364 3.12071275 10.15715504 3.42779702 11.75 3.6875 C16.23457341 4.51119716 19.87010467 5.85024815 24 7.75 C25.32276056 8.12308631 26.65232077 8.48046415 28 8.75 C27.67 9.74 27.34 10.73 27 11.75 C26.28070313 11.45996094 25.56140625 11.16992188 24.8203125 10.87109375 C14.50603916 6.77109867 4.08687838 2.98187538 -7 1.75 C-3.83050223 -0.36299851 -3.49404825 -0.50293119 0 0 Z " fill="#C5F2F9" transform="translate(218,2.25)"/>
<path d="M0 0 C1.546875 0.0309375 1.546875 0.0309375 3.125 0.0625 C4.115 0.0625 5.105 0.0625 6.125 0.0625 C9.125 0.0625 12.125 0.0625 15.125 0.0625 C8.26597654 4.6351823 0.30444327 6.69168794 -7.875 6.0625 C-7.875 5.7325 -7.875 5.4025 -7.875 5.0625 C-6.225 4.7325 -4.575 4.4025 -2.875 4.0625 C-3.205 3.0725 -3.535 2.0825 -3.875 1.0625 C-2.875 0.0625 -2.875 0.0625 0 0 Z " fill="#6E35E2" transform="translate(220.875,207.9375)"/>
<path d="M0 0 C0.33 0.99 0.66 1.98 1 3 C-3.40502967 6.2407812 -7.04194254 6.52264789 -12.3125 6.6875 C-13.05306641 6.72166016 -13.79363281 6.75582031 -14.55664062 6.79101562 C-16.37058164 6.87293554 -18.18526353 6.93815822 -20 7 C-20 6.34 -20 5.68 -20 5 C-18.948125 4.896875 -17.89625 4.79375 -16.8125 4.6875 C-13.08044726 4.25373859 -13.08044726 4.25373859 -10.5625 2.5 C-7.03400391 0.43453887 -4.05744024 0.34385087 0 0 Z " fill="#0CB5CF" transform="translate(166,10)"/>
<path d="M0 0 C3.96 1.98 7.92 3.96 12 6 C11.67 6.66 11.34 7.32 11 8 C6.28446112 8.23002629 2.42156704 7.70060271 -2 6 C-3.4375 3.875 -3.4375 3.875 -4 2 C-3.34 1.67 -2.68 1.34 -2 1 C-1.34 1.33 -0.68 1.66 0 2 C0 1.34 0 0.68 0 0 Z " fill="#EDF5F6" transform="translate(136,200)"/>
<path d="M0 0 C2.97 0 5.94 0 9 0 C8.814375 0.7425 8.62875 1.485 8.4375 2.25 C8.00158134 4.99006016 8.28005547 6.39020109 9 9 C8.67 9.66 8.34 10.32 8 11 C7.01 11 6.02 11 5 11 C3.4375 8.625 3.4375 8.625 2 6 C1.34 5.34 0.68 4.68 0 4 C0 2.68 0 1.36 0 0 Z " fill="#19A2D1" transform="translate(96,144)"/>
<path d="M0 0 C0.99 0 1.98 0 3 0 C2.82984375 0.55945313 2.6596875 1.11890625 2.484375 1.6953125 C1.64837365 4.46123187 0.82359423 7.23036034 0 10 C-0.33644531 11.12019531 -0.67289062 12.24039063 -1.01953125 13.39453125 C-3.1262046 20.5509085 -4.85632479 27.62630458 -6 35 C-6.33 35 -6.66 35 -7 35 C-7.41070415 26.16986083 -5.9737369 17.30897076 -3 9 C-2.34 9 -1.68 9 -1 9 C-0.67 6.03 -0.34 3.06 0 0 Z " fill="#CBFAFC" transform="translate(95,64)"/>
<path d="M0 0 C4.10778798 7.85043925 6.56945761 16.51151484 9 25 C8.34 25.66 7.68 26.32 7 27 C6.01811439 24.41767086 5.03940411 21.83421317 4.0625 19.25 C3.78470703 18.52039063 3.50691406 17.79078125 3.22070312 17.0390625 C2.95322266 16.33007812 2.68574219 15.62109375 2.41015625 14.890625 C2.04096069 13.91657715 2.04096069 13.91657715 1.66430664 12.92285156 C0.13533297 8.49720046 -0.0904888 4.7054174 0 0 Z " fill="#DBF4FC" transform="translate(142,133)"/>
<path d="M0 0 C1.32 0 2.64 0 4 0 C4 0.66 4 1.32 4 2 C4.66 2.33 5.32 2.66 6 3 C5.42507812 3.41121094 4.85015625 3.82242188 4.2578125 4.24609375 C1.94018382 6.0464662 -0.06848667 7.97079918 -2.125 10.0625 C-3.14980469 11.10083984 -3.14980469 11.10083984 -4.1953125 12.16015625 C-4.79085937 12.76730469 -5.38640625 13.37445313 -6 14 C-6.66 14.66 -7.32 15.32 -8 16 C-8 13.36 -8 10.72 -8 8 C-6.02 7.67 -4.04 7.34 -2 7 C-1.34 4.69 -0.68 2.38 0 0 Z " fill="#1DA9CC" transform="translate(168,48)"/>
<path d="M0 0 C4.79095495 0.5842628 8.58388318 2.10737851 13 4 C14.98821313 4.39764263 16.98732362 4.75455166 19 5 C19 5.66 19 6.32 19 7 C22.63 7.66 26.26 8.32 30 9 C30 9.33 30 9.66 30 10 C19.23401522 9.72712942 9.480677 5.91271445 0 1 C0 0.67 0 0.34 0 0 Z " fill="#5565B1" transform="translate(146,205)"/>
<path d="M0 0 C0.33 0 0.66 0 1 0 C1.08636719 0.77601563 1.17273438 1.55203125 1.26171875 2.3515625 C2.27566551 10.14685964 4.18179843 16.85014254 7.07421875 24.1015625 C8 27 8 27 7 30 C6.34 28.02 5.68 26.04 5 24 C4.34 24 3.68 24 3 24 C0.26022667 15.86222087 -0.36741339 8.55937129 0 0 Z " fill="#4487B7" transform="translate(141,131)"/>
<path d="M0 0 C0.66 0 1.32 0 2 0 C2.33 0.66 2.66 1.32 3 2 C5.31808364 3.03485877 7.65175298 4.0355414 10 5 C10.33 5.33 10.66 5.66 11 6 C13.69235776 6.23678716 16.36498156 6.42198025 19.0625 6.5625 C20.20041992 6.62727539 20.20041992 6.62727539 21.36132812 6.69335938 C23.24065438 6.79973633 25.12030244 6.90039934 27 7 C22.6858975 9.87606833 19.06553182 9.57832069 14 9 C3.31868775 6.17300341 3.31868775 6.17300341 0 2 C0 1.34 0 0.68 0 0 Z " fill="#4F69B2" transform="translate(178,160)"/>
<path d="M0 0 C0.99 0.495 0.99 0.495 2 1 C5.12628657 11.8841088 4.20632252 23.80938372 4 35 C3.67 35 3.34 35 3 35 C2.94465088 34.25314941 2.88930176 33.50629883 2.83227539 32.73681641 C2.58001878 29.36587008 2.3213415 25.99544681 2.0625 22.625 C1.97548828 21.449375 1.88847656 20.27375 1.79882812 19.0625 C1.66831055 17.38027344 1.66831055 17.38027344 1.53515625 15.6640625 C1.456604 14.62717285 1.37805176 13.5902832 1.29711914 12.52197266 C1.14567233 10.00843528 1.14567233 10.00843528 0 8 C-0.13415472 5.3276379 -0.04318541 2.67749512 0 0 Z " fill="#6B4EBD" transform="translate(300,85)"/>
<path d="M0 0 C0.66 0.33 1.32 0.66 2 1 C2 5.62 2 10.24 2 15 C1.67 14.34 1.34 13.68 1 13 C-1.52733235 12.34444881 -1.52733235 12.34444881 -4 12 C-3.25 7.25 -3.25 7.25 -1 5 C-0.35232207 2.42938689 -0.35232207 2.42938689 0 0 Z " fill="#7137E4" transform="translate(300,107)"/>
<path d="M0 0 C1.76946979 2.65420469 2.8093132 4.86290317 3.9375 7.8125 C5.44379407 11.6656792 7.07409246 15.34077568 9 19 C7.68 18.67 6.36 18.34 5 18 C4.67 16.68 4.34 15.36 4 14 C3.34 14 2.68 14 2 14 C0.1964034 10.03208747 -0.59077522 6.33778271 -1 2 C-0.67 1.34 -0.34 0.68 0 0 Z " fill="#DDEFFA" transform="translate(166,141)"/>
<path d="M0 0 C0.99 0.33 1.98 0.66 3 1 C1.989375 1.804375 0.97875 2.60875 -0.0625 3.4375 C-4.3827045 7.1140822 -7.66464187 11.43796 -11 16 C-12 13 -12 13 -11.14453125 10.80859375 C-10.48517578 9.63490234 -10.48517578 9.63490234 -9.8125 8.4375 C-9.38582031 7.65246094 -8.95914063 6.86742187 -8.51953125 6.05859375 C-6.82843688 3.76757388 -5.65943389 2.95533062 -3 2 C-2.01 2 -1.02 2 0 2 C0 1.34 0 0.68 0 0 Z " fill="#DCF6FA" transform="translate(192,56)"/>
<path d="M0 0 C2.03506412 1.26076682 4.04385342 2.55005664 6.03515625 3.87890625 C8.02910935 5.01660911 9.7583525 5.55566453 12 6 C12 7.65 12 9.3 12 11 C11.45472656 10.61328125 10.90945312 10.2265625 10.34765625 9.828125 C5.67279545 6.59967413 1.12185574 3.98021712 -4.15234375 1.859375 C-6 1 -6 1 -8 -1 C-4.21472458 -2.26175847 -3.53737051 -1.72938114 0 0 Z " fill="#3F8AB8" transform="translate(235,38)"/>
<path d="M0 0 C0.66 0.33 1.32 0.66 2 1 C1.67 1.99 1.34 2.98 1 4 C-0.1865126 8.08594833 -0.14865179 11.76342394 0 16 C-2.31 15.67 -4.62 15.34 -7 15 C-6.52691406 14.44699219 -6.05382812 13.89398438 -5.56640625 13.32421875 C-3.81630211 10.72743081 -3.40514847 8.88626716 -2.9375 5.8125 C-2.52734375 3.14453125 -2.52734375 3.14453125 -2 1 C-1.34 0.67 -0.68 0.34 0 0 Z " fill="#614DE3" transform="translate(248,144)"/>
<path d="M0 0 C0.66 0 1.32 0 2 0 C1.835 0.7425 1.67 1.485 1.5 2.25 C0.64935586 6.92854277 1.26328655 11.15288162 1.9765625 15.78125 C2.00401651 18.38023001 1.31549695 19.79076848 0 22 C-2.38456876 14.56575623 -2.49017836 7.47053509 0 0 Z " fill="#14ACCB" transform="translate(94,120)"/>
<path d="M0 0 C1.32 0 2.64 0 4 0 C3.125 4.875 3.125 4.875 2 6 C1.602507 8.34723966 1.25631277 10.70328548 0.9375 13.0625 C0.67259766 14.99802734 0.67259766 14.99802734 0.40234375 16.97265625 C0.26957031 17.97167969 0.13679687 18.97070312 0 20 C-2.78490859 16.08049902 -1.81114407 12.21387984 -1.125 7.75 C-1.02058594 7.00492187 -0.91617188 6.25984375 -0.80859375 5.4921875 C-0.55018787 3.65985489 -0.27657918 1.82967766 0 0 Z " fill="#13A3CC" transform="translate(139,96)"/>
<path d="M0 0 C0.66 0.33 1.32 0.66 2 1 C0 4 0 4 -2.20703125 4.625 C-3.06683594 4.74875 -3.92664063 4.8725 -4.8125 5 C-8.05416373 5.54337343 -9.86878104 5.9176067 -12.6875 7.6875 C-16.00337527 9.56948326 -18.37824216 8.78116346 -22 8 C-17.40753002 5.42821681 -12.35931822 4.36862867 -7.3125 3 C-4.09823139 2.1382206 -4.09823139 2.1382206 -1.6875 0.8125 C-1.130625 0.544375 -0.57375 0.27625 0 0 Z " fill="#E6CFF9" transform="translate(240,208)"/>
<path d="M0 0 C0.66 0.33 1.32 0.66 2 1 C0.92598892 3.91517292 0.22189824 5.77810176 -2 8 C-5.125 7.625 -5.125 7.625 -8 7 C-8.33 7.66 -8.66 8.32 -9 9 C-9.99 9.33 -10.98 9.66 -12 10 C-12.66 9.34 -13.32 8.68 -14 8 C-11.7136988 6.63597957 -9.42178251 5.28365726 -7.125 3.9375 C-6.47402344 3.54755859 -5.82304687 3.15761719 -5.15234375 2.75585938 C-3.46934275 1.77555467 -1.73703801 0.88101568 0 0 Z " fill="#F0DFFA" transform="translate(256,199)"/>
<path d="M0 0 C-1.65 1.98 -3.3 3.96 -5 6 C-6.65 5.67 -8.3 5.34 -10 5 C-9.625 2.5625 -9.625 2.5625 -9 0 C-5.93109813 -1.53445094 -3.29905734 -0.54984289 0 0 Z " fill="#7D28ED" transform="translate(273,183)"/>
<path d="M0 0 C1.98 0 3.96 0 6 0 C6.05399736 1.45792884 6.09279177 2.91642712 6.125 4.375 C6.14820312 5.18710938 6.17140625 5.99921875 6.1953125 6.8359375 C6 9 6 9 4 11 C0.85041169 7.57653445 0.43820891 4.55737263 0 0 Z " fill="#239BDB" transform="translate(106,160)"/>
<path d="M0 0 C0.33 0 0.66 0 1 0 C1 1.98 1 3.96 1 6 C0.67 6 0.34 6 0 6 C0 4.02 0 2.04 0 0 Z M-4 6 C-3.01 6.33 -2.02 6.66 -1 7 C-1.45941998 11.93876484 -2.77812869 14.28996637 -6 18 C-6.70885894 19.31138904 -7.39456452 20.63777017 -8 22 C-9.35304209 17.94087374 -8.15216503 16.22850409 -6.5625 12.3125 C-6.08941406 11.13300781 -5.61632812 9.95351562 -5.12890625 8.73828125 C-4.75636719 7.83464844 -4.38382813 6.93101563 -4 6 Z " fill="#DAEFF8" transform="translate(236,64)"/>
<path d="M0 0 C4.3398513 1.50350654 7.90186195 3.80665245 11.625 6.4375 C12.19734375 6.83259766 12.7696875 7.22769531 13.359375 7.63476562 C16.13106882 9.5717284 18.72347825 11.48936786 21 14 C20.67 14.99 20.34 15.98 20 17 C20 16.34 20 15.68 20 15 C19.443125 14.731875 18.88625 14.46375 18.3125 14.1875 C14.58425263 12.27299459 11.53880903 10.5671674 8.625 7.5 C5.51450625 4.537625 2.99083485 3.48678161 -1 2 C-0.67 1.34 -0.34 0.68 0 0 Z " fill="#457EB1" transform="translate(249,17)"/>
<path d="M0 0 C1.13179687 0.15597656 2.26359375 0.31195313 3.4296875 0.47265625 C4.91141532 0.66959476 6.39318857 0.86619165 7.875 1.0625 C8.99455078 1.2181543 8.99455078 1.2181543 10.13671875 1.37695312 C14.17599834 2.06427502 14.17599834 2.06427502 18 1 C20.125 1.4375 20.125 1.4375 22 2 C22 2.66 22 3.32 22 4 C19.24921116 4.91692961 17.64051087 5.10886083 14.8125 5.0625 C12.9253125 5.0315625 12.9253125 5.0315625 11 5 C11 4.34 11 3.68 11 3 C10.37351563 2.95101562 9.74703125 2.90203125 9.1015625 2.8515625 C8.28429687 2.77679688 7.46703125 2.70203125 6.625 2.625 C5.40683594 2.52058594 5.40683594 2.52058594 4.1640625 2.4140625 C2 2 2 2 0 0 Z " fill="#4F64D7" transform="translate(154,207)"/>
<path d="M0 0 C-1.0828125 0.3403125 -1.0828125 0.3403125 -2.1875 0.6875 C-5.55855233 2.26065775 -7.40965057 4.34647131 -10 7 C-13.125 9.375 -13.125 9.375 -16 11 C-16.99 10.67 -17.98 10.34 -19 10 C-4.52427184 -2.26213592 -4.52427184 -2.26213592 0 0 Z " fill="#DAF9FC" transform="translate(187,47)"/>
<path d="M0 0 C0.66 0 1.32 0 2 0 C3.36363208 1.97946592 4.69418644 3.9819245 6 6 C6.5775 6.5775 7.155 7.155 7.75 7.75 C9 9 9 9 9 11 C9.66 11 10.32 11 11 11 C11 12.32 11 13.64 11 15 C6.95007711 13.49471893 5.4746607 11.11269686 3.25 7.5 C2.63640625 6.5203125 2.0228125 5.540625 1.390625 4.53125 C0 2 0 2 0 0 Z " fill="#3890B8" transform="translate(101,160)"/>
<path d="M0 0 C0.66 0 1.32 0 2 0 C-0.06842578 9.1570933 -4.44833986 16.8913418 -9 25 C-10 23 -10 23 -9.44140625 21.0546875 C-9.15136719 20.33539063 -8.86132812 19.61609375 -8.5625 18.875 C-8.27503906 18.15054688 -7.98757813 17.42609375 -7.69140625 16.6796875 C-7.46324219 16.12539062 -7.23507812 15.57109375 -7 15 C-6.34 15 -5.68 15 -5 15 C-4.731875 14.01 -4.46375 13.02 -4.1875 12 C-3.023161 7.90387216 -1.53288422 3.97156367 0 0 Z " fill="#5D20B3" transform="translate(297,142)"/>
<path d="M0 0 C2 2 2 2 2 5 C3.32 5 4.64 5 6 5 C7.703125 6.96875 7.703125 6.96875 9.25 9.5 C9.77078125 10.3353125 10.2915625 11.170625 10.828125 12.03125 C11.21484375 12.6809375 11.6015625 13.330625 12 14 C11.67 14.66 11.34 15.32 11 16 C9.36575817 14.44716875 7.74293752 12.8823119 6.125 11.3125 C5.22007812 10.44238281 4.31515625 9.57226562 3.3828125 8.67578125 C1.10736018 6.12056021 0.01295648 4.23098186 -1 1 C-0.67 0.67 -0.34 0.34 0 0 Z " fill="#D8EDFA" transform="translate(151,159)"/>
<path d="M0 0 C2.64 0 5.28 0 8 0 C7.01 0.495 7.01 0.495 6 1 C6 1.66 6 2.32 6 3 C7.32 3.33 8.64 3.66 10 4 C6.25 5.125 6.25 5.125 4 4 C3.67 4.99 3.34 5.98 3 7 C2.01 6.34 1.02 5.68 0 5 C-0.1875 2.375 -0.1875 2.375 0 0 Z " fill="#268ED0" transform="translate(214,49)"/>
<path d="M0 0 C0.763125 0.20625 1.52625 0.4125 2.3125 0.625 C2.415625 1.223125 2.51875 1.82125 2.625 2.4375 C3.40126455 4.90743264 4.38338921 5.94751235 6.3125 7.625 C5.9825 8.285 5.6525 8.945 5.3125 9.625 C3.85227837 8.66954634 2.39438532 7.71053322 0.9375 6.75 C0.12539062 6.21632813 -0.68671875 5.68265625 -1.5234375 5.1328125 C-3.6875 3.625 -3.6875 3.625 -5.6875 1.625 C-2.6875 -0.375 -2.6875 -0.375 0 0 Z " fill="#338AD2" transform="translate(237.6875,34.375)"/>
<path d="M0 0 C0.66 0.33 1.32 0.66 2 1 C0.8553125 2.36125 0.8553125 2.36125 -0.3125 3.75 C-1.856057 5.59005948 -3.29436301 7.41428868 -4.6875 9.375 C-5.120625 9.91125 -5.55375 10.4475 -6 11 C-6.66 11 -7.32 11 -8 11 C-9.36161311 11.96113866 -10.69855198 12.95884159 -12 14 C-10.60089587 9.47301364 -8.4384826 7.24844018 -4.875 4.1875 C-3.96492188 3.39730469 -3.05484375 2.60710938 -2.1171875 1.79296875 C-1.06917969 0.90544922 -1.06917969 0.90544922 0 0 Z " fill="#2BB1B2" transform="translate(126,28)"/>
<path d="M0 0 C-0.33 0.66 -0.66 1.32 -1 2 C-2.8125 2.59765625 -2.8125 2.59765625 -5 3.0625 C-7.77114877 3.51706623 -7.77114877 3.51706623 -10 5 C-11.84891946 5.23363881 -13.70488031 5.41303635 -15.5625 5.5625 C-17.08037109 5.68818359 -17.08037109 5.68818359 -18.62890625 5.81640625 C-19.41136719 5.87699219 -20.19382813 5.93757812 -21 6 C-18.31612245 3.31612245 -15.82898587 2.90453004 -12.1875 1.875 C-10.96417969 1.52179687 -9.74085938 1.16859375 -8.48046875 0.8046875 C-5.47872805 0.11068235 -3.05450799 -0.17454331 0 0 Z " fill="#36B6B7" transform="translate(179,4)"/>
<path d="M0 0 C-4.35827431 3.29528058 -7.3865076 4.68225515 -13 5 C-15 4.33333333 -17 3.66666667 -19 3 C-18.0925 2.855625 -17.185 2.71125 -16.25 2.5625 C-12.488064 1.91139569 -9.02447252 1.00759492 -5.375 -0.125 C-2 -1 -2 -1 0 0 Z " fill="#4C59C0" transform="translate(219,162)"/>
<path d="M0 0 C6.75 -0.125 6.75 -0.125 9 1 C8.34 2.32 7.68 3.64 7 5 C3.33333333 5 -0.33333333 5 -4 5 C-3.67 4.01 -3.34 3.02 -3 2 C2.75 1.875 2.75 1.875 5 3 C5 2.34 5 1.68 5 1 C3.35 1 1.7 1 0 1 C0 0.67 0 0.34 0 0 Z " fill="#16A7CD" transform="translate(205,5)"/>
<path d="M0 0 C3.63 0 7.26 0 11 0 C11 2 11 2 9.9375 3.6875 C8 5 8 5 4.3125 4.6875 C3.219375 4.460625 2.12625 4.23375 1 4 C0.67 2.68 0.34 1.36 0 0 Z " fill="#4B64D4" transform="translate(200,160)"/>
<path d="M0 0 C0.66 0 1.32 0 2 0 C2.53132389 2.58157368 3.05034379 5.16461756 3.5625 7.75 C3.78969727 8.84441406 3.78969727 8.84441406 4.02148438 9.9609375 C4.74557178 13.66557073 5.09817231 16.39322322 4 20 C1.60175053 17.60175053 1.68563796 16.72664782 1.4375 13.4375 C1.41550697 10.41952212 1.41550697 10.41952212 0 8 C-0.14115161 5.32941149 -0.04247107 2.67567762 0 0 Z " fill="#D6F9FB" transform="translate(87,120)"/>
<path d="M0 0 C0.99 0.33 1.98 0.66 3 1 C0.53721199 3.46278801 -1.70676982 3.99771255 -5 5 C-5 5.66 -5 6.32 -5 7 C-6.75 8.7265625 -6.75 8.7265625 -9 10.625 C-9.7425 11.25664063 -10.485 11.88828125 -11.25 12.5390625 C-11.8275 13.02117187 -12.405 13.50328125 -13 14 C-13.66 13.67 -14.32 13.34 -15 13 C-10.3617825 8.22123046 -5.5524083 3.70160553 0 0 Z " fill="#3F93BB" transform="translate(201,52)"/>
<path d="M0 0 C0.6875 1.6875 0.6875 1.6875 1 4 C-0.1875 6.375 -0.1875 6.375 -2 9 C-2.721875 10.093125 -3.44375 11.18625 -4.1875 12.3125 C-4.785625 13.199375 -5.38375 14.08625 -6 15 C-6.33 14.01 -6.66 13.02 -7 12 C-6.34 11.01 -5.68 10.02 -5 9 C-4.5359375 7.515 -4.5359375 7.515 -4.0625 6 C-3.04603735 3.12998783 -2.30842724 1.88871319 0 0 Z " fill="#2691C3" transform="translate(185,66)"/>
<path d="M0 0 C2.57798841 0.36363205 3.69164073 0.59533633 5.30078125 2.70703125 C5.63464844 3.40183594 5.96851563 4.09664062 6.3125 4.8125 C6.65925781 5.49957031 7.00601562 6.18664063 7.36328125 6.89453125 C8.10314333 9.34106905 7.82973374 10.61786119 7 13 C5.82479354 11.40207898 4.66008753 9.79643092 3.5 8.1875 C2.8503125 7.29417969 2.200625 6.40085937 1.53125 5.48046875 C0 3 0 3 0 0 Z " fill="#E2F0F9" transform="translate(280,40)"/>
<path d="M0 0 C0.33 0.66 0.66 1.32 1 2 C0 3.9375 0 3.9375 -2 6 C-4.69924572 6.66549451 -7.20631637 6.81680763 -10 7 C-10 6.34 -10 5.68 -10 5 C-10.99 4.67 -11.98 4.34 -13 4 C-12.39671875 3.87882812 -11.7934375 3.75765625 -11.171875 3.6328125 C-10.37265625 3.46523437 -9.5734375 3.29765625 -8.75 3.125 C-7.96109375 2.96257812 -7.1721875 2.80015625 -6.359375 2.6328125 C-4.03168856 2.00849925 -2.10968048 1.15161458 0 0 Z " fill="#5579BA" transform="translate(240,87)"/>
<path d="M0 0 C6.71877639 1.47813081 10.12546826 4.12546826 15 9 C14.34 9 13.68 9 13 9 C12.67 9.66 12.34 10.32 12 11 C11.67 10.01 11.34 9.02 11 8 C9.68747118 7.29325371 8.34721283 6.63815344 7 6 C4.60316635 4.42097011 2.23517101 2.80194966 0 1 C0 0.67 0 0.34 0 0 Z " fill="#D3EBF7" transform="translate(256,20)"/>
<path d="M0 0 C1.81332154 0.30769707 3.62564345 0.62129064 5.4375 0.9375 C6.95150391 1.19853516 6.95150391 1.19853516 8.49609375 1.46484375 C11 2 11 2 12 3 C13.51469448 3.23192865 15.03754562 3.41215238 16.5625 3.5625 C17.80193359 3.68818359 17.80193359 3.68818359 19.06640625 3.81640625 C19.70449219 3.87699219 20.34257812 3.93757812 21 4 C21 4.66 21 5.32 21 6 C18.62388845 5.71583399 16.24939504 5.42291099 13.875 5.125 C13.20984375 5.04636719 12.5446875 4.96773437 11.859375 4.88671875 C7.69621356 4.35611974 3.93328708 3.45813446 0 2 C0 1.34 0 0.68 0 0 Z " fill="#466CD5" transform="translate(165,180)"/>
<path d="M0 0 C0.33 0 0.66 0 1 0 C1.30099074 5.11684258 0.88385917 7.78512891 -2 12 C-2.69822617 13.65369357 -3.37498605 15.31727014 -4 17 C-4.66 17 -5.32 17 -6 17 C-4.13236819 11.27789404 -2.14710968 5.62338249 0 0 Z " fill="#EED3FA" transform="translate(299,141)"/>
<path d="M0 0 C0.99 0.33 1.98 0.66 3 1 C3.33 3.64 3.66 6.28 4 9 C3.01 9.33 2.02 9.66 1 10 C1 9.34 1 8.68 1 8 C0.34 8 -0.32 8 -1 8 C-0.67 5.36 -0.34 2.72 0 0 Z " fill="#604BE4" transform="translate(297,88)"/>
<path d="M0 0 C1.5 1.125 1.5 1.125 3 3 C3.1875 6.1875 3.1875 6.1875 3 9 C-0.75 10.125 -0.75 10.125 -3 9 C-2.30058404 5.85262818 -1.23921302 2.97411124 0 0 Z " fill="#4470DD" transform="translate(253,71)"/>
<path d="M0 0 C0.99 0 1.98 0 3 0 C4.60546875 1.6796875 4.60546875 1.6796875 6.1875 3.875 C6.71730469 4.59429687 7.24710937 5.31359375 7.79296875 6.0546875 C9 8 9 8 9 10 C8.01 10.33 7.02 10.66 6 11 C5.87625 10.360625 5.7525 9.72125 5.625 9.0625 C5.41875 8.381875 5.2125 7.70125 5 7 C4.34 6.67 3.68 6.34 3 6 C3 5.34 3 4.68 3 4 C2.01 4 1.02 4 0 4 C0 2.68 0 1.36 0 0 Z " fill="#4174DC" transform="translate(274,41)"/>
<path d="M0 0 C2.64 0 5.28 0 8 0 C8 0.99 8 1.98 8 3 C6.88625 3.45375 5.7725 3.9075 4.625 4.375 C1.03800992 5.72465986 1.03800992 5.72465986 -1 8 C-0.67 5.36 -0.34 2.72 0 0 Z " fill="#545CDF" transform="translate(240,128)"/>
<path d="M0 0 C3 1 3 1 4.375 3.3125 C5 6 5 6 3.625 8.3125 C2.820625 9.1478125 2.820625 9.1478125 2 10 C1.34 9.67 0.68 9.34 0 9 C-0.99444068 5.65506316 -1.10348268 3.31044803 0 0 Z " fill="#4C62D9" transform="translate(288,60)"/>
<path d="M0 0 C4.29926263 1.59231949 6.35005733 4.39313359 9 8 C9 8.99 9 9.98 9 11 C7.0625 10.1875 7.0625 10.1875 5 9 C4.67 8.01 4.34 7.02 4 6 C3.319375 5.319375 2.63875 4.63875 1.9375 3.9375 C1.298125 3.298125 0.65875 2.65875 0 2 C0 1.34 0 0.68 0 0 Z " fill="#D3F0F8" transform="translate(240,44)"/>
<path d="M0 0 C0.99 0.33 1.98 0.66 3 1 C1.95199219 1.93972656 1.95199219 1.93972656 0.8828125 2.8984375 C-0.02726562 3.71570313 -0.93734375 4.53296875 -1.875 5.375 C-2.77992187 6.18710937 -3.68484375 6.99921875 -4.6171875 7.8359375 C-6.10896183 9.19076205 -7.57505435 10.57505435 -9 12 C-9.33 11.01 -9.66 10.02 -10 9 C-9.01 8.67 -8.02 8.34 -7 8 C-7 7.01 -7 6.02 -7 5 C-5.35 4.67 -3.7 4.34 -2 4 C-2 3.01 -2 2.02 -2 1 C-1.34 0.67 -0.68 0.34 0 0 Z " fill="#D8F5F8" transform="translate(124,27)"/>
<path d="M0 0 C0 3 0 3 -2.01171875 5.41015625 C-2.89472656 6.28542969 -3.77773438 7.16070312 -4.6875 8.0625 C-5.55761719 8.94035156 -6.42773438 9.81820312 -7.32421875 10.72265625 C-9.87182974 12.89091494 -11.8409977 13.9925344 -15 15 C-12.06334264 10.96209613 -8.68524643 7.85773305 -4.90234375 4.6484375 C-3.18778129 3.16271808 -1.58115759 1.62548911 0 0 Z " fill="#5923A8" transform="translate(276,180)"/>
<path d="M0 0 C0 1.65 0 3.3 0 5 C-0.88945313 5.36738281 -0.88945313 5.36738281 -1.796875 5.7421875 C-4.36698726 7.20952109 -5.54529966 8.72292225 -7.25 11.125 C-7.77078125 11.84945312 -8.2915625 12.57390625 -8.828125 13.3203125 C-9.21484375 13.87460937 -9.6015625 14.42890625 -10 15 C-10 11.43790164 -9.17010757 10.39431763 -7.1875 7.5 C-6.66542969 6.7265625 -6.14335938 5.953125 -5.60546875 5.15625 C-1.76630435 0 -1.76630435 0 0 0 Z " fill="#0CBCC3" transform="translate(117,40)"/>
<path d="M0 0 C0.6875 1.6875 0.6875 1.6875 1 4 C-0.1875 6.75 -0.1875 6.75 -2 9 C-3.32 9 -4.64 9 -6 9 C-6 7.02 -6 5.04 -6 3 C-4.02 3 -2.04 3 0 3 C0 2.01 0 1.02 0 0 Z " fill="#7D26E9" transform="translate(258,189)"/>
<path d="M0 0 C0.99 0.33 1.98 0.66 3 1 C0.69 5.29 -1.62 9.58 -4 14 C-4.33 14 -4.66 14 -5 14 C-4.67 11.36 -4.34 8.72 -4 6 C-3.01 5.67 -2.02 5.34 -1 5 C-0.67 3.35 -0.34 1.7 0 0 Z " fill="#DBF8FC" transform="translate(176,74)"/>
<path d="M0 0 C0 0.99 0 1.98 0 3 C-3.11910856 4.79275866 -5.67682428 5.34290718 -9.25 5.625 C-10.14203125 5.69976563 -11.0340625 5.77453125 -11.953125 5.8515625 C-12.62859375 5.90054687 -13.3040625 5.94953125 -14 6 C-14 5.34 -14 4.68 -14 4 C-12.948125 3.896875 -11.89625 3.79375 -10.8125 3.6875 C-6.92375555 2.986251 -3.71238371 0 0 0 Z " fill="#06BBC6" transform="translate(160,11)"/>
<path d="M0 0 C0.66 0 1.32 0 2 0 C2 4.62 2 9.24 2 14 C1.34 14 0.68 14 0 14 C0 15.98 0 17.96 0 20 C-0.33 20 -0.66 20 -1 20 C-0.67 13.4 -0.34 6.8 0 0 Z " fill="#3D8BCB" transform="translate(166,116)"/>
<path d="M0 0 C3.51705958 0.65271556 6.89325077 1.51393024 10.3125 2.5625 C11.19550781 2.83191406 12.07851562 3.10132813 12.98828125 3.37890625 C13.65214844 3.58386719 14.31601563 3.78882813 15 4 C14.67 4.99 14.34 5.98 14 7 C9.25981099 5.16508812 4.63586749 3.08058541 0 1 C0 0.67 0 0.34 0 0 Z " fill="#D6F5FB" transform="translate(231,7)"/>
<path d="M0 0 C0.33 0 0.66 0 1 0 C1.08226668 3.04386724 0.97608217 5.07175348 0 8 C-1.65 8.33 -3.3 8.66 -5 9 C-4.42680151 5.13091017 -2.56186024 2.88209277 0 0 Z " fill="#F6E6FA" transform="translate(281,176)"/>
<path d="M0 0 C1.125 1.75 1.125 1.75 2 4 C1.125 6.25 1.125 6.25 0 8 C-0.66 8 -1.32 8 -2 8 C-2 9.65 -2 11.3 -2 13 C-2.99 13.33 -3.98 13.66 -5 14 C-4.11223998 10.30099992 -3.05418136 6.65449539 -2 3 C-1.34 3 -0.68 3 0 3 C0 2.01 0 1.02 0 0 Z " fill="#F9FBF0" transform="translate(302,141)"/>
<path d="M0 0 C0.33 0.66 0.66 1.32 1 2 C0.360625 2.28875 -0.27875 2.5775 -0.9375 2.875 C-3.15206079 3.82823451 -3.15206079 3.82823451 -4 6 C-4.66 6 -5.32 6 -6 6 C-5.67 5.01 -5.34 4.02 -5 3 C-6.32 2.01 -7.64 1.02 -9 0 C-5.68955197 -1.10348268 -3.34493684 -0.99444068 0 0 Z " fill="#2B8FC9" transform="translate(212,52)"/>
<path d="M0 0 C0.99 0.495 0.99 0.495 2 1 C2 1.66 2 2.32 2 3 C2.66 3 3.32 3 4 3 C4 3.66 4 4.32 4 5 C4.598125 5.268125 5.19625 5.53625 5.8125 5.8125 C7.97224808 6.98493467 9.35790256 8.19369282 11 10 C7.62537285 9.45276317 5.91765 8.9451 3 7 C3 6.34 3 5.68 3 5 C2.34 5 1.68 5 1 5 C0.67 3.35 0.34 1.7 0 0 Z " fill="#4178CB" transform="translate(153,168)"/>
<path d="M0 0 C0.99 0 1.98 0 3 0 C3 1.65 3 3.3 3 5 C2.34 5 1.68 5 1 5 C0.01 6.485 0.01 6.485 -1 8 C-1.66 8 -2.32 8 -3 8 C-3 6.35 -3 4.7 -3 3 C-2.34 3 -1.68 3 -1 3 C-0.67 2.01 -0.34 1.02 0 0 Z " fill="#762BDB" transform="translate(284,164)"/>
<path d="M0 0 C2 3 2 3 1.86328125 5.375 C1.68152344 6.24125 1.49976563 7.1075 1.3125 8 C1.14363281 8.86625 0.97476563 9.7325 0.80078125 10.625 C-0.05593347 13.16589048 -0.96732625 14.29770573 -3 16 C-3.25 9.375 -3.25 9.375 -1 6 C-0.60986284 4.0103005 -0.26797351 2.00980131 0 0 Z " fill="#2F9EBB" transform="translate(143,93)"/>
<path d="M0 0 C1.25541557 3.76624671 0.37061958 5.37188934 -1 9 C-1.66 9 -2.32 9 -3 9 C-3 9.99 -3 10.98 -3 12 C-3.66 12 -4.32 12 -5 12 C-5 12.66 -5 13.32 -5 14 C-5.66 14 -6.32 14 -7 14 C-4.66666667 9.33333333 -2.33333333 4.66666667 0 0 Z " fill="#5373B0" transform="translate(250,72)"/>
<path d="M0 0 C0.99 0.66 1.98 1.32 3 2 C2.6875 3.875 2.6875 3.875 2 6 C1.01 6.66 0.02 7.32 -1 8 C-2 3.25 -2 3.25 -2 1 C-1.34 0.67 -0.68 0.34 0 0 Z " fill="#792AE4" transform="translate(274,175)"/>
<path d="M0 0 C0 3 0 3 0 3 Z M-2 3 C-1.34 3.33 -0.68 3.66 0 4 C0 4.66 0 5.32 0 6 C-3.07617188 6.29296875 -3.07617188 6.29296875 -6.15234375 6.5859375 C-6.76207031 6.72257813 -7.37179688 6.85921875 -8 7 C-8.33 7.66 -8.66 8.32 -9 9 C-9.66 8.67 -10.32 8.34 -11 8 C-9.8125 6 -9.8125 6 -8 4 C-5.375 3.8125 -5.375 3.8125 -3 4 C-2.67 3.67 -2.34 3.34 -2 3 Z " fill="#5E4EEA" transform="translate(230,170)"/>
<path d="M0 0 C1.32 0 2.64 0 4 0 C3.835 0.7425 3.67 1.485 3.5 2.25 C2.88074304 5.19006578 2.88074304 5.19006578 3 9 C1.68 9.33 0.36 9.66 -1 10 C-1.33 9.34 -1.66 8.68 -2 8 C-1.34 7.67 -0.68 7.34 0 7 C1.0761054 3.42464981 1.0761054 3.42464981 0 0 Z " fill="#FBFAFA" transform="translate(236,146)"/>
<path d="M0 0 C0.99 0 1.98 0 3 0 C3.33 4.29 3.66 8.58 4 13 C0.90576832 9.90576832 0.06293995 6.4476188 -0.125 2.125 C-0.08375 1.42375 -0.0425 0.7225 0 0 Z " fill="#467AB5" transform="translate(166,136)"/>
<path d="M0 0 C0 0.33 0 0.66 0 1 C-0.87011719 1.07347656 -0.87011719 1.07347656 -1.7578125 1.1484375 C-5.48770348 1.50542377 -8.74543481 1.9135439 -12.3125 3.125 C-15.11469044 4.03734107 -16.29521227 4.04030297 -19 3 C-12.68284595 -0.44572039 -7.09629025 -0.31461385 0 0 Z " fill="#408DB8" transform="translate(222,48)"/>
<path d="M0 0 C4.19360449 0.67097672 7.40334352 2.8558394 11 5 C8.1353288 6.4323356 6.08594927 5.57861549 3 5 C2.34 5 1.68 5 1 5 C0.67 3.35 0.34 1.7 0 0 Z " fill="#338ED0" transform="translate(248,19)"/>
<path d="M0 0 C1.48285242 0.95262034 2.96118201 1.91228405 4.4375 2.875 C5.67306641 3.67550781 5.67306641 3.67550781 6.93359375 4.4921875 C9 6 9 6 10 8 C7.07674878 8.24360427 5.37152557 8.19608294 2.75 6.8125 C0.60233234 4.58812992 0.4901995 2.99511892 0 0 Z " fill="#DBEDF8" transform="translate(126,192)"/>
<path d="M0 0 C0 3.56172735 -0.74670717 4.36534757 -2.875 7.125 C-3.40867188 7.82882813 -3.94234375 8.53265625 -4.4921875 9.2578125 C-6 11 -6 11 -8 12 C-8.33 10.68 -8.66 9.36 -9 8 C-7.88625 7.4121875 -7.88625 7.4121875 -6.75 6.8125 C-3.80216929 4.86961158 -2.06901389 2.83531533 0 0 Z " fill="#4B54AF" transform="translate(235,143)"/>
<path d="M0 0 C2.76669035 2.37033864 3.72666067 4.46545585 4.75 7.9375 C5.14445312 9.21947266 5.14445312 9.21947266 5.546875 10.52734375 C6.01667187 13.09097669 5.83746128 14.56117696 5 17 C4.35035977 15.10546779 3.70544885 13.20931351 3.0625 11.3125 C2.70285156 10.25675781 2.34320313 9.20101562 1.97265625 8.11328125 C1.12793482 5.40949417 0.49106215 2.78613158 0 0 Z " fill="#5657AE" transform="translate(294,67)"/>
<path d="M0 0 C0.99 0.33 1.98 0.66 3 1 C0.69 3.97 -1.62 6.94 -4 10 C-5 6 -5 6 -4.00390625 4.296875 C-2.66927083 2.86458333 -1.33463542 1.43229167 0 0 Z " fill="#CDF9FB" transform="translate(108,44)"/>
<path d="M0 0 C4.2742558 1.5830577 6.26531794 4.50568404 9 8 C8.34 8.66 7.68 9.32 7 10 C2 4.25 2 4.25 2 2 C1.34 2 0.68 2 0 2 C0 1.34 0 0.68 0 0 Z " fill="#5279BA" transform="translate(271,34)"/>
<path d="M0 0 C2.3828125 0.0234375 2.3828125 0.0234375 5.125 0.375 C6.03507813 0.48585937 6.94515625 0.59671875 7.8828125 0.7109375 C8.93082031 0.85402344 8.93082031 0.85402344 10 1 C9.67 1.66 9.34 2.32 9 3 C6.71484375 3.4140625 6.71484375 3.4140625 3.9375 3.625 C2.55884766 3.73714844 2.55884766 3.73714844 1.15234375 3.8515625 C0.44207031 3.90054688 -0.26820313 3.94953125 -1 4 C-1.33 3.34 -1.66 2.68 -2 2 C-1.34 1.34 -0.68 0.68 0 0 Z " fill="#258ED5" transform="translate(230,32)"/>
<path d="M0 0 C-3.0684847 2.97550031 -4.46236331 3.96474513 -8.8125 4.25 C-9.864375 4.1675 -10.91625 4.085 -12 4 C-8.15336308 0.86570325 -4.95471579 -1.65157193 0 0 Z " fill="#34B7BB" transform="translate(158,11)"/>
<path d="M0 0 C0.93065133 2.60582371 1.14917407 3.64198224 0.0625 6.25 C-0.4634375 7.11625 -0.4634375 7.11625 -1 8 C-1.33 7.34 -1.66 6.68 -2 6 C-2.66 6 -3.32 6 -4 6 C-4 4.68 -4 3.36 -4 2 C-2.68 1.34 -1.36 0.68 0 0 Z " fill="#F7F8F2" transform="translate(286,174)"/>
<path d="M0 0 C0.99 0.33 1.98 0.66 3 1 C3 1.99 3 2.98 3 4 C0.6875 5.125 0.6875 5.125 -2 6 C-2.99 5.34 -3.98 4.68 -5 4 C-4.360625 3.71125 -3.72125 3.4225 -3.0625 3.125 C-0.84793921 2.17176549 -0.84793921 2.17176549 0 0 Z " fill="#FBFAFB" transform="translate(228,156)"/>
<path d="M0 0 C0 3 0 3 -1.375 4.8125 C-3.30328887 7.40827347 -4.08903385 9.91672995 -5 13 C-6.3778771 9.86846113 -5.90076044 8.71220527 -4.75 5.375 C-3 2 -3 2 0 0 Z " fill="#22B4B4" transform="translate(99,68)"/>
<path d="M0 0 C4.62 0 9.24 0 14 0 C14.33 1.65 14.66 3.3 15 5 C14.38125 4.525625 13.7625 4.05125 13.125 3.5625 C8.83894324 1.41947162 4.73399291 1.26657436 0 1 C0 0.67 0 0.34 0 0 Z " fill="#CCE6F5" transform="translate(214,47)"/>
<path d="M0 0 C0.33 0.66 0.66 1.32 1 2 C0.22265625 3.9453125 0.22265625 3.9453125 -0.9375 6.125 C-1.31777344 6.84945312 -1.69804687 7.57390625 -2.08984375 8.3203125 C-2.39019531 8.87460938 -2.69054687 9.42890625 -3 10 C-3.99 10 -4.98 10 -6 10 C-4.34832443 6.4213696 -2.21713508 3.25179812 0 0 Z " fill="#EBD3FB" transform="translate(288,166)"/>
<path d="M0 0 C0.66 0.33 1.32 0.66 2 1 C2.4140625 3.28515625 2.4140625 3.28515625 2.625 6.0625 C2.69976562 6.98160156 2.77453125 7.90070313 2.8515625 8.84765625 C2.92503906 9.91306641 2.92503906 9.91306641 3 11 C0.30811936 7.66409415 -0.61629411 5.31669125 -1 1 C-0.67 0.67 -0.34 0.34 0 0 Z " fill="#3085DA" transform="translate(145,156)"/>
<path d="M0 0 C3.69444444 4.92592593 3.69444444 4.92592593 4 9 C3.0625 11.3125 3.0625 11.3125 2 13 C1.67 13 1.34 13 1 13 C0.67 8.71 0.34 4.42 0 0 Z " fill="#2F8ADF" transform="translate(225,55)"/>
<path d="M0 0 C0.66 0.33 1.32 0.66 2 1 C3.02273507 4.62138266 3.10762232 8.06734756 3.0625 11.8125 C3.05347656 12.78832031 3.04445312 13.76414062 3.03515625 14.76953125 C3.02355469 15.50558594 3.01195312 16.24164063 3 17 C2.67 17 2.34 17 2 17 C1.86722656 16.09636719 1.73445312 15.19273438 1.59765625 14.26171875 C1.42105469 13.08222656 1.24445313 11.90273438 1.0625 10.6875 C0.88847656 9.51574219 0.71445313 8.34398437 0.53515625 7.13671875 C0.07906969 3.98358597 0.07906969 3.98358597 -1 1 C-0.67 0.67 -0.34 0.34 0 0 Z " fill="#D5F3FD" transform="translate(231,52)"/>
<path d="M0 0 C1.32 0 2.64 0 4 0 C4 0.66 4 1.32 4 2 C3.34 2 2.68 2 2 2 C2 2.66 2 3.32 2 4 C2.99 3.67 3.98 3.34 5 3 C5 3.99 5 4.98 5 6 C4.01 6.33 3.02 6.66 2 7 C0.4375 5.75 0.4375 5.75 -1 4 C-0.6875 1.8125 -0.6875 1.8125 0 0 Z " fill="#05BAC6" transform="translate(123,33)"/>
<path d="M0 0 C-0.3125 1.9375 -0.3125 1.9375 -1 4 C-4 5 -4 5 -6.1875 4.0625 C-6.785625 3.711875 -7.38375 3.36125 -8 3 C-5.36657694 0.36657694 -3.69534435 0 0 0 Z " fill="#5C53E2" transform="translate(217,180)"/>
<path d="M0 0 C0.66 0.33 1.32 0.66 2 1 C1.01 1.33 0.02 1.66 -1 2 C-2.05021103 3.84971696 -2.05021103 3.84971696 -3 6 C-3.97581759 7.35113205 -4.97029741 8.68946944 -6 10 C-6.99 9.67 -7.98 9.34 -9 9 C-6 6 -3 3 0 0 Z " fill="#6052DA" transform="translate(233,165)"/>
<path d="M0 0 C0.33 0 0.66 0 1 0 C0.67 2.97 0.34 5.94 0 9 C-1.32 9 -2.64 9 -4 9 C-3.625 7.0625 -3.625 7.0625 -3 5 C-2.34 4.67 -1.68 4.34 -1 4 C-0.34786708 1.97536745 -0.34786708 1.97536745 0 0 Z " fill="#6642D4" transform="translate(301,95)"/>
<path d="M0 0 C2.97 0.33 5.94 0.66 9 1 C6.33440687 2.77706209 3.9719385 3.87548273 1 5 C0.34 4.01 -0.32 3.02 -1 2 C-0.67 1.34 -0.34 0.68 0 0 Z " fill="#DFF2F8" transform="translate(199,48)"/>
<path d="M0 0 C2.97 0.495 2.97 0.495 6 1 C6 1.66 6 2.32 6 3 C4.02 3.66 2.04 4.32 0 5 C0 3.35 0 1.7 0 0 Z " fill="#4175E1" transform="translate(144,198)"/>
<path d="M0 0 C2.64 0.66 5.28 1.32 8 2 C8.33 3.65 8.66 5.3 9 7 C4.58110387 5.64978174 2.65654657 3.73884332 0 0 Z " fill="#477AB7" transform="translate(126,191)"/>
<path d="M0 0 C0.66 0 1.32 0 2 0 C0.84414715 3.91211733 -0.35534962 6.8745041 -3 10 C-3.2295711 6.63295715 -3.33943529 4.58629732 -1.625 1.625 C-1.08875 1.08875 -0.5525 0.5525 0 0 Z " fill="#D4FBFD" transform="translate(101,54)"/>
<path d="M0 0 C0.86625 0.4640625 0.86625 0.4640625 1.75 0.9375 C3.84294184 1.92583364 5.74535275 2.5168613 8 3 C8 4.65 8 6.3 8 8 C6.84772177 7.23883449 5.7033614 6.46567307 4.5625 5.6875 C3.92441406 5.25824219 3.28632813 4.82898437 2.62890625 4.38671875 C1 3 1 3 0 0 Z " fill="#427CAF" transform="translate(239,41)"/>
<path d="M0 0 C1.32 0.66 2.64 1.32 4 2 C4 2.66 4 3.32 4 4 C4.66 4 5.32 4 6 4 C5.67 4.99 5.34 5.98 5 7 C3.02 5.35 1.04 3.7 -1 2 C-0.67 1.34 -0.34 0.68 0 0 Z " fill="#E6F7FB" transform="translate(273,32)"/>
<path d="M0 0 C0.66 0.33 1.32 0.66 2 1 C1.67 1.66 1.34 2.32 1 3 C0.34 3 -0.32 3 -1 3 C-1 3.66 -1 4.32 -1 5 C-1.66 5 -2.32 5 -3 5 C-3.33 5.99 -3.66 6.98 -4 8 C-4.99 7.67 -5.98 7.34 -7 7 C-4.66666667 4.66666667 -2.33333333 2.33333333 0 0 Z " fill="#3BB0C2" transform="translate(134,21)"/>
<path d="M0 0 C0 0.66 0 1.32 0 2 C-6.625 3.25 -6.625 3.25 -10 1 C-6.61981469 -0.04005702 -3.5219721 -0.08004482 0 0 Z " fill="#F2E1FB" transform="translate(228,214)"/>
<path d="M0 0 C2.1640625 -0.29296875 2.1640625 -0.29296875 4.625 -0.1875 C5.44226563 -0.16042969 6.25953125 -0.13335937 7.1015625 -0.10546875 C8.04128906 -0.05326172 8.04128906 -0.05326172 9 0 C6.09907498 1.93395001 5.10325263 2.30131941 1.8125 2.625 C0.554375 2.74875 -0.70375 2.8725 -2 3 C-1.34 2.01 -0.68 1.02 0 0 Z " fill="#7533ED" transform="translate(227,208)"/>
<path d="M0 0 C1.65 0.33 3.3 0.66 5 1 C5 1.66 5 2.32 5 3 C2.69 3.33 0.38 3.66 -2 4 C-1.34 2.68 -0.68 1.36 0 0 Z " fill="#6545D6" transform="translate(233,172)"/>
<path d="M0 0 C0.66 0.33 1.32 0.66 2 1 C-1.32307692 5.8 -1.32307692 5.8 -4.75 6.8125 C-5.4925 6.874375 -6.235 6.93625 -7 7 C-4.66666667 4.66666667 -2.33333333 2.33333333 0 0 Z " fill="#C3F0F7" transform="translate(175,51)"/>
<path d="M0 0 C0 0.99 0 1.98 0 3 C-2.97 3.66 -5.94 4.32 -9 5 C-4 0 -4 0 0 0 Z " fill="#C3F3F9" transform="translate(192,42)"/>
<path d="M0 0 C3.73487777 0.4979837 5.81237635 0.87491756 9 3 C8.67 3.99 8.34 4.98 8 6 C6 6 6 6 4 4.125 C3.34 3.42375 2.68 2.7225 2 2 C1.34 1.34 0.68 0.68 0 0 Z " fill="#3D8ABA" transform="translate(240,13)"/>
<path d="M0 0 C1.32 0.33 2.64 0.66 4 1 C1.69 2.65 -0.62 4.3 -3 6 C-3.66 5.67 -4.32 5.34 -5 5 C-4.34 4.01 -3.68 3.02 -3 2 C-2.01 2 -1.02 2 0 2 C0 1.34 0 0.68 0 0 Z " fill="#6126B1" transform="translate(256,196)"/>
<path d="M0 0 C3.465 1.485 3.465 1.485 7 3 C6.01 3.99 5.02 4.98 4 6 C2.62437146 4.71034824 1.29233607 3.37310707 0 2 C0 1.34 0 0.68 0 0 Z " fill="#547BBC" transform="translate(163,175)"/>
<path d="M0 0 C2 3 2 3 1.625 5.1875 C1.41875 5.785625 1.2125 6.38375 1 7 C-0.32 7.33 -1.64 7.66 -3 8 C-1.125 2.25 -1.125 2.25 0 0 Z " fill="#EED5FA" transform="translate(292,158)"/>
<path d="M0 0 C0 2.64 0 5.28 0 8 C-2 6 -2 6 -3 3 C-3.66 2.34 -4.32 1.68 -5 1 C-3 0 -3 0 0 0 Z " fill="#DCE1F8" transform="translate(248,132)"/>
<path d="M0 0 C1.32 0.66 2.64 1.32 4 2 C4 2.99 4 3.98 4 5 C2.68 5.33 1.36 5.66 0 6 C-1.125 2.25 -1.125 2.25 0 0 Z " fill="#F5F8E8" transform="translate(230,83)"/>
<path d="M0 0 C1.32 0.33 2.64 0.66 4 1 C4 3.31 4 5.62 4 8 C3.34 8 2.68 8 2 8 C1.34 5.36 0.68 2.72 0 0 Z " fill="#EAE6FB" transform="translate(299,78)"/>
<path d="M0 0 C0.66 0 1.32 0 2 0 C2 0.66 2 1.32 2 2 C2.99 2 3.98 2 5 2 C5 3.32 5 4.64 5 6 C3.68 6 2.36 6 1 6 C0.67 4.02 0.34 2.04 0 0 Z " fill="#4C7DC6" transform="translate(249,52)"/>
<path d="M0 0 C1.65 0 3.3 0 5 0 C5 0.99 5 1.98 5 3 C3 5 3 5 1 6 C0.67 4.02 0.34 2.04 0 0 Z " fill="#F8F5F8" transform="translate(112,32)"/>
<path d="M0 0 C0.66 0.33 1.32 0.66 2 1 C2 2.32 2 3.64 2 5 C-0.97 4.505 -0.97 4.505 -4 4 C-2.68 2.68 -1.36 1.36 0 0 Z " fill="#E7E8FB" transform="translate(222,159)"/>
<path d="M0 0 C1.32 0 2.64 0 4 0 C4 1.98 4 3.96 4 6 C2.68 5.67 1.36 5.34 0 5 C0 3.35 0 1.7 0 0 Z " fill="#1D93CC" transform="translate(108,160)"/>
<path d="M0 0 C0.33 1.32 0.66 2.64 1 4 C-0.32 4.99 -1.64 5.98 -3 7 C-3 3 -3 3 -1.5 1.25 C-1.005 0.8375 -0.51 0.425 0 0 Z " fill="#479DBF" transform="translate(185,66)"/>
<path d="M0 0 C0.66 0.66 1.32 1.32 2 2 C-4.0546875 2.1953125 -4.0546875 2.1953125 -6 2 C-6.66 1.34 -7.32 0.68 -8 0 C-4.67679974 -1.10773342 -3.30835256 -0.93312508 0 0 Z " fill="#2B95D3" transform="translate(242,14)"/>
<path d="M0 0 C0.99 0.33 1.98 0.66 3 1 C2.40138258 3.35171131 1.73075648 5.6859378 1 8 C0.01 8.495 0.01 8.495 -1 9 C-0.67 6.03 -0.34 3.06 0 0 Z " fill="#F8FAEC" transform="translate(294,159)"/>
<path d="M0 0 C1 3 1 3 -0.25 5.625 C-2 8 -2 8 -5 9 C-3.7508258 5.54074837 -2.32472205 2.85306797 0 0 Z " fill="#5E56AE" transform="translate(242,150)"/>
<path d="M0 0 C-0.33 2.31 -0.66 4.62 -1 7 C-1.66 7 -2.32 7 -3 7 C-3 5.02 -3 3.04 -3 1 C-1 0 -1 0 0 0 Z " fill="#7E26F0" transform="translate(298,137)"/>
<path d="M0 0 C0.33 1.32 0.66 2.64 1 4 C-0.9375 6.25 -0.9375 6.25 -3 8 C-3.66 7.67 -4.32 7.34 -5 7 C-3.35 4.69 -1.7 2.38 0 0 Z " fill="#C5F3F9" transform="translate(163,62)"/>
<path d="M0 0 C0.66 0 1.32 0 2 0 C1.67 2.31 1.34 4.62 1 7 C0.67 6.34 0.34 5.68 0 5 C-0.66 5 -1.32 5 -2 5 C-1.34 3.35 -0.68 1.7 0 0 Z " fill="#F9FBF1" transform="translate(286,36)"/>
</svg>
