<?xml version="1.0" encoding="UTF-8"?>
<svg version="1.1" xmlns="http://www.w3.org/2000/svg" width="420" height="220">
<path d="M0 0 C138.6 0 277.2 0 420 0 C420 72.6 420 145.2 420 220 C281.4 220 142.8 220 0 220 C0 147.4 0 74.8 0 0 Z " fill="#8991BB" transform="translate(0,0)"/>
<path d="M0 0 C138.6 0 277.2 0 420 0 C420 72.6 420 145.2 420 220 C281.4 220 142.8 220 0 220 C0 147.4 0 74.8 0 0 Z M157 22 C155.39482417 22.23250013 153.78936505 22.463055 152.18359375 22.69140625 C116.83795739 27.91812472 80.60810015 39.05181308 52 61 C51.44828125 61.42087891 50.8965625 61.84175781 50.328125 62.27539062 C45.32244121 66.13292607 40.71356742 69.83848198 37 75 C37 75.66 37 76.32 37 77 C36.34 77 35.68 77 35 77 C35 77.99 35 78.98 35 80 C34.34 80 33.68 80 33 80 C32.21869457 81.30629327 31.45066823 82.62052827 30.6875 83.9375 C30.25824219 84.66839844 29.82898438 85.39929688 29.38671875 86.15234375 C25.85305269 93.40880167 24.49114829 99.88086474 24.625 107.9375 C24.63442627 108.81704346 24.64385254 109.69658691 24.65356445 110.6027832 C24.79801187 116.80596525 25.36944618 122.30941419 28 128 C28.45826172 129.05574219 28.45826172 129.05574219 28.92578125 130.1328125 C33.77249144 139.96722808 42.24337816 149.4791114 51 156 C51.66 156 52.32 156 53 156 C53 156.66 53 157.32 53 158 C54.53047435 159.29076466 54.53047435 159.29076466 56.54296875 160.53125 C57.28740234 161.01207031 58.03183594 161.49289063 58.79882812 161.98828125 C59.58708984 162.48714844 60.37535156 162.98601562 61.1875 163.5 C62.34088867 164.24830078 62.34088867 164.24830078 63.51757812 165.01171875 C67.26364075 167.41048503 70.80603631 169.4688704 75 171 C76.42920539 171.79023582 77.84617696 172.6030052 79.25 173.4375 C82.95977606 175.53806856 86.55569567 176.97349279 90.62597656 178.20654297 C92.91607811 178.97195124 95.03277141 179.8845208 97.21875 180.90625 C130.13494442 195.70706138 169.53162916 198.75149298 205.22021484 198.52148438 C208.78614528 198.49869563 212.35088018 198.51226992 215.91676998 198.53526497 C241.05572353 198.67203277 265.57568723 196.27873009 290 190 C290.85609863 189.78617676 291.71219727 189.57235352 292.59423828 189.35205078 C305.46685476 186.11734648 317.7597449 182.12461384 330 177 C330.84175781 176.66484375 331.68351562 176.3296875 332.55078125 175.984375 C343.32621933 171.51997504 353.47656734 165.1538488 363.1875 158.75 C363.79867676 158.35022949 364.40985352 157.95045898 365.03955078 157.53857422 C377.71609579 149.01341237 389.04229431 134.08735945 392.59643555 119.16796875 C395.45915023 103.78932002 391.66636015 90.76561534 383 78 C381.42168528 75.8336009 379.85042111 73.95322229 378 72 C377.34 72 376.68 72 376 72 C375.79246094 71.45085937 375.58492188 70.90171875 375.37109375 70.3359375 C373.48909609 67.12957111 370.88278046 64.97773648 368.0625 62.625 C367.48781982 62.14184326 366.91313965 61.65868652 366.32104492 61.16088867 C357.99898739 54.07624809 357.99898739 54.07624809 348 51 C348 50.34 348 49.68 348 49 C338.77681385 44.50006777 329.65479716 40.32348543 319.9296875 37.015625 C317 36 317 36 313.5 34.4375 C266.93971097 15.31452415 205.94684829 14.1071464 157 22 Z " fill="#F5F5F5" transform="translate(0,0)"/>
<path d="M0 0 C7.24077331 -0.05092508 14.4815 -0.08582786 21.72241211 -0.10986328 C24.18304165 -0.11988885 26.64365937 -0.13351274 29.10424805 -0.15087891 C32.65155972 -0.17527878 36.19871314 -0.18651787 39.74609375 -0.1953125 C40.8370787 -0.20563507 41.92806366 -0.21595764 43.05210876 -0.22659302 C54.95732632 -0.22832161 64.55657217 1.88700437 73.4375 10.3125 C78.35580825 18.77199019 79.3759403 27.82217809 77.53125 37.4453125 C73.89553281 49.52108745 66.96260717 59.64168784 56 66 C48.79269307 69.52805234 43.24550775 71.1552865 35.171875 71.09765625 C34.42286926 71.0962413 33.67386353 71.09482635 32.90216064 71.09336853 C30.51806588 71.08778659 28.13406622 71.07523745 25.75 71.0625 C24.13020969 71.05748266 22.51041791 71.05292016 20.890625 71.04882812 C16.92704688 71.03782308 12.96353955 71.02057091 9 71 C9.02707031 72.58953491 9.02707031 72.58953491 9.0546875 74.21118164 C9.01095835 77.24079211 8.80674528 79.70237176 8.125 82.62109375 C7.96257812 83.33450928 7.80015625 84.0479248 7.6328125 84.78295898 C7.42398437 85.65895752 7.21515625 86.53495605 7 87.4375 C6.34 90.263125 5.68 93.08875 5 96 C-2.92 96 -10.84 96 -19 96 C-18.32609693 89.26096926 -17.5177604 83.03296869 -16 76.5 C-15.82210937 75.70335937 -15.64421875 74.90671875 -15.4609375 74.0859375 C-14.14421584 68.28843168 -14.14421584 68.28843168 -13 66 C-12.66679345 64.21647193 -12.37056992 62.4259577 -12.09375 60.6328125 C-11.07913099 54.3365379 -9.82781548 48.11170905 -8.5 41.875 C-8.07253044 39.85164406 -7.64544306 37.82820734 -7.21875 35.8046875 C-7.03248047 34.92796387 -6.84621094 34.05124023 -6.65429688 33.14794922 C-5.74440466 28.77028124 -4.87369157 24.38501482 -4 20 C-3.64337384 18.2161169 -3.28660319 16.43226269 -2.9296875 14.6484375 C-2.66865234 13.34326172 -2.66865234 13.34326172 -2.40234375 12.01171875 C-1.6015625 8.0078125 -0.80078125 4.00390625 0 0 Z " fill="#202332" transform="translate(265,66)"/>
<path d="M0 0 C7.29572811 -0.02538796 14.59144478 -0.04288289 21.88720703 -0.05493164 C24.36833115 -0.05995547 26.84945232 -0.06677566 29.33056641 -0.07543945 C32.90007253 -0.08759036 36.46953945 -0.09324788 40.0390625 -0.09765625 C41.14553131 -0.10281754 42.25200012 -0.10797882 43.39199829 -0.11329651 C48.37162319 -0.11365794 53.1087713 -0.07250766 58 1 C58 1.66 58 2.32 58 3 C58.86625 3.0825 59.7325 3.165 60.625 3.25 C67.19200983 4.70933552 71.14580403 8.64695004 75 14 C79.07942614 23.7963684 78.39283472 35.84099155 74.5 45.5625 C68.80057751 57.06762793 60.12976918 64.79209339 48.25 69.68359375 C40.94442293 72.01027863 33.01894299 71.31235235 25.4375 71.1875 C23.84050741 71.17242639 22.24350106 71.15874272 20.64648438 71.14648438 C16.76397876 71.11368925 12.88214367 71.06205574 9 71 C8.83564453 72.45019531 8.83564453 72.45019531 8.66796875 73.9296875 C8.43013672 75.88261719 8.43013672 75.88261719 8.1875 77.875 C8.03667969 79.15117187 7.88585937 80.42734375 7.73046875 81.7421875 C6.89980282 86.58403703 5.41162154 91.29459488 4 96 C-3.59 96 -11.18 96 -19 96 C-19 88.125 -19 88.125 -18.1875 84.3671875 C-18.00324463 83.49803711 -17.81898926 82.62888672 -17.62915039 81.73339844 C-17.42153076 80.79012695 -17.21391113 79.84685547 -17 78.875 C-16.78142334 77.85438477 -16.56284668 76.83376953 -16.33764648 75.78222656 C-15.56553551 72.18658335 -14.78256862 68.59338108 -14 65 C-13.36455087 62.06018334 -12.73117348 59.11992099 -12.09765625 56.1796875 C-10.73716972 49.87020217 -9.371971 43.5617524 -8.00390625 37.25390625 C-5.3123736 24.8409816 -2.65638523 12.42048547 0 0 Z " fill="#212333" transform="translate(96,66)"/>
<path d="M0 0 C7.92 0 15.84 0 24 0 C23.35197992 6.48020082 22.70379071 12.00851627 20.9375 18.125 C20.75123047 18.7953125 20.56496094 19.465625 20.37304688 20.15625 C19.92269615 21.77289364 19.46245703 23.38677779 19 25 C19.72477539 24.98428955 20.44955078 24.9685791 21.19628906 24.95239258 C24.54744349 24.88921857 27.89847197 24.85075114 31.25 24.8125 C32.38953125 24.78736328 33.5290625 24.76222656 34.703125 24.73632812 C45.31167975 24.64591431 55.02208984 25.65080696 63.4765625 32.5 C65.87304575 34.85961428 66.9521118 36.50315464 67.27661133 39.86987305 C67.25907825 48.424203 66.33830749 56.42867653 64.6875 64.8125 C64.22904967 67.25128009 63.77071615 69.69008215 63.3125 72.12890625 C63.08820313 73.29824707 62.86390625 74.46758789 62.6328125 75.67236328 C61.77355704 80.19074751 60.97577408 84.71880533 60.1875 89.25 C59.795625 91.4775 59.40375 93.705 59 96 C50.42 96 41.84 96 33 96 C34.01026229 88.92816395 35.26779799 81.92827327 36.58398438 74.90991211 C37.00199002 72.67686907 37.41514148 70.44296098 37.828125 68.20898438 C38.0934549 66.78900733 38.35906967 65.36908347 38.625 63.94921875 C38.86476562 62.66362061 39.10453125 61.37802246 39.3515625 60.0534668 C40 57 40 57 41 55 C41.12005453 53.50350638 41.17531451 52.00125207 41.1875 50.5 C41.20167969 49.7059375 41.21585938 48.911875 41.23046875 48.09375 C41.19666303 45.77966683 41.19666303 45.77966683 39 44 C36.47962036 43.62864085 36.47962036 43.62864085 33.5546875 43.5859375 C31.94013672 43.52792969 31.94013672 43.52792969 30.29296875 43.46875 C29.16503906 43.4378125 28.03710938 43.406875 26.875 43.375 C25.17150391 43.31699219 25.17150391 43.31699219 23.43359375 43.2578125 C20.62256044 43.16332399 17.81153767 43.07776459 15 43 C14.81050781 44.67835937 14.81050781 44.67835937 14.6171875 46.390625 C14.01125909 51.22529586 13.09518605 55.97690442 12.125 60.75 C11.94718994 61.63179932 11.76937988 62.51359863 11.58618164 63.42211914 C10.43830944 69.04282368 9.17226269 74.61552682 7.7265625 80.16796875 C6.3790664 85.42030569 5.20662251 90.71384424 4 96 C-3.92 96 -11.84 96 -20 96 C-18.54525009 85.80917381 -16.62238995 75.76486143 -14.54101562 65.6862793 C-13.99615092 63.043833 -13.45874424 60.39994037 -12.921875 57.75585938 C-12.57336037 56.05720057 -12.22441749 54.35862956 -11.875 52.66015625 C-11.71660645 51.87882828 -11.55821289 51.09750031 -11.39501953 50.29249573 C-10.51789192 46.07479931 -9.39960155 42.08161843 -8 38 C-7.49806024 35.22829967 -7.04073824 32.47149386 -6.625 29.6875 C-5.05443048 19.71262468 -3.19886384 9.59659152 0 0 Z " fill="#202332" transform="translate(189,41)"/>
<path d="M0 0 C3.02116333 0.1770436 5.99598232 0.61920903 9 1 C9 3.97 9 6.94 9 10 C11.97 10 14.94 10 18 10 C18.09765625 16.15234375 18.09765625 16.15234375 18 18 C16.03177114 19.96822886 12.65191291 19.66248381 10 20 C9.67 23.3 9.34 26.6 9 30 C-26.31 30 -61.62 30 -98 30 C-97 21 -97 21 -95 19 C-92.31160615 18.73008094 -89.70858064 18.91262643 -87 19 C-87 16.03 -87 13.06 -87 10 C-84.03 10 -81.06 10 -78 10 C-77.90234375 16.93359375 -77.90234375 16.93359375 -78 19 C-79 20 -79 20 -80.84765625 20.09765625 C-82.8984375 20.06510417 -84.94921875 20.03255208 -87 20 C-87 22.64 -87 25.28 -87 28 C-84.36 28 -81.72 28 -79 28 C-78.87625 27.443125 -78.7525 26.88625 -78.625 26.3125 C-77.94023145 23.77885636 -77.00866237 21.42078968 -76 19 C-73.36 19 -70.72 19 -68 19 C-68 16.03 -68 13.06 -68 10 C-64.7 10 -61.4 10 -58 10 C-57.505 13.96 -57.505 13.96 -57 18 C-54.69 18 -52.38 18 -50 18 C-49.855625 16.865625 -49.71125 15.73125 -49.5625 14.5625 C-49 11 -49 11 -48 10 C-44.99668982 9.85806663 -42.00782866 9.95763622 -39 10 C-39 12.97 -39 15.94 -39 19 C-35.04 18.505 -35.04 18.505 -31 18 C-30.67 15.36 -30.34 12.72 -30 10 C-26.7 10 -23.4 10 -20 10 C-20 12.97 -20 15.94 -20 19 C-16.04 18.505 -16.04 18.505 -12 18 C-11.7834375 16.2984375 -11.7834375 16.2984375 -11.5625 14.5625 C-11 11 -11 11 -10 10 C-8.48071962 9.92820036 -6.95832518 9.91607993 -5.4375 9.9375 C-4.61121094 9.94652344 -3.78492188 9.95554688 -2.93359375 9.96484375 C-2.29550781 9.97644531 -1.65742188 9.98804688 -1 10 C-1.01160156 9.36191406 -1.02320313 8.72382813 -1.03515625 8.06640625 C-1.04417969 7.24011719 -1.05320312 6.41382813 -1.0625 5.5625 C-1.07410156 4.73878906 -1.08570313 3.91507813 -1.09765625 3.06640625 C-1 1 -1 1 0 0 Z " fill="#F8F8F8" transform="translate(383,190)"/>
<path d="M0 0 C3.20831391 -0.0292483 6.41659307 -0.04688189 9.625 -0.0625 C10.98044922 -0.07506836 10.98044922 -0.07506836 12.36328125 -0.08789062 C17.02904289 -0.10491895 21.41013285 0.03170577 26 1 C26 1.66 26 2.32 26 3 C26.639375 3.12375 27.27875 3.2475 27.9375 3.375 C28.9584375 3.684375 28.9584375 3.684375 30 4 C32.39030466 8.78060932 31.46825603 15.07359956 30.24609375 20.1015625 C27.74144894 27.54674198 27.74144894 27.54674198 24.859375 29.30859375 C23.93898438 29.65083984 23.93898438 29.65083984 23 30 C23 30.66 23 31.32 23 32 C13.42434188 36.72455379 4.39489594 36.41167905 -6 36 C-5.45548361 27.77852571 -4.12288195 19.87117503 -2.4375 11.8125 C-2.20353516 10.66974609 -1.96957031 9.52699219 -1.72851562 8.34960938 C-1.15766629 5.56526262 -0.58141765 2.78215551 0 0 Z " fill="#8891BB" transform="translate(286,84)"/>
<path d="M0 0 C3.52067351 -0.08782542 7.04106144 -0.14066643 10.5625 -0.1875 C11.55314453 -0.21263672 12.54378906 -0.23777344 13.56445312 -0.26367188 C20.44592632 -0.33225799 25.23628999 0.25018738 30.9140625 4.3984375 C33.22531828 7.80712408 32.4100515 12.07603496 32 16 C30.76499953 22.34996076 28.13329146 27.906094 23 32 C17.00489531 35.34267804 11.82868584 35.36786996 5.0625 35.1875 C4.09248047 35.17396484 3.12246094 35.16042969 2.12304688 35.14648438 C-0.25189129 35.11138677 -2.62564378 35.06222275 -5 35 C-4.55212563 23.1313292 -2.25392716 11.63302086 0 0 Z " fill="#8891B9" transform="translate(116,84)"/>
<path d="M0 0 C3.13620548 1.49682534 5.86071583 3.38631055 8.75 5.3125 C10.0803125 5.8384375 10.0803125 5.8384375 11.4375 6.375 C14.00109588 7.41429563 15.28312519 7.94920169 16.75 10.3125 C16.4375 14 16.4375 14 15.75 17.3125 C17.049375 17.456875 18.34875 17.60125 19.6875 17.75 C23.625 18.1875 23.625 18.1875 24.75 19.3125 C24.8828125 21.125 24.8828125 21.125 24.875 23.3125 C24.87886719 24.3953125 24.87886719 24.3953125 24.8828125 25.5 C24.75 27.3125 24.75 27.3125 23.75 28.3125 C21.07941149 28.45365161 18.42567762 28.35497107 15.75 28.3125 C15.42 31.2825 15.09 34.2525 14.75 37.3125 C6.335 37.8075 6.335 37.8075 -2.25 38.3125 C-2.58 40.6225 -2.91 42.9325 -3.25 45.3125 C-3.58 45.3125 -3.91 45.3125 -4.25 45.3125 C-4.25 42.6725 -4.25 40.0325 -4.25 37.3125 C-7.22 37.3125 -10.19 37.3125 -13.25 37.3125 C-13.25 34.3425 -13.25 31.3725 -13.25 28.3125 C-13.91 27.9825 -14.57 27.6525 -15.25 27.3125 C-11.95 26.9825 -8.65 26.6525 -5.25 26.3125 C-4.92 23.6725 -4.59 21.0325 -4.25 18.3125 C-1.28 17.9825 1.69 17.6525 4.75 17.3125 C4.75 14.3425 4.75 11.3725 4.75 8.3125 C2.11 8.3125 -0.53 8.3125 -3.25 8.3125 C-3.58 6.6625 -3.91 5.0125 -4.25 3.3125 C-3.59 3.3125 -2.93 3.3125 -2.25 3.3125 C-2.25 2.6525 -2.25 1.9925 -2.25 1.3125 C-2.91 0.9825 -3.57 0.6525 -4.25 0.3125 C-2.25 -0.6875 -2.25 -0.6875 0 0 Z " fill="#F2F2F2" transform="translate(61.25,162.6875)"/>
<path d="M0 0 C2.97 0 5.94 0 9 0 C9.495 3.96 9.495 3.96 10 8 C6.1496895 10.56687367 4.41430237 9.83288724 0 9 C-0.23428313 13.7897321 -0.23428313 13.7897321 2 18 C5.56769552 18.73606499 5.56769552 18.73606499 9 19 C9 20.32 9 21.64 9 23 C9.66 23 10.32 23 11 23 C9.5 26 9.5 26 8 29 C7.34 29 6.68 29 6 29 C6 29.99 6 30.98 6 32 C5.34 32 4.68 32 4 32 C3.7525 32.86625 3.505 33.7325 3.25 34.625 C1.93221387 38.18302254 0.19813178 40.9226155 -2 44 C-2.33 42.68 -2.66 41.36 -3 40 C-2.34 40 -1.68 40 -1 40 C-1 39.34 -1 38.68 -1 38 C-3.97 38 -6.94 38 -10 38 C-10 41.3 -10 44.6 -10 48 C-11.65 48 -13.3 48 -15 48 C-15 47.34 -15 46.68 -15 46 C-17.12498069 47.62280307 -17.12498069 47.62280307 -19 50 C-19.33448259 53.167832 -19.33448259 53.167832 -19 56 C-22.21451269 57.60725635 -25.43612536 57.05748185 -29 57 C-29 53.37 -29 49.74 -29 46 C-26.36 46.33 -23.72 46.66 -21 47 C-20.87625 45.88625 -20.7525 44.7725 -20.625 43.625 C-20 40 -20 40 -18 38 C-16.845 37.773125 -15.69 37.54625 -14.5 37.3125 C-13.345 36.879375 -12.19 36.44625 -11 36 C-9.52917453 32.52042471 -9.52917453 32.52042471 -9 29 C-7.03177114 27.03177114 -3.65191291 27.33751619 -1 27 C-1 24.36 -1 21.72 -1 19 C-3.97 19 -6.94 19 -10 19 C-10.29296875 12.9453125 -10.29296875 12.9453125 -10 11 C-6.55549263 8.70366176 -4.06187717 8.45983515 0 8 C0 5.36 0 2.72 0 0 Z " fill="#FBFBFB" transform="translate(29,48)"/>
<path d="M0 0 C9.9 0 19.8 0 30 0 C29.67 2.97 29.34 5.94 29 9 C31.64 9 34.28 9 37 9 C38.125 12.3125 38.125 12.3125 39 16 C38.34 16.99 37.68 17.98 37 19 C35.0546875 19.29296875 35.0546875 19.29296875 32.875 19.1875 C31.59625 19.125625 30.3175 19.06375 29 19 C29 16.03 29 13.06 29 10 C26.03 10 23.06 10 20 10 C19.67 12.97 19.34 15.94 19 19 C16.03 19.33 13.06 19.66 10 20 C9 13.375 9 13.375 9 10 C6.69 10 4.38 10 2 10 C1.01 12.97 0.02 15.94 -1 19 C-4.96 19.495 -4.96 19.495 -9 20 C-9 20.33 -9 20.66 -9 21 C-12.3 21 -15.6 21 -19 21 C-19.33 20.34 -19.66 19.68 -20 19 C-16.7 18.34 -13.4 17.68 -10 17 C-9.67 14.69 -9.34 12.38 -9 10 C-4.545 9.505 -4.545 9.505 0 9 C0 6.03 0 3.06 0 0 Z M5 18 C9 19 9 19 9 19 Z " fill="#F9F9FA" transform="translate(267,0)"/>
<path d="M0 0 C1.258125 -0.020625 2.51625 -0.04125 3.8125 -0.0625 C4.52019531 -0.07410156 5.22789062 -0.08570313 5.95703125 -0.09765625 C8 0 8 0 11 1 C11 2.98 11 4.96 11 7 C13.64 7.33 16.28 7.66 19 8 C19 10.97 19 13.94 19 17 C16.36 17 13.72 17 11 17 C9.5216774 14.04335481 9.93967217 11.25770263 10 8 C7.03 8 4.06 8 1 8 C1 10.97 1 13.94 1 17 C3.97 17 6.94 17 10 17 C10 20.63 10 24.26 10 28 C0.76 28 -8.48 28 -18 28 C-18 18 -18 18 -17 17 C-14.67182036 16.63239269 -12.3381615 16.29758419 -10 16 C-9.67 13.36 -9.34 10.72 -9 8 C-6.03 8 -3.06 8 0 8 C0 5.36 0 2.72 0 0 Z " fill="#F9F9F9" transform="translate(133,192)"/>
<path d="M0 0 C3.3 0 6.6 0 10 0 C10 2.64 10 5.28 10 8 C14.455 8.99 14.455 8.99 19 10 C19.84454356 13.37817425 20.10844919 15.67465243 19 19 C16.36 19 13.72 19 11 19 C10.87625 20.27875 10.7525 21.5575 10.625 22.875 C10.25 26.75 10.25 26.75 8 29 C4.375 29.125 4.375 29.125 1 29 C0.67 30.65 0.34 32.3 0 34 C1.65 34.33 3.3 34.66 5 35 C3.14766813 38.70466374 -1.63389984 39.64329642 -5.3125 41.1875 C-6.18068359 41.56841797 -7.04886719 41.94933594 -7.94335938 42.34179688 C-8.78318359 42.69693359 -9.62300781 43.05207031 -10.48828125 43.41796875 C-11.25696533 43.74563232 -12.02564941 44.0732959 -12.81762695 44.41088867 C-15.28748547 45.07760403 -16.61274252 44.83216464 -19 44 C-18.505 41.03 -18.505 41.03 -18 38 C-15.36 37.67 -12.72 37.34 -10 37 C-9.7834375 35.0509375 -9.7834375 35.0509375 -9.5625 33.0625 C-9.125 29.125 -9.125 29.125 -8 28 C-6.48071962 27.92820036 -4.95832518 27.91607993 -3.4375 27.9375 C-2.61121094 27.94652344 -1.78492187 27.95554687 -0.93359375 27.96484375 C0.02353516 27.98224609 0.02353516 27.98224609 1 28 C1 27.34 1 26.68 1 26 C0.34 26 -0.32 26 -1 26 C-0.01 22.535 -0.01 22.535 1 19 C4.96 18.505 4.96 18.505 9 18 C9 15.69 9 13.38 9 11 C6.36 10.34 3.72 9.68 1 9 C0.67 6.03 0.34 3.06 0 0 Z " fill="#FAFAFB" transform="translate(95,0)"/>
<path d="M0 0 C0 0.66 0 1.32 0 2 C2.475 2.495 2.475 2.495 5 3 C5.625 5.875 5.625 5.875 6 9 C4 11 4 11 2.0546875 11.1953125 C0.03645833 11.13020833 -1.98177083 11.06510417 -4 11 C-4 13.97 -4 16.94 -4 20 C-6.97 20.33 -9.94 20.66 -13 21 C-13.33 23.97 -13.66 26.94 -14 30 C-16.97 30 -19.94 30 -23 30 C-23 27.03 -23 24.06 -23 21 C-20.03 20.67 -17.06 20.34 -14 20 C-14 17.03 -14 14.06 -14 11 C-14.9075 11.226875 -15.815 11.45375 -16.75 11.6875 C-20 12 -20 12 -22.375 10.5625 C-22.91125 10.046875 -23.4475 9.53125 -24 9 C-20.09942725 7.01549808 -16.22787222 5.05848842 -12.1875 3.375 C-3.95604396 -0.17582418 -3.95604396 -0.17582418 0 0 Z " fill="#F9FAFC" transform="translate(348,170)"/>
<path d="M0 0 C3.3 0 6.6 0 10 0 C10 2.97 10 5.94 10 9 C12.31 9 14.62 9 17 9 C18.61949011 11.57213134 19.04408751 12.67669159 18.625 15.75 C18.315625 16.86375 18.315625 16.86375 18 18 C15.36 18 12.72 18 10 18 C10 18.66 10 19.32 10 20 C3.73 20 -2.54 20 -9 20 C-10 12 -10 12 -8 9 C-4.375 8.8125 -4.375 8.8125 -1 9 C-0.67 6.03 -0.34 3.06 0 0 Z " fill="#F5F5F5" transform="translate(38,200)"/>
<path d="M0 0 C2.97 0 5.94 0 9 0 C9 0.66 9 1.32 9 2 C8.34 2 7.68 2 7 2 C7.37125 2.721875 7.7425 3.44375 8.125 4.1875 C9 7 9 7 8.09375 9.15625 C6.65785521 12.88957645 6.54515689 16.34571749 6.375 20.3125 C6.33632813 21.05306641 6.29765625 21.79363281 6.2578125 22.55664062 C6.16418295 24.37071309 6.08103149 26.18532116 6 28 C5.67 28 5.34 28 5 28 C5 25.03 5 22.06 5 19 C4.67 19.33 4.34 19.66 4 20 C4.06446804 22.03074313 4.13267836 24.06193467 4.2578125 26.08984375 C4.17273438 26.72019531 4.08765625 27.35054687 4 28 C1 30 1 30 -2 30 C-2.33 30.66 -2.66 31.32 -3 32 C-3.33 30.68 -3.66 29.36 -4 28 C-3.01 28 -2.02 28 -1 28 C-0.67 25.03 -0.34 22.06 0 19 C-2.97 19 -5.94 19 -9 19 C-9.33 21.64 -9.66 24.28 -10 27 C-13.80504787 28.79682816 -14.70600835 29.07349791 -19 28 C-19 25.03 -19 22.06 -19 19 C-15.7 18.67 -12.4 18.34 -9 18 C-9.226875 17.0925 -9.45375 16.185 -9.6875 15.25 C-10 12 -10 12 -8.5625 9.625 C-8.046875 9.08875 -7.53125 8.5525 -7 8 C-4.69 8.66 -2.38 9.32 0 10 C0 6.7 0 3.4 0 0 Z " fill="#EFF0F0" transform="translate(19,86)"/>
<path d="M0 0 C9.33333333 0 18.66666667 0 28 0 C28.9765625 6.0546875 28.9765625 6.0546875 29 8 C27 10 27 10 24 10.1875 C21 10 21 10 19 9 C19 12.63 19 16.26 19 20 C15.7 20 12.4 20 9 20 C9 16.37 9 12.74 9 9 C7.88625 9.20625 6.7725 9.4125 5.625 9.625 C4.42875 9.74875 3.2325 9.8725 2 10 C0 8 0 8 -0.1953125 6.0546875 C-0.13020833 4.03645833 -0.06510417 2.01822917 0 0 Z " fill="#F8F8F7" transform="translate(258,200)"/>
<path d="M0 0 C20.46 0.33 40.92 0.66 62 1 C62 1.33 62 1.66 62 2 C60.35 2 58.7 2 57 2 C57 4.97 57 7.94 57 11 C54.03 11 51.06 11 48 11 C48 8.03 48 5.06 48 2 C44.7 2 41.4 2 38 2 C38.020625 3.299375 38.04125 4.59875 38.0625 5.9375 C38.08399454 7.29165633 38.07148199 8.64756083 38 10 C37 11 37 11 34.93359375 11.09765625 C31.46679688 11.04882812 31.46679688 11.04882812 28 11 C28 8.03 28 5.06 28 2 C25.03 2 22.06 2 19 2 C19.33 4.97 19.66 7.94 20 11 C16.37 11 12.74 11 9 11 C9 8.03 9 5.06 9 2 C6.03 2 3.06 2 0 2 C0 1.34 0 0.68 0 0 Z " fill="#FAFBFC" transform="translate(172,198)"/>
<path d="M0 0 C0.66 0.66 1.32 1.32 2 2 C1.65481673 4.77260114 0.78179976 7.30713416 0 10 C-2.64 10.66 -5.28 11.32 -8 12 C-8.144375 13.134375 -8.28875 14.26875 -8.4375 15.4375 C-9 19 -9 19 -10 20 C-12.33297433 20.04092937 -14.66705225 20.04241723 -17 20 C-17.66 23.3 -18.32 26.6 -19 30 C-21.97 30 -24.94 30 -28 30 C-28 26.7 -28 23.4 -28 20 C-24.04 19.505 -24.04 19.505 -20 19 C-19.7834375 17.8553125 -19.7834375 17.8553125 -19.5625 16.6875 C-19 14 -19 14 -18 11 C-15.36 10.67 -12.72 10.34 -10 10 C-9.87625 8.88625 -9.7525 7.7725 -9.625 6.625 C-9 3 -9 3 -7 1 C-3.5 0.25 -3.5 0.25 0 0 Z " fill="#FCFCFC" transform="translate(28,18)"/>
<path d="M0 0 C2.05078125 0.03255208 4.1015625 0.06510417 6.15234375 0.09765625 C7.03125 6.25 7.03125 6.25 7.15234375 8.09765625 C5.18411489 10.06588511 1.80425666 9.76014006 -0.84765625 10.09765625 C-1.17765625 11.35578125 -1.50765625 12.61390625 -1.84765625 13.91015625 C-2.82427486 16.60181242 -3.35260497 17.79789147 -5.828125 19.296875 C-8.03515625 20.09765625 -8.03515625 20.09765625 -11.84765625 21.09765625 C-12.17765625 23.73765625 -12.50765625 26.37765625 -12.84765625 29.09765625 C-17.30265625 28.10765625 -17.30265625 28.10765625 -21.84765625 27.09765625 C-21.84765625 24.45765625 -21.84765625 21.81765625 -21.84765625 19.09765625 C-19.796875 18.86979167 -17.74609375 18.64192708 -15.6953125 18.4140625 C-13.83625396 18.27879011 -13.83625396 18.27879011 -12.84765625 17.09765625 C-12.48004894 14.76947661 -12.14524044 12.43581775 -11.84765625 10.09765625 C-10.70296875 9.88109375 -10.70296875 9.88109375 -9.53515625 9.66015625 C-6.76592717 9.13439685 -6.76592717 9.13439685 -3.84765625 8.09765625 C-3.70328125 6.96328125 -3.55890625 5.82890625 -3.41015625 4.66015625 C-2.69684835 0.14253955 -2.69684835 0.14253955 0 0 Z " fill="#EDEDED" transform="translate(21.84765625,66.90234375)"/>
<path d="M0 0 C1.23556641 0.01740234 1.23556641 0.01740234 2.49609375 0.03515625 C3.32238281 0.04417969 4.14867188 0.05320312 5 0.0625 C5.63808594 0.07410156 6.27617188 0.08570312 6.93359375 0.09765625 C6.05859375 4.84765625 6.05859375 4.84765625 4.93359375 7.09765625 C5.59359375 7.09765625 6.25359375 7.09765625 6.93359375 7.09765625 C6.93359375 7.75765625 6.93359375 8.41765625 6.93359375 9.09765625 C2.47859375 9.59265625 2.47859375 9.59265625 -2.06640625 10.09765625 C-2.39640625 13.06765625 -2.72640625 16.03765625 -3.06640625 19.09765625 C-6.03640625 19.09765625 -9.00640625 19.09765625 -12.06640625 19.09765625 C-12.27611184 23.23859323 -12.27611184 23.23859323 -11.06640625 27.09765625 C-14.89629731 28.89995793 -17.84762433 29.29387866 -22.06640625 29.09765625 C-22.06640625 25.79765625 -22.06640625 22.49765625 -22.06640625 19.09765625 C-18.10640625 18.60265625 -18.10640625 18.60265625 -14.06640625 18.09765625 C-13.07640625 15.45765625 -12.08640625 12.81765625 -11.06640625 10.09765625 C-7.60140625 9.60265625 -7.60140625 9.60265625 -4.06640625 9.09765625 C-3.92203125 7.79828125 -3.77765625 6.49890625 -3.62890625 5.16015625 C-3.07168497 0.1451647 -3.07168497 0.1451647 0 0 Z " fill="#EDEDED" transform="translate(89.06640625,18.90234375)"/>
<path d="M0 0 C1.32 0 2.64 0 4 0 C4 2.97 4 5.94 4 9 C-0.455 9.495 -0.455 9.495 -5 10 C-5 12.97 -5 15.94 -5 19 C-8.3 19 -11.6 19 -15 19 C-15 16.36 -15 13.72 -15 11 C-14.34 11 -13.68 11 -13 11 C-13 10.34 -13 9.68 -13 9 C-11.02 9 -9.04 9 -7 9 C-6.67 6.36 -6.34 3.72 -6 1 C-7.32 0.34 -8.64 -0.32 -10 -1 C-6.0440473 -2.3186509 -3.93870119 -1.17470036 0 0 Z " fill="#EDECEE" transform="translate(330,181)"/>
<path d="M0 0 C8.875 0.875 8.875 0.875 10 2 C10.125 5 10.125 5 10 8 C8.06729418 9.93270582 4.61358612 9.62663055 2 10 C0.50256881 11.49743119 0.66797307 12.98824239 0.4375 15.0625 C0.293125 16.361875 0.14875 17.66125 0 19 C-2.97 19 -5.94 19 -9 19 C-9.33 17.35 -9.66 15.7 -10 14 C-9.34 14 -8.68 14 -8 14 C-8 13.34 -8 12.68 -8 12 C-8.78375 12.495 -9.5675 12.99 -10.375 13.5 C-13 15 -13 15 -15 15 C-13.50923566 11.7173068 -11.61379679 9.06922559 -9.375 6.25 C-8.74335938 5.45078125 -8.11171875 4.6515625 -7.4609375 3.828125 C-6.97882813 3.22484375 -6.49671875 2.6215625 -6 2 C-5.67 2.99 -5.34 3.98 -5 5 C-6.4375 7.6875 -6.4375 7.6875 -8 10 C-5.36 9.67 -2.72 9.34 0 9 C0 6.03 0 3.06 0 0 Z " fill="#EDECEC" transform="translate(391,133)"/>
<path d="M0 0 C2.97 0 5.94 0 9 0 C9 2.97 9 5.94 9 9 C6.36 9.33 3.72 9.66 1 10 C-0.08352852 12.97996356 -0.08352852 12.97996356 -0.5 16.125 C-1 19 -1 19 -2 20 C-4.67058851 20.14115161 -7.32432238 20.04247107 -10 20 C-10 16.37 -10 12.74 -10 9 C-8.700625 9.020625 -7.40125 9.04125 -6.0625 9.0625 C-4.70834367 9.08399454 -3.35243917 9.07148199 -2 9 C-0.50256881 7.50256881 -0.66797307 6.01175761 -0.4375 3.9375 C-0.293125 2.638125 -0.14875 1.33875 0 0 Z " fill="#EDEDED" transform="translate(287,200)"/>
<path d="M0 0 C2.97 0 5.94 0 9 0 C9 2.97 9 5.94 9 9 C6.03 9 3.06 9 0 9 C-0.12375 10.464375 -0.2475 11.92875 -0.375 13.4375 C-0.5859375 15.93359375 -0.5859375 15.93359375 -1 18 C-3.76250036 19.38125018 -5.94731099 19.19079306 -9 19 C-9.66 18.34 -10.32 17.68 -11 17 C-10.625 13.375 -10.625 13.375 -10 10 C-6.92677456 9.08941469 -4.19902639 8.91113816 -1 9 C-1.020625 7.88625 -1.04125 6.7725 -1.0625 5.625 C-1 2 -1 2 0 0 Z " fill="#FCFCFC" transform="translate(411,143)"/>
<path d="M0 0 C1.47968324 0.14049518 2.95874516 0.28754826 4.4375 0.4375 C5.67306641 0.55931641 5.67306641 0.55931641 6.93359375 0.68359375 C9 1 9 1 10 2 C10.125 5.5 10.125 5.5 10 9 C9 10 9 10 6.93359375 10.09765625 C6.10988281 10.08605469 5.28617187 10.07445312 4.4375 10.0625 C3.61121094 10.05347656 2.78492188 10.04445312 1.93359375 10.03515625 C1.29550781 10.02355469 0.65742188 10.01195312 0 10 C0.33 10.66 0.66 11.32 1 12 C1.125 15.5625 1.125 15.5625 1 19 C0 20 0 20 -1.84765625 20.09765625 C-3.8984375 20.06510417 -5.94921875 20.03255208 -8 20 C-6.41795536 12.99380232 -3.33431145 6.33519176 0 0 Z " fill="#FBFAFB" transform="translate(391,123)"/>
<path d="M0 0 C1.54003891 3.9685618 0.41138009 6.89432767 -0.75 10.875 C-1.12898382 12.21799612 -1.50522479 13.56176888 -1.87890625 14.90625 C-2.16338623 15.9271875 -2.16338623 15.9271875 -2.45361328 16.96875 C-4.33287845 23.95511558 -5.89463111 31.04162195 -6.5625 38.25 C-7 42 -7 42 -9 44 C-9.99 43.67 -10.98 43.34 -12 43 C-10.6177327 33.69853367 -9.04769867 24.44083015 -7.375 15.1875 C-7.14554688 13.91068359 -6.91609375 12.63386719 -6.6796875 11.31835938 C-6.12123663 8.21197638 -5.56132032 5.10586553 -5 2 C-4.01 1.67 -3.02 1.34 -2 1 C-2 1.66 -2 2.32 -2 3 C-1.34 3 -0.68 3 0 3 C0 2.01 0 1.02 0 0 Z " fill="#9196B8" transform="translate(260,90)"/>
<path d="M0 0 C1.670625 0.061875 1.670625 0.061875 3.375 0.125 C4.8533226 3.08164519 4.43532783 5.86729737 4.375 9.125 C1.405 10.115 -1.565 11.105 -4.625 12.125 C-4.955 14.435 -5.285 16.745 -5.625 19.125 C-8.595 19.125 -11.565 19.125 -14.625 19.125 C-15.69849791 14.83100835 -15.42182816 13.93004787 -13.625 10.125 C-10.16 9.63 -10.16 9.63 -6.625 9.125 C-6.50125 8.01125 -6.3775 6.8975 -6.25 5.75 C-5.4132421 0.89680417 -4.96929529 0.17135501 0 0 Z " fill="#FBFBFB" transform="translate(43.625,151.875)"/>
<path d="M0 0 C2.64 0 5.28 0 8 0 C8 2.97 8 5.94 8 9 C5.69 9.33 3.38 9.66 1 10 C-0.23921302 12.97411124 -1.30058404 15.85262818 -2 19 C-4.64 19 -7.28 19 -10 19 C-11.38125018 16.23749964 -11.19079306 14.05268901 -11 11 C-9 9 -9 9 -5.375 8.875 C-3.704375 8.936875 -3.704375 8.936875 -2 9 C-1.34 6.03 -0.68 3.06 0 0 Z " fill="#EDEDED" transform="translate(87,0)"/>
<path d="M0 0 C3.3 0 6.6 0 10 0 C10 2.97 10 5.94 10 9 C5.545 9.495 5.545 9.495 1 10 C0.855625 11.134375 0.71125 12.26875 0.5625 13.4375 C0 17 0 17 -1 18 C-4.5 18.125 -4.5 18.125 -8 18 C-9 17 -9 17 -9.09765625 15.15234375 C-9.06510417 13.1015625 -9.03255208 11.05078125 -9 9 C-6.03 9 -3.06 9 0 9 C0 6.03 0 3.06 0 0 Z " fill="#EDEDED" transform="translate(334,191)"/>
<path d="M0 0 C3.46679688 0.04882812 3.46679688 0.04882812 6.93359375 0.09765625 C6.93359375 3.06765625 6.93359375 6.03765625 6.93359375 9.09765625 C5.81984375 9.22140625 4.70609375 9.34515625 3.55859375 9.47265625 C-0.09744302 9.74423755 -0.09744302 9.74423755 -2.06640625 12.09765625 C-2.78048959 14.08122108 -3.45258367 16.08081062 -4.06640625 18.09765625 C-5.71640625 18.42765625 -7.36640625 18.75765625 -9.06640625 19.09765625 C-9.06640625 19.75765625 -9.06640625 20.41765625 -9.06640625 21.09765625 C-11.06640625 20.09765625 -11.06640625 20.09765625 -12.25390625 16.72265625 C-13.06640625 13.09765625 -13.06640625 13.09765625 -12.06640625 10.09765625 C-9.09640625 10.09765625 -6.12640625 10.09765625 -3.06640625 10.09765625 C-3.08703125 8.63328125 -3.10765625 7.16890625 -3.12890625 5.66015625 C-3.15032632 4.13933107 -3.13820589 2.61693663 -3.06640625 1.09765625 C-2.06640625 0.09765625 -2.06640625 0.09765625 0 0 Z " fill="#ECEDEC" transform="translate(337.06640625,18.90234375)"/>
<path d="M0 0 C-0.66 2.97 -1.32 5.94 -2 9 C-4.64 9.33 -7.28 9.66 -10 10 C-10.12375 11.11375 -10.2475 12.2275 -10.375 13.375 C-11 17 -11 17 -13 19 C-16.625 19.125 -16.625 19.125 -20 19 C-20 16.03 -20 13.06 -20 10 C-17.36 9.67 -14.72 9.34 -12 9 C-12 6.03 -12 3.06 -12 0 C-10.37585622 -0.19477739 -8.75063577 -0.38059458 -7.125 -0.5625 C-6.22007812 -0.66691406 -5.31515625 -0.77132812 -4.3828125 -0.87890625 C-2 -1 -2 -1 0 0 Z " fill="#EDEDED" transform="translate(412,143)"/>
<path d="M0 0 C3.46679688 0.04882812 3.46679688 0.04882812 6.93359375 0.09765625 C6.60359375 3.06765625 6.27359375 6.03765625 5.93359375 9.09765625 C3.29359375 9.42765625 0.65359375 9.75765625 -2.06640625 10.09765625 C-2.21078125 11.23203125 -2.35515625 12.36640625 -2.50390625 13.53515625 C-3.06640625 17.09765625 -3.06640625 17.09765625 -4.06640625 18.09765625 C-6.73699476 18.23880786 -9.39072863 18.14012732 -12.06640625 18.09765625 C-12.06640625 15.12765625 -12.06640625 12.15765625 -12.06640625 9.09765625 C-9.09640625 9.09765625 -6.12640625 9.09765625 -3.06640625 9.09765625 C-3.08703125 7.79828125 -3.10765625 6.49890625 -3.12890625 5.16015625 C-3.15040079 3.80599992 -3.13788824 2.45009542 -3.06640625 1.09765625 C-2.06640625 0.09765625 -2.06640625 0.09765625 0 0 Z " fill="#ECECEC" transform="translate(89.06640625,190.90234375)"/>
<path d="M0 0 C1.27875 0.103125 2.5575 0.20625 3.875 0.3125 C4.95394531 0.39951172 4.95394531 0.39951172 6.0546875 0.48828125 C8 1 8 1 10 4 C9.67 4.99 9.34 5.98 9 7 C11.97 7 14.94 7 18 7 C18.125 10.375 18.125 10.375 18 14 C16 16 16 16 12.875 16.125 C11.451875 16.063125 11.451875 16.063125 10 16 C8 9.25 8 9.25 8 7 C5.36 7 2.72 7 0 7 C-1.125 2.25 -1.125 2.25 0 0 Z " fill="#EDEDEC" transform="translate(144,193)"/>
<path d="M0 0 C2.03833424 1.2739589 4.03852126 2.61061923 6 4 C6 4.66 6 5.32 6 6 C8.475 6.99 8.475 6.99 11 8 C10.67 8.66 10.34 9.32 10 10 C7.03 10 4.06 10 1 10 C1 12.97 1 15.94 1 19 C-1.97 19 -4.94 19 -8 19 C-8 16.36 -8 13.72 -8 11 C-1.25 9 -1.25 9 1 9 C0.67 6.03 0.34 3.06 0 0 Z " fill="#EDECEE" transform="translate(47,152)"/>
<path d="M0 0 C4.875 2.625 4.875 2.625 6 6 C2.25 9 2.25 9 0 9 C-0.33 11.64 -0.66 14.28 -1 17 C-3.97 17 -6.94 17 -10 17 C-10.09765625 10.84765625 -10.09765625 10.84765625 -10 9 C-8.03177114 7.03177114 -4.65191291 7.33751619 -2 7 C-1.34 4.69 -0.68 2.38 0 0 Z " fill="#ECECEC" transform="translate(30,135)"/>
<path d="M0 0 C4.49406959 0.71213718 8.92859613 1.59771425 13.375 2.5625 C14.62023437 2.83191406 15.86546875 3.10132813 17.1484375 3.37890625 C18.08945313 3.58386719 19.03046875 3.78882813 20 4 C19.01 4.33 18.02 4.66 17 5 C17 7.64 17 10.28 17 13 C14.03 13 11.06 13 8 13 C8 10.03 8 7.06 8 4 C5.03 3.67 2.06 3.34 -1 3 C-0.67 2.01 -0.34 1.02 0 0 Z " fill="#ECECF0" transform="translate(116,187)"/>
<path d="M0 0 C-0.66 0.66 -1.32 1.32 -2 2 C-1.505 2.99 -1.505 2.99 -1 4 C-5.62 4 -10.24 4 -15 4 C-15 6.97 -15 9.94 -15 13 C-15.33 13 -15.66 13 -16 13 C-16 10.03 -16 7.06 -16 4 C-34.48 3.67 -52.96 3.34 -72 3 C-72 2.67 -72 2.34 -72 2 C-71.24689041 1.98969254 -70.49378082 1.97938507 -69.71784973 1.96876526 C-62.61143499 1.87068131 -55.50510143 1.76815164 -48.39882374 1.66066074 C-44.74564852 1.60555809 -41.09246512 1.55215885 -37.43920898 1.50268555 C-33.91190059 1.45485462 -30.38468524 1.40250602 -26.85748863 1.34705925 C-24.86066974 1.31683966 -22.86378226 1.29126716 -20.86689758 1.26576233 C-19.03556526 1.2358445 -19.03556526 1.2358445 -17.16723633 1.20532227 C-15.55840324 1.18200584 -15.55840324 1.18200584 -13.91706848 1.15821838 C-9.17118088 0.90080699 -4.80076926 -0.1116458 0 0 Z " fill="#DBDCEB" transform="translate(254,196)"/>
<path d="M0 0 C0.66 0 1.32 0 2 0 C3.5625 2.8125 3.5625 2.8125 5 6 C4.67 6.99 4.34 7.98 4 9 C3.34 8.01 2.68 7.02 2 6 C1.34 8.31 0.68 10.62 0 13 C-6.15234375 13.09765625 -6.15234375 13.09765625 -8 13 C-9 12 -9 12 -9.09765625 10.15234375 C-9.06510417 8.1015625 -9.03255208 6.05078125 -9 4 C-3.25 2.875 -3.25 2.875 -1 4 C-0.67 2.68 -0.34 1.36 0 0 Z " fill="#FCFBFD" transform="translate(28,130)"/>
<path d="M0 0 C7.07780426 1.80709896 13.49411092 4.71034051 20 8 C19.67 8.33 19.34 8.66 19 9 C18.95936168 10.66617115 18.957279 12.33388095 19 14 C16.03 14 13.06 14 10 14 C9.67 11.36 9.34 8.72 9 6 C6.03 5.67 3.06 5.34 0 5 C0 3.35 0 1.7 0 0 Z " fill="#EBEBED" transform="translate(86,176)"/>
<path d="M0 0 C3.3 0.33 6.6 0.66 10 1 C10 3.97 10 6.94 10 10 C6.26513121 10.5745952 2.78706732 11 -1 11 C-0.67 7.37 -0.34 3.74 0 0 Z " fill="#FBFBFB" transform="translate(410,104)"/>
<path d="M0 0 C3.63 0 7.26 0 11 0 C10.67 2.97 10.34 5.94 10 9 C6.66203244 9.83449189 3.39305036 10.46019653 0 11 C-1.73360665 7.53278671 -0.48361845 3.76147685 0 0 Z " fill="#FBFBFB" transform="translate(76,0)"/>
<path d="M0 0 C3.46679688 0.04882812 3.46679688 0.04882812 6.93359375 0.09765625 C6.93359375 3.39765625 6.93359375 6.69765625 6.93359375 10.09765625 C3.96359375 10.09765625 0.99359375 10.09765625 -2.06640625 10.09765625 C-2.9453125 3.1640625 -2.9453125 3.1640625 -3.06640625 1.09765625 C-2.06640625 0.09765625 -2.06640625 0.09765625 0 0 Z " fill="#EEEEEE" transform="translate(337.06640625,209.90234375)"/>
<path d="M0 0 C6.14826332 -0.05037654 12.29640008 -0.08616811 18.44482422 -0.10986328 C20.52557473 -0.11976705 22.60631195 -0.13329366 24.68701172 -0.15087891 C39.25018311 -0.27065342 53.52122675 0.41468067 68 2 C68 2.33 68 2.66 68 3 C59.64947979 5.5013079 52.47849799 4.58819127 44 3 C44 2.67 44 2.34 44 2 C22.22 1.505 22.22 1.505 0 1 C0 0.67 0 0.34 0 0 Z " fill="#A0A1BC" transform="translate(183,19)"/>
<path d="M0 0 C2.64 0 5.28 0 8 0 C8.144375 0.9075 8.28875 1.815 8.4375 2.75 C8.85910468 5.18593814 9.4004146 7.60165839 10 10 C6.37 10 2.74 10 -1 10 C-1.125 2.25 -1.125 2.25 0 0 Z " fill="#FCFCFC" transform="translate(192,210)"/>
<path d="M0 0 C0.09765625 6.15234375 0.09765625 6.15234375 0 8 C-1.96966902 9.96966902 -5.35587537 9.68088151 -8 10 C-8.99 10 -9.98 10 -11 10 C-10.67 6.7 -10.34 3.4 -10 0 C-5.99998285 -1.00000429 -3.94476647 -0.80688405 0 0 Z " fill="#FBFBFB" transform="translate(382,48)"/>
<path d="M0 0 C5.94 0 11.88 0 18 0 C18 0.33 18 0.66 18 1 C10.08 1.495 10.08 1.495 2 2 C1.814375 4.5678125 1.814375 4.5678125 1.625 7.1875 C1.22086796 11.84332254 0.77163655 16.48809308 0.1875 21.125 C0.05730469 22.20007813 -0.07289063 23.27515625 -0.20703125 24.3828125 C-1 27 -1 27 -3.04956055 28.16357422 C-3.69320557 28.43959473 -4.33685059 28.71561523 -5 29 C-4.35963063 22.37386221 -3.29028836 15.95287291 -1.9375 9.4375 C-1.75123047 8.52419922 -1.56496094 7.61089844 -1.37304688 6.66992188 C-0.91892412 4.4458848 -0.45997067 2.22283499 0 0 Z " fill="#858CAC" transform="translate(286,84)"/>
<path d="M0 0 C0.66 0.33 1.32 0.66 2 1 C2 1.66 2 2.32 2 3 C4.31 3.33 6.62 3.66 9 4 C8.125 11.875 8.125 11.875 7 13 C4.30917128 12.82364548 1.67148554 12.38164079 -1 12 C-1 9.36 -1 6.72 -1 4 C-1.66 3.67 -2.32 3.34 -3 3 C-2.01 2.01 -1.02 1.02 0 0 Z " fill="#EBEBEB" transform="translate(373,149)"/>
<path d="M0 0 C6.15234375 -0.09765625 6.15234375 -0.09765625 8 0 C9 1 9 1 9.09765625 3.06640625 C9.06510417 5.37760417 9.03255208 7.68880208 9 10 C5.7 10 2.4 10 -1 10 C-0.67 6.7 -0.34 3.4 0 0 Z " fill="#FCFCFC" transform="translate(96,210)"/>
<path d="M0 0 C2.97 0.33 5.94 0.66 9 1 C9 3.97 9 6.94 9 10 C5.7 10 2.4 10 -1 10 C-1.125 2.25 -1.125 2.25 0 0 Z " fill="#FCFCFC" transform="translate(39,190)"/>
<path d="M0 0 C0.99 0.33 1.98 0.66 3 1 C4.125 8.75 4.125 8.75 3 11 C0.03 11 -2.94 11 -6 11 C-6 8.36 -6 5.72 -6 3 C-5.195625 2.690625 -4.39125 2.38125 -3.5625 2.0625 C-1.10919595 1.23664655 -1.10919595 1.23664655 0 0 Z " fill="#FAFAFB" transform="translate(35,141)"/>
<path d="M0 0 C2.97 0 5.94 0 9 0 C9.9765625 6.0546875 9.9765625 6.0546875 10 8 C8 10 8 10 6.0546875 10.1953125 C4.03645833 10.13020833 2.01822917 10.06510417 0 10 C0 6.7 0 3.4 0 0 Z " fill="#FCFCFC" transform="translate(0,76)"/>
<path d="M0 0 C1.73360665 3.46721329 0.48361845 7.23852315 0 11 C-2.97 11 -5.94 11 -9 11 C-9 8.03 -9 5.06 -9 2 C-6.03 1.34 -3.06 0.68 0 0 Z " fill="#FCFCFC" transform="translate(334,189)"/>
<path d="M0 0 C1.32 0 2.64 0 4 0 C4 0.66 4 1.32 4 2 C5.65 2.33 7.3 2.66 9 3 C9.625 5.875 9.625 5.875 10 9 C8 11 8 11 6.0546875 11.1953125 C4.03645833 11.13020833 2.01822917 11.06510417 0 11 C-0.19406478 9.35492782 -0.38007935 7.70890406 -0.5625 6.0625 C-0.66691406 5.14597656 -0.77132813 4.22945312 -0.87890625 3.28515625 C-0.91886719 2.53105469 -0.95882813 1.77695313 -1 1 C-0.67 0.67 -0.34 0.34 0 0 Z " fill="#FBFBFB" transform="translate(344,170)"/>
<path d="M0 0 C-0.08729843 5.32520406 -0.08729843 5.32520406 -1 8 C-4.53314591 10.09371609 -6.89506993 11 -11 11 C-11 11.99 -11 12.98 -11 14 C-11.66 14 -12.32 14 -13 14 C-12.67 13.319375 -12.34 12.63875 -12 11.9375 C-10.82893038 8.497483 -10.93057541 5.61007844 -11 2 C-8.73495985 -0.26504015 -3.2241964 0 0 0 Z " fill="#ECECEC" transform="translate(402,76)"/>
<path d="M0 0 C0 3.86695678 -1.41909971 6.5088452 -3 10 C-2.01 10.66 -1.02 11.32 0 12 C-1.58226965 12.19627391 -3.16589271 12.38165538 -4.75 12.5625 C-5.63171875 12.66691406 -6.5134375 12.77132813 -7.421875 12.87890625 C-9.88432451 12.99456676 -11.66538064 12.73638695 -14 12 C-14 11.34 -14 10.68 -14 10 C-13.01 10 -12.02 10 -11 10 C-11.020625 9.195625 -11.04125 8.39125 -11.0625 7.5625 C-11 5 -11 5 -10 4 C-8.88625 3.87625 -7.7725 3.7525 -6.625 3.625 C-3.09792496 3.01688361 -2.05637612 2.78215593 0 0 Z " fill="#EBEDEE" transform="translate(136,15)"/>
<path d="M0 0 C3.3 0 6.6 0 10 0 C10 2.97 10 5.94 10 9 C3.06640625 9.09765625 3.06640625 9.09765625 1 9 C0 8 0 8 -0.09765625 6.15234375 C-0.06510417 4.1015625 -0.03255208 2.05078125 0 0 Z " fill="#EEEEEE" transform="translate(334,0)"/>
<path d="M0 0 C6.75 -0.125 6.75 -0.125 9 1 C9 3.97 9 6.94 9 10 C6.03 10 3.06 10 0 10 C0 6.7 0 3.4 0 0 Z " fill="#FCFBFD" transform="translate(287,190)"/>
<path d="M0 0 C0.66 0.66 1.32 1.32 2 2 C1.7578125 4.1640625 1.7578125 4.1640625 1.125 6.625 C0.92132813 7.44226563 0.71765625 8.25953125 0.5078125 9.1015625 C0.25644531 10.04128906 0.25644531 10.04128906 0 11 C-2.97 11 -5.94 11 -9 11 C-9 8.03 -9 5.06 -9 2 C-6.94921875 1.77213542 -4.8984375 1.54427083 -2.84765625 1.31640625 C-0.98859771 1.18113386 -0.98859771 1.18113386 0 0 Z " fill="#EDEDED" transform="translate(57,189)"/>
<path d="M0 0 C2.01822917 0.06510417 4.03645833 0.13020833 6.0546875 0.1953125 C6.0546875 3.1653125 6.0546875 6.1353125 6.0546875 9.1953125 C2.67651325 10.03985606 0.38003507 10.30376169 -2.9453125 9.1953125 C-3.5703125 5.8203125 -3.5703125 5.8203125 -3.9453125 2.1953125 C-1.9453125 0.1953125 -1.9453125 0.1953125 0 0 Z " fill="#EEEEEE" transform="translate(413.9453125,18.8046875)"/>
<path d="M0 0 C2.64 0 5.28 0 8 0 C8.87890625 6.15234375 8.87890625 6.15234375 9 8 C7.41727399 9.58272601 5.61965997 9.34735747 3.4375 9.5625 C2.61121094 9.64628906 1.78492188 9.73007813 0.93359375 9.81640625 C0.29550781 9.87699219 -0.34257812 9.93757812 -1 10 C-1.33 11.32 -1.66 12.64 -2 14 C-1.85923685 12.0412957 -1.7122324 10.08303907 -1.5625 8.125 C-1.48128906 7.03445312 -1.40007812 5.94390625 -1.31640625 4.8203125 C-1 2 -1 2 0 0 Z " fill="#EEEEEE" transform="translate(373,0)"/>
<path d="M0 0 C1.23556641 0.01740234 1.23556641 0.01740234 2.49609375 0.03515625 C3.32238281 0.04417969 4.14867187 0.05320313 5 0.0625 C5.63808594 0.07410156 6.27617187 0.08570313 6.93359375 0.09765625 C7.03125 6.25 7.03125 6.25 6.93359375 8.09765625 C5.93359375 9.09765625 5.93359375 9.09765625 4.12109375 9.23046875 C3.39921875 9.22789063 2.67734375 9.2253125 1.93359375 9.22265625 C1.21171875 9.22523437 0.48984375 9.2278125 -0.25390625 9.23046875 C-2.06640625 9.09765625 -2.06640625 9.09765625 -3.06640625 8.09765625 C-3.19140625 4.59765625 -3.19140625 4.59765625 -3.06640625 1.09765625 C-2.06640625 0.09765625 -2.06640625 0.09765625 0 0 Z " fill="#FCFCFC" transform="translate(308.06640625,-0.09765625)"/>
<path d="M0 0 C3.3 0 6.6 0 10 0 C10 2.97 10 5.94 10 9 C7.03 9 4.06 9 1 9 C0.67 6.03 0.34 3.06 0 0 Z " fill="#ECECEC" transform="translate(38,200)"/>
<path d="M0 0 C2.97 0.33 5.94 0.66 9 1 C9.09765625 7.15234375 9.09765625 7.15234375 9 9 C8 10 8 10 6.15234375 10.09765625 C4.1015625 10.06510417 2.05078125 10.03255208 0 10 C0 6.7 0 3.4 0 0 Z " fill="#FDFDFD" transform="translate(0,133)"/>
<path d="M0 0 C2.69082872 0.17635452 5.32851446 0.61835921 8 1 C8 3.97 8 6.94 8 10 C2.375 11.125 2.375 11.125 -1 10 C-1.02689216 8.52093108 -1.04634621 7.04172517 -1.0625 5.5625 C-1.07410156 4.73878906 -1.08570313 3.91507812 -1.09765625 3.06640625 C-1 1 -1 1 0 0 Z " fill="#EDEDED" transform="translate(402,104)"/>
<path d="M0 0 C1 1 1 1 1.125 3.9375 C1 7 1 7 0 9 C-6.0546875 9.1953125 -6.0546875 9.1953125 -8 9 C-8.66 8.34 -9.32 7.68 -10 7 C-9.625 3.875 -9.625 3.875 -9 1 C-5.78419562 -0.07193479 -3.36629251 -0.14636054 0 0 Z " fill="#FAFBFA" transform="translate(400,86)"/>
<path d="M0 0 C2.33944736 0.28730055 4.6739143 0.61936779 7 1 C7 3.97 7 6.94 7 10 C4.03 10 1.06 10 -2 10 C-3.26066301 6.21801096 -2.42292658 4.63636792 -1 1 C-0.67 0.67 -0.34 0.34 0 0 Z " fill="#FCFCFC" transform="translate(413,9)"/>
<path d="M0 0 C2.97 0 5.94 0 9 0 C9.29296875 6.0546875 9.29296875 6.0546875 9 8 C5.55549263 10.29633824 3.06187717 10.54016485 -1 11 C-0.67 7.37 -0.34 3.74 0 0 Z " fill="#FCFCFC" transform="translate(134,0)"/>
<path d="M0 0 C3.3 0 6.6 0 10 0 C10.09765625 6.15234375 10.09765625 6.15234375 10 8 C9 9 9 9 7.15234375 9.09765625 C5.1015625 9.06510417 3.05078125 9.03255208 1 9 C0.67 6.03 0.34 3.06 0 0 Z " fill="#FCFCFC" transform="translate(57,0)"/>
<path d="M0 0 C2.97 0 5.94 0 9 0 C9.09765625 6.15234375 9.09765625 6.15234375 9 8 C7.03033098 9.96966902 3.64412463 9.68088151 1 10 C0.01 10 -0.98 10 -2 10 C-1.34 6.7 -0.68 3.4 0 0 Z " fill="#ECECEC" transform="translate(115,200)"/>
<path d="M0 0 C2.64 0.33 5.28 0.66 8 1 C8 3.97 8 6.94 8 10 C5.03 10 2.06 10 -1 10 C-1.125 2.25 -1.125 2.25 0 0 Z " fill="#FCFCFC" transform="translate(116,190)"/>
<path d="M0 0 C0.9765625 6.0546875 0.9765625 6.0546875 1 8 C-1 10 -1 10 -2.9453125 10.1953125 C-4.96354167 10.13020833 -6.98177083 10.06510417 -9 10 C-9 7.03 -9 4.06 -9 1 C-5.8035914 -0.06546953 -3.34252724 -0.07427838 0 0 Z " fill="#FCFCFC" transform="translate(9,152)"/>
<path d="M0 0 C1.32 0.33 2.64 0.66 4 1 C4 1.99 4 2.98 4 4 C4.99 3.34 5.98 2.68 7 2 C6.75006984 5.37405722 5.76721161 6.2222071 3.25 8.625 C-0.79889407 11.9706651 -4.85742949 13.25941804 -10.08203125 13.1953125 C-11.47905273 13.18564453 -11.47905273 13.18564453 -12.90429688 13.17578125 C-13.86400391 13.15902344 -14.82371094 13.14226562 -15.8125 13.125 C-16.79154297 13.11597656 -17.77058594 13.10695313 -18.77929688 13.09765625 C-21.18645061 13.07417182 -23.59309743 13.0413284 -26 13 C-26 12.34 -26 11.68 -26 11 C-25.39003174 10.98018066 -24.78006348 10.96036133 -24.15161133 10.93994141 C-21.37149467 10.84432124 -18.59209154 10.73479295 -15.8125 10.625 C-14.37293945 10.57859375 -14.37293945 10.57859375 -12.90429688 10.53125 C-11.97294922 10.49257812 -11.04160156 10.45390625 -10.08203125 10.4140625 C-8.80162964 10.36693115 -8.80162964 10.36693115 -7.49536133 10.31884766 C-4.73785578 9.96650422 -2.53000031 9.12928753 0 8 C0 5.36 0 2.72 0 0 Z " fill="#959AC0" transform="translate(137,106)"/>
<path d="M0 0 C0.66 0.33 1.32 0.66 2 1 C2 4.3 2 7.6 2 11 C-0.97 11 -3.94 11 -7 11 C-7.12375 10.195625 -7.2475 9.39125 -7.375 8.5625 C-7.684375 7.2940625 -7.684375 7.2940625 -8 6 C-8.66 5.67 -9.32 5.34 -10 5 C-8.27473958 4.28385417 -6.54947917 3.56770833 -4.82421875 2.8515625 C-2.73466068 1.93193308 -2.73466068 1.93193308 0 0 Z " fill="#EBEDEF" transform="translate(342,170)"/>
<path d="M0 0 C2.97 0 5.94 0 9 0 C9.25 6.625 9.25 6.625 7 10 C4.69 9.67 2.38 9.34 0 9 C0 6.03 0 3.06 0 0 Z " fill="#EEEEEE" transform="translate(411,152)"/>
<path d="M0 0 C2.64 0 5.28 0 8 0 C8.88935377 3.303314 9.46274105 6.62294375 10 10 C6.7 9.67 3.4 9.34 0 9 C0 6.03 0 3.06 0 0 Z " fill="#FBFCFA" transform="translate(48,48)"/>
<path d="M0 0 C2.97 0 5.94 0 9 0 C9 2.64 9 5.28 9 8 C5.7 8.66 2.4 9.32 -1 10 C-0.67 6.7 -0.34 3.4 0 0 Z " fill="#EDEDED" transform="translate(20,48)"/>
<path d="M0 0 C2.97 0 5.94 0 9 0 C9.09765625 6.15234375 9.09765625 6.15234375 9 8 C8 9 8 9 5.93359375 9.09765625 C2.46679688 9.04882812 2.46679688 9.04882812 -1 9 C-0.67 6.03 -0.34 3.06 0 0 Z " fill="#EDEDED" transform="translate(201,0)"/>
<path d="M0 0 C1.1577506 3.47325181 1.06866652 6.36067448 1 10 C-1.97 10 -4.94 10 -8 10 C-8 7.03 -8 4.06 -8 1 C-5.23735711 0.40267181 -2.83967231 0 0 0 Z " fill="#EDEDEC" transform="translate(114,190)"/>
<path d="M0 0 C2.97 0 5.94 0 9 0 C9 2.97 9 5.94 9 9 C5.93109813 10.53445094 3.29905734 9.54984289 0 9 C0 6.03 0 3.06 0 0 Z " fill="#FDFDFD" transform="translate(325,0)"/>
<path d="M0 0 C2.97 0 5.94 0 9 0 C9 2.97 9 5.94 9 9 C6.03 9 3.06 9 0 9 C0 6.03 0 3.06 0 0 Z " fill="#EBECEB" transform="translate(248,200)"/>
<path d="M0 0 C0.09765625 6.15234375 0.09765625 6.15234375 0 8 C-1 9 -1 9 -2.84765625 9.09765625 C-4.8984375 9.06510417 -6.94921875 9.03255208 -9 9 C-9 6.03 -9 3.06 -9 0 C-5.62182575 -0.84454356 -3.32534757 -1.10844919 0 0 Z " fill="#ECECEC" transform="translate(143,200)"/>
<path d="M0 0 C0 3.3 0 6.6 0 10 C-2.97 10 -5.94 10 -9 10 C-9.09765625 3.84765625 -9.09765625 3.84765625 -9 2 C-6.98634914 -0.01365086 -2.76905449 0 0 0 Z " fill="#EDEDED" transform="translate(420,190)"/>
<path d="M0 0 C2.97 0 5.94 0 9 0 C9 2.97 9 5.94 9 9 C6.03 9 3.06 9 0 9 C0 6.03 0 3.06 0 0 Z " fill="#ECECEC" transform="translate(29,191)"/>
<path d="M0 0 C2.64 0 5.28 0 8 0 C9.36623674 2.73247348 9.128426 4.98198902 9 8 C8 9 8 9 6.15234375 9.09765625 C4.1015625 9.06510417 2.05078125 9.03255208 0 9 C-0.84454356 5.62182575 -1.10844919 3.32534757 0 0 Z " fill="#FCFCFC" transform="translate(392,67)"/>
<path d="M0 0 C2.97 0 5.94 0 9 0 C9 2.97 9 5.94 9 9 C6.03 9 3.06 9 0 9 C0 6.03 0 3.06 0 0 Z " fill="#FCFCFC" transform="translate(411,48)"/>
<path d="M0 0 C2.69082872 0.17635452 5.32851446 0.61835921 8 1 C8.09765625 7.15234375 8.09765625 7.15234375 8 9 C7 10 7 10 5.15234375 10.09765625 C3.1015625 10.06510417 1.05078125 10.03255208 -1 10 C-1.02689216 8.52093108 -1.04634621 7.04172517 -1.0625 5.5625 C-1.07410156 4.73878906 -1.08570312 3.91507813 -1.09765625 3.06640625 C-1 1 -1 1 0 0 Z " fill="#EEEEEE" transform="translate(1,47)"/>
<path d="M0 0 C9.90371883 -0.80119973 22.96042994 0.48021497 32 5 C32 5.66 32 6.32 32 7 C30.18706911 6.85962479 28.3746557 6.71255111 26.5625 6.5625 C25.04849609 6.44068359 25.04849609 6.44068359 23.50390625 6.31640625 C21 6 21 6 20 5 C18.51730105 4.70420295 17.02368615 4.4625458 15.52734375 4.24609375 C14.17866211 4.04790039 14.17866211 4.04790039 12.80273438 3.84570312 C11.85720703 3.71099609 10.91167969 3.57628906 9.9375 3.4375 C8.98810547 3.29892578 8.03871094 3.16035156 7.06054688 3.01757812 C4.7075435 2.67467814 2.35404517 2.33566063 0 2 C0 1.34 0 0.68 0 0 Z " fill="#8E93AE" transform="translate(256,23)"/>
<path d="M0 0 C2.64 0 5.28 0 8 0 C8.66 2.64 9.32 5.28 10 8 C6.1496895 10.56687367 4.41430237 9.83288724 0 9 C0 6.03 0 3.06 0 0 Z " fill="#EDEDED" transform="translate(48,19)"/>
<path d="M0 0 C0.04241723 2.33294775 0.04092937 4.66702567 0 7 C-1 8 -1 8 -2.84765625 8.09765625 C-4.8984375 8.06510417 -6.94921875 8.03255208 -9 8 C-9 5.03 -9 2.06 -9 -1 C-5.79937313 -2.60031344 -3.27728194 -1.03173691 0 0 Z " fill="#EDEDED" transform="translate(105,11)"/>
<path d="M0 0 C2.05078125 0.03255208 4.1015625 0.06510417 6.15234375 0.09765625 C6.15234375 3.06765625 6.15234375 6.03765625 6.15234375 9.09765625 C3.08344188 10.63210719 0.45140109 9.64749914 -2.84765625 9.09765625 C-2.9453125 2.9453125 -2.9453125 2.9453125 -2.84765625 1.09765625 C-1.84765625 0.09765625 -1.84765625 0.09765625 0 0 Z " fill="#EDEDED" transform="translate(31.84765625,-0.09765625)"/>
<path d="M0 0 C2.97 0 5.94 0 9 0 C9.09765625 6.15234375 9.09765625 6.15234375 9 8 C8 9 8 9 6.15234375 9.09765625 C4.1015625 9.06510417 2.05078125 9.03255208 0 9 C0 6.03 0 3.06 0 0 Z " fill="#FCFCFC" transform="translate(392,200)"/>
<path d="M0 0 C2.97 0 5.94 0 9 0 C9.09765625 6.15234375 9.09765625 6.15234375 9 8 C8 9 8 9 6.15234375 9.09765625 C4.1015625 9.06510417 2.05078125 9.03255208 0 9 C0 6.03 0 3.06 0 0 Z " fill="#ECECEC" transform="translate(344,200)"/>
<path d="M0 0 C2.97 0 5.94 0 9 0 C9.09765625 6.15234375 9.09765625 6.15234375 9 8 C8 9 8 9 6.15234375 9.09765625 C4.1015625 9.06510417 2.05078125 9.03255208 0 9 C0 6.03 0 3.06 0 0 Z " fill="#FCFCFC" transform="translate(10,200)"/>
<path d="M0 0 C6.15234375 -0.09765625 6.15234375 -0.09765625 8 0 C9 1 9 1 9.09765625 2.84765625 C9.04882812 5.92382812 9.04882812 5.92382812 9 9 C6.03 9 3.06 9 0 9 C0 6.03 0 3.06 0 0 Z " fill="#FCFCFC" transform="translate(344,191)"/>
<path d="M0 0 C6.15234375 -0.09765625 6.15234375 -0.09765625 8 0 C9 1 9 1 9.125 3.9375 C9 7 9 7 8 9 C5.36 9 2.72 9 0 9 C-1.125 2.25 -1.125 2.25 0 0 Z " fill="#EDEDED" transform="translate(392,172)"/>
<path d="M0 0 C2.31 0.33 4.62 0.66 7 1 C7.98120464 4.05263664 7.98120464 5.94736336 7 9 C0.84765625 9.87890625 0.84765625 9.87890625 -1 10 C-2 9 -2 9 -2.1875 6.125 C-2 3 -2 3 0 0 Z " fill="#EDECEE" transform="translate(269,9)"/>
<path d="M0 0 C6.15234375 -0.09765625 6.15234375 -0.09765625 8 0 C9 1 9 1 9.09765625 2.84765625 C9.04882812 5.92382812 9.04882812 5.92382812 9 9 C6.03 9 3.06 9 0 9 C0 6.03 0 3.06 0 0 Z " fill="#EEEEEE" transform="translate(0,10)"/>
<path d="M0 0 C2.97 0 5.94 0 9 0 C9.09765625 6.15234375 9.09765625 6.15234375 9 8 C8 9 8 9 6.15234375 9.09765625 C4.1015625 9.06510417 2.05078125 9.03255208 0 9 C0 6.03 0 3.06 0 0 Z " fill="#EDEDED" transform="translate(354,0)"/>
<path d="M0 0 C2.97 0 5.94 0 9 0 C9.09765625 6.15234375 9.09765625 6.15234375 9 8 C8 9 8 9 6.15234375 9.09765625 C4.1015625 9.06510417 2.05078125 9.03255208 0 9 C0 6.03 0 3.06 0 0 Z " fill="#FDFDFD" transform="translate(344,0)"/>
<path d="M0 0 C2.05078125 0.03255208 4.1015625 0.06510417 6.15234375 0.09765625 C6.15234375 3.06765625 6.15234375 6.03765625 6.15234375 9.09765625 C3.18234375 9.09765625 0.21234375 9.09765625 -2.84765625 9.09765625 C-2.9453125 2.9453125 -2.9453125 2.9453125 -2.84765625 1.09765625 C-1.84765625 0.09765625 -1.84765625 0.09765625 0 0 Z " fill="#ECECEC" transform="translate(50.84765625,-0.09765625)"/>
<path d="M0 0 C6.15234375 -0.09765625 6.15234375 -0.09765625 8 0 C9 1 9 1 9.125 4.5 C9 8 9 8 8 9 C5.32941149 9.14115161 2.67567762 9.04247107 0 9 C0 6.03 0 3.06 0 0 Z " fill="#EDEDED" transform="translate(48,172)"/>
<path d="M0 0 C2.97 0 5.94 0 9 0 C9 2.97 9 5.94 9 9 C6.36 9 3.72 9 1 9 C-0.4783226 6.04335481 -0.06032783 3.25770263 0 0 Z " fill="#EDEDED" transform="translate(143,0)"/>
<path d="M0 0 C2.97 0 5.94 0 9 0 C9 2.64 9 5.28 9 8 C5.67465243 9.10844919 3.37817425 8.84454356 0 8 C0 5.36 0 2.72 0 0 Z " fill="#FDFDFD" transform="translate(10,48)"/>
<path d="M0 0 C0.40729228 2.32156597 0.74438677 4.6568787 1 7 C-1.51796153 8.58538318 -2.67865586 9.0373656 -5.6875 8.6875 C-8 8 -8 8 -9 7 C-9.04080783 5.00041636 -9.04254356 2.99954746 -9 1 C-2.25 -1.125 -2.25 -1.125 0 0 Z " fill="#ECECEC" transform="translate(324,20)"/>
<path d="M0 0 C2.97 0 5.94 0 9 0 C9 2.97 9 5.94 9 9 C6.36 9 3.72 9 1 9 C0.67 6.03 0.34 3.06 0 0 Z " fill="#ECEDEC" transform="translate(229,200)"/>
<path d="M0 0 C-0.99 0.495 -0.99 0.495 -2 1 C-2 3.31 -2 5.62 -2 8 C-5.28696233 8.79953138 -6.71023192 9.09658936 -10 8 C-10.33 6.02 -10.66 4.04 -11 2 C-7.374967 -1.625033 -4.81746234 -1.01907857 0 0 Z " fill="#FBFBFB" transform="translate(326,182)"/>
<path d="M0 0 C6.15234375 -0.09765625 6.15234375 -0.09765625 8 0 C9 1 9 1 9.09765625 2.84765625 C9.04882812 5.92382812 9.04882812 5.92382812 9 9 C6.03 8.67 3.06 8.34 0 8 C0 5.36 0 2.72 0 0 Z " fill="#ECECEC" transform="translate(392,39)"/>
<path d="M0 0 C2.97 0 5.94 0 9 0 C8.67 2.97 8.34 5.94 8 9 C5.36 9 2.72 9 0 9 C0 6.03 0 3.06 0 0 Z " fill="#ECECEC" transform="translate(392,0)"/>
<path d="M0 0 C2.97 0 5.94 0 9 0 C9 0.66 9 1.32 9 2 C8.34 2 7.68 2 7 2 C7.556875 3.1446875 7.556875 3.1446875 8.125 4.3125 C8.41375 5.199375 8.7025 6.08625 9 7 C8.01 8.485 8.01 8.485 7 10 C4.66666667 10 2.33333333 10 0 10 C0 6.7 0 3.4 0 0 Z " fill="#E9ECEC" transform="translate(19,86)"/>
<path d="M0 0 C2.97 0 5.94 0 9 0 C9.33 2.64 9.66 5.28 10 8 C6.7 8.33 3.4 8.66 0 9 C0 6.03 0 3.06 0 0 Z " fill="#EBECEA" transform="translate(248,10)"/>
<path d="M0 0 C3.625 -0.1875 3.625 -0.1875 7 0 C7 2.97 7 5.94 7 9 C4.36 9 1.72 9 -1 9 C-1.625 6.1875 -1.625 6.1875 -2 3 C-1.34 2.01 -0.68 1.02 0 0 Z " fill="#EEEEEE" transform="translate(183,0)"/>
<path d="M0 0 C2.64 0 5.28 0 8 0 C8.87890625 6.15234375 8.87890625 6.15234375 9 8 C8 9 8 9 4.5 9.125 C1 9 1 9 0 8 C-0.14115161 5.32941149 -0.04247107 2.67567762 0 0 Z " fill="#ECECEC" transform="translate(20,200)"/>
<path d="M0 0 C1.99954746 -0.04254356 4.00041636 -0.04080783 6 0 C7 1 7 1 7.125 4.5 C7 8 7 8 6 9 C3.66702567 9.04092937 1.33294775 9.04241723 -1 9 C-1.80967438 6.08517222 -2.21845993 4.53886783 -1.0625 1.6875 C-0.711875 1.130625 -0.36125 0.57375 0 0 Z " fill="#ECECEC" transform="translate(21,181)"/>
<path d="M0 0 C-0.66 2.64 -1.32 5.28 -2 8 C-4.64 8 -7.28 8 -10 8 C-11.125 2.25 -11.125 2.25 -10 0 C-2.58823529 -1.29411765 -2.58823529 -1.29411765 0 0 Z " fill="#ECECEC" transform="translate(402,20)"/>
<path d="M0 0 C2.4375 0.375 2.4375 0.375 5 1 C6.36623674 3.73247348 6.128426 5.98198902 6 9 C5 10 5 10 3.15234375 10.09765625 C1.1015625 10.06510417 -0.94921875 10.03255208 -3 10 C-4.33332095 7.3333581 -3.67102033 5.83319697 -3 3 C-2.34 3.33 -1.68 3.66 -1 4 C-0.67 2.68 -0.34 1.36 0 0 Z " fill="#EAEDEE" transform="translate(395,114)"/>
<path d="M0 0 C2.64 0 5.28 0 8 0 C8 2.97 8 5.94 8 9 C5.36 9 2.72 9 0 9 C0 6.03 0 3.06 0 0 Z " fill="#ECECEC" transform="translate(402,48)"/>
<path d="M0 0 C2.64 0 5.28 0 8 0 C8.125 6.75 8.125 6.75 7 9 C4.36 8.67 1.72 8.34 -1 8 C-2.2077558 4.37673261 -1.54311128 3.35853631 0 0 Z " fill="#FCFCFA" transform="translate(288,19)"/>
<path d="M0 0 C2.97 0 5.94 0 9 0 C9 2.64 9 5.28 9 8 C6.36 8 3.72 8 1 8 C-0.0625 6.25 -0.0625 6.25 -1 4 C-0.67 2.68 -0.34 1.36 0 0 Z " fill="#EDEDED" transform="translate(239,210)"/>
<path d="M0 0 C-1.14453125 1.953125 -1.14453125 1.953125 -3 4 C-5.69921875 4.609375 -5.69921875 4.609375 -8.6875 4.75 C-9.68136719 4.80671875 -10.67523438 4.8634375 -11.69921875 4.921875 C-12.83810547 4.96054688 -12.83810547 4.96054688 -14 5 C-14 4.34 -14 3.68 -14 3 C-22.25 2.67 -30.5 2.34 -39 2 C-39.33 2.66 -39.66 3.32 -40 4 C-40 3.01 -40 2.02 -40 1 C-38.99098633 0.97494385 -37.98197266 0.9498877 -36.94238281 0.92407227 C-33.19258304 0.82977591 -29.44295892 0.72960979 -25.69335938 0.62768555 C-24.07165643 0.58442069 -22.44991042 0.54273972 -20.828125 0.50268555 C-18.49465973 0.44477786 -16.16140957 0.38114302 -13.828125 0.31640625 C-13.10506165 0.29969376 -12.38199829 0.28298126 -11.63702393 0.26576233 C-0.14237913 -0.07118957 -0.14237913 -0.07118957 0 0 Z " fill="#757D99" transform="translate(314,136)"/>
<path d="M0 0 C2.64 0 5.28 0 8 0 C9.09658936 3.28976808 8.79953138 4.71303767 8 8 C5.36 8 2.72 8 0 8 C0 5.36 0 2.72 0 0 Z " fill="#EBEBEB" transform="translate(48,210)"/>
<path d="M0 0 C0.33 0.66 0.66 1.32 1 2 C1.66 2 2.32 2 3 2 C3 2.66 3 3.32 3 4 C3.66 4 4.32 4 5 4 C5 5.98 5 7.96 5 10 C4.01 10.33 3.02 10.66 2 11 C1.19787372 12.87387216 1.19787372 12.87387216 0.8125 15.0625 C0.65394531 15.79597656 0.49539062 16.52945313 0.33203125 17.28515625 C0.22246094 17.85105469 0.11289063 18.41695312 0 19 C-0.99 18.34 -1.98 17.68 -3 17 C-2.48517081 11.147205 -1.54642808 5.6702363 0 0 Z " fill="#232638" transform="translate(251,134)"/>
<path d="M0 0 C1.23556641 0.01740234 1.23556641 0.01740234 2.49609375 0.03515625 C3.32238281 0.04417969 4.14867187 0.05320313 5 0.0625 C5.63808594 0.07410156 6.27617187 0.08570313 6.93359375 0.09765625 C7.05859375 6.84765625 7.05859375 6.84765625 5.93359375 9.09765625 C2.60026042 7.76432292 -0.73307292 6.43098958 -4.06640625 5.09765625 C-2.94676868 0.13926128 -2.94676868 0.13926128 0 0 Z " fill="#E8E8F0" transform="translate(337.06640625,37.90234375)"/>
<path d="M0 0 C0 0.66 0 1.32 0 2 C1.98 1.67 3.96 1.34 6 1 C6 1.66 6 2.32 6 3 C7.6396875 2.690625 7.6396875 2.690625 9.3125 2.375 C14.72159301 1.66608835 19.72664422 2.82706609 25 4 C25 4.33 25 4.66 25 5 C16.62578679 5.20044659 8.38915853 5.12686051 0.0625 4.125 C-0.97487305 4.00729248 -0.97487305 4.00729248 -2.03320312 3.88720703 C-3.70060992 3.66761175 -5.3535989 3.34326509 -7 3 C-7.33 2.34 -7.66 1.68 -8 1 C-2.25 0 -2.25 0 0 0 Z " fill="#898FAA" transform="translate(159,192)"/>
<path d="M0 0 C1.9375 0.75 1.9375 0.75 4 2 C4.75 4.125 4.75 4.125 5 6 C6.546875 6.185625 6.546875 6.185625 8.125 6.375 C11.67868623 6.9481752 14.72144384 7.51684364 18 9 C18.8125 10.9375 18.8125 10.9375 19 13 C19.33 13.99 19.66 14.98 20 16 C15.50464608 14.40986525 11.68459444 12.11059625 7.6875 9.5625 C7.04232422 9.16740234 6.39714844 8.77230469 5.73242188 8.36523438 C4.09910509 7.32647947 2.54173322 6.17038205 1 5 C1 4.01 1 3.02 1 2 C0.67 1.34 0.34 0.68 0 0 Z " fill="#9496B4" transform="translate(52,153)"/>
<path d="M0 0 C0.66 0.33 1.32 0.66 2 1 C1.67 6.28 1.34 11.56 1 17 C0.01 17.33 -0.98 17.66 -2 18 C-2 17.34 -2 16.68 -2 16 C-2.66 16 -3.32 16 -4 16 C-4.33 15.34 -4.66 14.68 -5 14 C-5.99 14 -6.98 14 -8 14 C-7.4225 13.360625 -6.845 12.72125 -6.25 12.0625 C-3.47081977 8.2797269 -1.77138389 4.32481492 0 0 Z " fill="#838AAA" transform="translate(171,107)"/>
<path d="M0 0 C2.64 0 5.28 0 8 0 C8 2.31 8 4.62 8 7 C5.03 7 2.06 7 -1 7 C-1.33 6.34 -1.66 5.68 -2 5 C-1.0625 2.375 -1.0625 2.375 0 0 Z " fill="#ECECEB" transform="translate(192,10)"/>
<path d="M0 0 C8.25 0.33 16.5 0.66 25 1 C25 1.33 25 1.66 25 2 C21.92382812 2.29296875 21.92382812 2.29296875 18.84765625 2.5859375 C18.23792969 2.72257813 17.62820312 2.85921875 17 3 C16.67 3.66 16.34 4.32 16 5 C11.71 5 7.42 5 3 5 C3 5.66 3 6.32 3 7 C2.34 7 1.68 7 1 7 C1 6.01 1 5.02 1 4 C1.66 3.67 2.32 3.34 3 3 C2.01 2.67 1.02 2.34 0 2 C0 1.34 0 0.68 0 0 Z " fill="#7981A3" transform="translate(168,136)"/>
<path d="M0 0 C-0.43591927 6.25318671 -1.33219783 12.39759966 -2.4375 18.5625 C-2.55971924 19.27728516 -2.68193848 19.99207031 -2.80786133 20.72851562 C-3.13645955 22.49982873 -3.56059066 24.25287484 -4 26 C-4.66 26.33 -5.32 26.66 -6 27 C-5.17879959 8.17722218 -5.17879959 8.17722218 -3 1 C-1 0 -1 0 0 0 Z " fill="#9297B2" transform="translate(177,94)"/>
<path d="M0 0 C0.33 0 0.66 0 1 0 C4.125 9.375 4.125 9.375 2.5625 14.1875 C2.27503906 15.08855469 1.98757812 15.98960938 1.69140625 16.91796875 C1.46324219 17.60503906 1.23507813 18.29210937 1 19 C-0.32 19 -1.64 19 -3 19 C-2.27637073 12.60794144 -1.19656638 6.31972924 0 0 Z " fill="#252C3E" transform="translate(179,85)"/>
<path d="M0 0 C1.20220203 3.53094302 0.79532349 6.12898982 0.0625 9.75 C-0.13214844 10.73484375 -0.32679688 11.7196875 -0.52734375 12.734375 C-0.68332031 13.48203125 -0.83929688 14.2296875 -1 15 C-1.639375 15.103125 -2.27875 15.20625 -2.9375 15.3125 C-3.9584375 15.6528125 -3.9584375 15.6528125 -5 16 C-5.33 16.99 -5.66 17.98 -6 19 C-4.7 4.7 -4.7 4.7 0 0 Z " fill="#878DB0" transform="translate(215,43)"/>
<path d="M0 0 C-1.98 0.99 -1.98 0.99 -4 2 C-4 3.98 -4 5.96 -4 8 C-6.97 7.67 -9.94 7.34 -13 7 C-13 6.34 -13 5.68 -13 5 C-13.66 4.34 -14.32 3.68 -15 3 C-12.87790224 2.30359327 -10.75221473 1.61811643 -8.625 0.9375 C-6.84996094 0.36322266 -6.84996094 0.36322266 -5.0390625 -0.22265625 C-2 -1 -2 -1 0 0 Z " fill="#E2E7EE" transform="translate(319,182)"/>
<path d="M0 0 C2 1 2 1 3 3 C2.01 3 1.02 3 0 3 C0 3.66 0 4.32 0 5 C-6.75 7.125 -6.75 7.125 -9 6 C-9.66 7.32 -10.32 8.64 -11 10 C-11.66 10 -12.32 10 -13 10 C-13.33 10.66 -13.66 11.32 -14 12 C-14.99 11.01 -15.98 10.02 -17 9 C-14.21526125 7.46621464 -11.42121662 5.9502442 -8.625 4.4375 C-7.8309375 3.99986328 -7.036875 3.56222656 -6.21875 3.11132812 C-5.45820312 2.70205078 -4.69765625 2.29277344 -3.9140625 1.87109375 C-2.8614624 1.29766235 -2.8614624 1.29766235 -1.78759766 0.71264648 C-1.19769043 0.47747314 -0.6077832 0.2422998 0 0 Z " fill="#9497B3" transform="translate(84,42)"/>
<path d="M0 0 C2.5 1.1875 2.5 1.1875 4.5 3.1875 C4.5 4.85416667 4.5 6.52083333 4.5 8.1875 C1.86 8.1875 -0.78 8.1875 -3.5 8.1875 C-3.83 6.5375 -4.16 4.8875 -4.5 3.1875 C-3.84 3.1875 -3.18 3.1875 -2.5 3.1875 C-2.5 2.5275 -2.5 1.8675 -2.5 1.1875 C-3.16 0.8575 -3.82 0.5275 -4.5 0.1875 C-2.5 -0.8125 -2.5 -0.8125 0 0 Z " fill="#ECECE9" transform="translate(61.5,162.8125)"/>
<path d="M0 0 C0.99 0.33 1.98 0.66 3 1 C3.05449228 3.83359844 3.09390733 6.66612485 3.125 9.5 C3.14175781 10.29148437 3.15851563 11.08296875 3.17578125 11.8984375 C3.21989226 17.27998079 2.50594058 21.82999927 1 27 C0.34 27 -0.32 27 -1 27 C-0.835 25.700625 -0.67 24.40125 -0.5 23.0625 C0.28556277 15.39496481 0.08036438 7.69712133 0 0 Z " fill="#898FAA" transform="translate(390,98)"/>
<path d="M0 0 C1.33332095 2.6666419 0.67102033 4.16680303 0 7 C-0.60972656 7.0928125 -1.21945313 7.185625 -1.84765625 7.28125 C-4.52835321 8.17643737 -5.02005292 9.10652535 -6.4375 11.5 C-8.66970524 14.88990175 -8.66970524 14.88990175 -11.8125 15.9375 C-12.8953125 15.9684375 -12.8953125 15.9684375 -14 16 C-14 15.34 -14 14.68 -14 14 C-13.34 14 -12.68 14 -12 14 C-11.6596875 13.1646875 -11.6596875 13.1646875 -11.3125 12.3125 C-9.62622733 9.34144815 -7.469646 7.35477875 -5 5 C-3.6078125 3.6078125 -3.6078125 3.6078125 -2.1875 2.1875 C-1.1046875 1.1046875 -1.1046875 1.1046875 0 0 Z " fill="#9598B5" transform="translate(49,63)"/>
<path d="M0 0 C2.97 0.33 5.94 0.66 9 1 C9 2.32 9 3.64 9 5 C8.01 5 7.02 5 6 5 C6 4.34 6 3.68 6 3 C5.01 3.495 5.01 3.495 4 4 C3.67 4.99 3.34 5.98 3 7 C3.99 7.33 4.98 7.66 6 8 C5.67 8.99 5.34 9.98 5 11 C4.67 11 4.34 11 4 11 C3.67 14.96 3.34 18.92 3 23 C2.67 23 2.34 23 2 23 C1.93941406 21.75863281 1.87882812 20.51726562 1.81640625 19.23828125 C1.73196377 17.59634423 1.64731764 15.95441768 1.5625 14.3125 C1.52318359 13.49587891 1.48386719 12.67925781 1.44335938 11.83789062 C1.23101997 7.80344189 0.95552078 3.94252691 0 0 Z " fill="#E8EBF1" transform="translate(391,94)"/>
<path d="M0 0 C0.99 0 1.98 0 3 0 C4.10647808 2.21295616 4.19588368 3.54672699 4.25 6 C4.28867187 7.051875 4.28867187 7.051875 4.328125 8.125 C4.21984375 8.74375 4.1115625 9.3625 4 10 C1 12 1 12 -2 12 C-2.33 12.66 -2.66 13.32 -3 14 C-3.33 12.68 -3.66 11.36 -4 10 C-3.01 10 -2.02 10 -1 10 C-0.67 6.7 -0.34 3.4 0 0 Z " fill="#EEEFEE" transform="translate(19,104)"/>
<path d="M0 0 C1.65 0 3.3 0 5 0 C3.49977751 4.43984764 0.03962195 6.27606078 -3.75 8.625 C-4.3584375 9.01945313 -4.966875 9.41390625 -5.59375 9.8203125 C-9.28297146 12.15366625 -12.76742657 13.79254807 -17 15 C-16.67 14.34 -16.34 13.68 -16 13 C-15.34 13 -14.68 13 -14 13 C-14 12.34 -14 11.68 -14 11 C-13.28972656 10.66226563 -12.57945312 10.32453125 -11.84765625 9.9765625 C-10.46900391 9.30753906 -10.46900391 9.30753906 -9.0625 8.625 C-8.14597656 8.18414062 -7.22945313 7.74328125 -6.28515625 7.2890625 C-3.87096198 6.20800838 -3.87096198 6.20800838 -3 4 C-2.01 3.67 -1.02 3.34 0 3 C0 2.01 0 1.02 0 0 Z " fill="#8689A8" transform="translate(361,154)"/>
<path d="M0 0 C10.56 0 21.12 0 32 0 C32 0.33 32 0.66 32 1 C23.42 1.33 14.84 1.66 6 2 C5.67 2.66 5.34 3.32 5 4 C4.34 4 3.68 4 3 4 C2.67 4.66 2.34 5.32 2 6 C1.34 5.34 0.68 4.68 0 4 C0 2.68 0 1.36 0 0 Z " fill="#9199B7" transform="translate(275,138)"/>
<path d="M0 0 C0.66 0 1.32 0 2 0 C2.02717692 2.06242617 2.0464758 4.12495703 2.0625 6.1875 C2.07410156 7.33605469 2.08570313 8.48460938 2.09765625 9.66796875 C2.01192832 12.59300586 1.67849023 15.16316291 1 18 C0.67 17.34 0.34 16.68 0 16 C-0.66 16 -1.32 16 -2 16 C-2.33 16.66 -2.66 17.32 -3 18 C-3.15840227 15.22796027 -3.11392643 13.28101854 -2.0625 10.6875 C-0.65261312 7.12131554 -0.38766329 3.81202237 0 0 Z " fill="#232740" transform="translate(341,88)"/>
<path d="M0 0 C5.77040816 5.32653061 5.77040816 5.32653061 6 9 C5.5625 11.75 5.5625 11.75 5 14 C2 10.25 2 10.25 2 8 C2.66 8 3.32 8 4 8 C3.67 7.34 3.34 6.68 3 6 C2.01 6.495 2.01 6.495 1 7 C0.67 6.34 0.34 5.68 0 5 C-0.825 4.835 -1.65 4.67 -2.5 4.5 C-3.325 4.335 -4.15 4.17 -5 4 C-5.33 3.34 -5.66 2.68 -6 2 C-4.02 1.34 -2.04 0.68 0 0 Z " fill="#202937" transform="translate(335,74)"/>
<path d="M0 0 C-7.59527005 3.47288089 -14.70614646 5.90612562 -23 7 C-23.33 6.34 -23.66 5.68 -24 5 C-20.25 3.875 -20.25 3.875 -18 5 C-18 4.34 -18 3.68 -18 3 C-17.45472656 2.86851562 -16.90945313 2.73703125 -16.34765625 2.6015625 C-14.65971388 2.16904482 -12.98068912 1.70115995 -11.30859375 1.2109375 C-10.36113281 0.93507812 -9.41367187 0.65921875 -8.4375 0.375 C-7.48746094 0.09398437 -6.53742188 -0.18703125 -5.55859375 -0.4765625 C-3 -1 -3 -1 0 0 Z " fill="#858BA7" transform="translate(324,179)"/>
<path d="M0 0 C0.66 0.33 1.32 0.66 2 1 C2.2358396 6.77807024 1.86783046 11.51324804 0 17 C-0.66 17 -1.32 17 -2 17 C-2.05418326 14.91695462 -2.09287551 12.83350232 -2.125 10.75 C-2.14820313 9.58984375 -2.17140625 8.4296875 -2.1953125 7.234375 C-2.0103949 4.17213954 -1.60823023 2.55797249 0 0 Z " fill="#8F98B8" transform="translate(315,91)"/>
<path d="M0 0 C1.7074998 1.28062485 3.37373596 2.61767557 5 4 C5 4.66 5 5.32 5 6 C5.99 6.33 6.98 6.66 8 7 C10.32265612 9.58072903 11 10.45176068 11 14 C10.01 14 9.02 14 8 14 C7.46375 12.88625 6.9275 11.7725 6.375 10.625 C4.65041109 7.55423918 4.15782274 7.06980621 0.75 5.5625 C-0.1575 5.376875 -1.065 5.19125 -2 5 C-1.34 3.35 -0.68 1.7 0 0 Z " fill="#8F95AE" transform="translate(371,66)"/>
<path d="M0 0 C1.65 0 3.3 0 5 0 C5.33 1.32 5.66 2.64 6 4 C3.03 5.65 0.06 7.3 -3 9 C-4.33332095 6.3333581 -3.67102033 4.83319697 -3 2 C-2.01 2 -1.02 2 0 2 C0 1.34 0 0.68 0 0 Z " fill="#E8E8EA" transform="translate(61,48)"/>
<path d="M0 0 C0.99 0 1.98 0 3 0 C3 0.66 3 1.32 3 2 C8.28 2 13.56 2 19 2 C19.33 2.66 19.66 3.32 20 4 C13.4 4 6.8 4 0 4 C0 2.68 0 1.36 0 0 Z " fill="#151B33" transform="translate(77,158)"/>
<path d="M0 0 C0.33 0 0.66 0 1 0 C1 2.66666667 1 5.33333333 1 8 C1.33 8 1.66 8 2 8 C1.67 10.64 1.34 13.28 1 16 C-0.32 16.33 -1.64 16.66 -3 17 C-2.88597936 14.72858891 -2.75841495 12.45785448 -2.625 10.1875 C-2.55539062 8.92292969 -2.48578125 7.65835938 -2.4140625 6.35546875 C-2 3 -2 3 0 0 Z " fill="#959ABB" transform="translate(259,77)"/>
<path d="M0 0 C0 0.99 0 1.98 0 3 C-7.42857143 5.42857143 -7.42857143 5.42857143 -11 4 C-10.6875 2.0625 -10.6875 2.0625 -10 0 C-6.30581799 -1.231394 -3.7943739 -0.64432764 0 0 Z " fill="#F7F9FC" transform="translate(115,29)"/>
<path d="M0 0 C2.31 0 4.62 0 7 0 C7.33 1.65 7.66 3.3 8 5 C5.03 5 2.06 5 -1 5 C-0.67 3.35 -0.34 1.7 0 0 Z " fill="#E8EDEC" transform="translate(259,195)"/>
<path d="M0 0 C0.66 0.33 1.32 0.66 2 1 C1.071875 2.1446875 1.071875 2.1446875 0.125 3.3125 C-2.05597052 5.99625809 -2.05597052 5.99625809 -4 9 C-6.64 8.67 -9.28 8.34 -12 8 C-9.38928701 5.93318555 -6.66162161 4.06890393 -3.875 2.25 C-3.19179688 1.80140625 -2.50859375 1.3528125 -1.8046875 0.890625 C-0.91136719 0.44976562 -0.91136719 0.44976562 0 0 Z " fill="#DFE0EE" transform="translate(356,162)"/>
<path d="M0 0 C1.65 0 3.3 0 5 0 C5 1.32 5 2.64 5 4 C-2.92 4 -10.84 4 -19 4 C-19 3.67 -19 3.34 -19 3 C-12.5510809 1.68090291 -6.51244208 2.30491177 0 3 C0 2.01 0 1.02 0 0 Z " fill="#13172E" transform="translate(242,133)"/>
<path d="M0 0 C0.33 0 0.66 0 1 0 C1.33 3.96 1.66 7.92 2 12 C1.34 12 0.68 12 0 12 C0.185625 12.94875 0.37125 13.8975 0.5625 14.875 C1 18 1 18 0 20 C-1.32 19.34 -2.64 18.68 -4 18 C-3.79503906 17.45472656 -3.59007812 16.90945312 -3.37890625 16.34765625 C-1.41324021 10.84567235 -0.46218398 5.8235181 0 0 Z " fill="#31364C" transform="translate(317,92)"/>
<path d="M0 0 C0 0.66 0 1.32 0 2 C-14.7 3.86666667 -14.7 3.86666667 -19 1 C-12.65758005 -0.15316726 -6.43311296 -0.09507063 0 0 Z " fill="#9299B4" transform="translate(176,21)"/>
<path d="M0 0 C2.35694954 0.09031574 4.71153582 0.24688128 7.0625 0.4375 C8.35285156 0.53933594 9.64320313 0.64117187 10.97265625 0.74609375 C12.47119141 0.87177734 12.47119141 0.87177734 14 1 C13.360625 1.309375 12.72125 1.61875 12.0625 1.9375 C10.06389179 2.8345163 10.06389179 2.8345163 9 4 C6.32941149 4.14115161 3.67567762 4.04247107 1 4 C1 3.34 1 2.68 1 2 C0.34 1.67 -0.32 1.34 -1 1 C-0.67 0.67 -0.34 0.34 0 0 Z " fill="#E8EAF4" transform="translate(162,196)"/>
<path d="M0 0 C5.13373162 1.39038565 10.03739743 3.08460953 15 5 C11.58860997 6.09651823 8.79344419 5.94215473 5.25 5.5625 C4.26515625 5.46066406 3.2803125 5.35882813 2.265625 5.25390625 C1.51796875 5.17011719 0.7703125 5.08632812 0 5 C0 3.35 0 1.7 0 0 Z " fill="#E3E2EF" transform="translate(86,176)"/>
<path d="M0 0 C2.64 0 5.28 0 8 0 C8 0.66 8 1.32 8 2 C13.94 3.485 13.94 3.485 20 5 C20 5.33 20 5.66 20 6 C14.25879714 6.35882518 10.25115823 5.25206577 5 3 C4.01 2.608125 3.02 2.21625 2 1.8125 C1.34 1.544375 0.68 1.27625 0 1 C0 0.67 0 0.34 0 0 Z " fill="#8E8EAC" transform="translate(88,176)"/>
<path d="M0 0 C2.97 0 5.94 0 9 0 C8.67 1.98 8.34 3.96 8 6 C5.36 5.34 2.72 4.68 0 4 C0 2.68 0 1.36 0 0 Z " fill="#E8EAED" transform="translate(306,29)"/>
<path d="M0 0 C2 2 2 2 2.13525391 3.87939453 C2.08288574 4.62302246 2.03051758 5.36665039 1.9765625 6.1328125 C1.89921875 7.34130859 1.89921875 7.34130859 1.8203125 8.57421875 C1.75585938 9.41597656 1.69140625 10.25773437 1.625 11.125 C1.56828125 11.97449219 1.5115625 12.82398437 1.453125 13.69921875 C1.31149023 15.8001345 1.15695674 17.90017334 1 20 C0.34 19.67 -0.32 19.34 -1 19 C-1.02697137 16.39576408 -1.04682489 13.79180756 -1.0625 11.1875 C-1.07087891 10.44951172 -1.07925781 9.71152344 -1.08789062 8.95117188 C-1.10259828 5.70077932 -1.03531702 3.10595105 0 0 Z " fill="#888DAD" transform="translate(26,99)"/>
<path d="M0 0 C4.62 0 9.24 0 14 0 C10.72654007 3.27345993 6.2027148 3.88053072 1.6953125 4.125 C-0.20358219 4.125 -2.10231518 4.06777446 -4 4 C-3.34 3.525625 -2.68 3.05125 -2 2.5625 C-1.34 2.046875 -0.68 1.53125 0 1 C0 0.67 0 0.34 0 0 Z M-6 4 C-4 5 -4 5 -4 5 Z " fill="#8487A5" transform="translate(286,186)"/>
<path d="M0 0 C2.31 0 4.62 0 7 0 C6.01 0.33 5.02 0.66 4 1 C4 1.66 4 2.32 4 3 C6.97 3.33 9.94 3.66 13 4 C13 4.33 13 4.66 13 5 C11.22925083 5.02705729 9.45838289 5.04642195 7.6875 5.0625 C6.70136719 5.07410156 5.71523438 5.08570313 4.69921875 5.09765625 C2 5 2 5 -1 4 C-0.67 2.68 -0.34 1.36 0 0 Z " fill="#F2F6F6" transform="translate(302,186)"/>
<path d="M0 0 C2 2 2 2 2 5.4375 C1 9 1 9 -2.0625 10.9375 C-3.031875 11.288125 -4.00125 11.63875 -5 12 C-3.68938409 7.76570244 -2.05643741 3.92592596 0 0 Z " fill="#8087A6" transform="translate(340,108)"/>
<path d="M0 0 C0.33 0.99 0.66 1.98 1 3 C8.59 3 16.18 3 24 3 C24.33 2.34 24.66 1.68 25 1 C25.99 1.99 26.98 2.98 28 4 C24.75201257 5.08266248 22.64103173 5.03436186 19.23828125 4.87890625 C18.12001953 4.83056641 17.00175781 4.78222656 15.84960938 4.73242188 C14.09874023 4.64831055 14.09874023 4.64831055 12.3125 4.5625 C10.54422852 4.48418945 10.54422852 4.48418945 8.74023438 4.40429688 C5.82655906 4.27453806 2.91321922 4.13956868 0 4 C0 2.68 0 1.36 0 0 Z " fill="#767D9D" transform="translate(76,159)"/>
<path d="M0 0 C2.93200474 2.85276137 5.64315404 5.65079784 8 9 C6.1875 9.625 6.1875 9.625 4 10 C1 8 1 8 0.48828125 6.0546875 C0.32552083 4.03645833 0.16276042 2.01822917 0 0 Z " fill="#E4E8F3" transform="translate(38,143)"/>
<path d="M0 0 C0.66 0 1.32 0 2 0 C0.43873668 3.83219177 -2.02866925 6.17361222 -5 9 C-5.556875 9.598125 -6.11375 10.19625 -6.6875 10.8125 C-8 12 -8 12 -10 12 C-8.63016497 8.83884224 -8.0109362 8.0072908 -5 6 C-5 5.01 -5 4.02 -5 3 C-4.360625 2.87625 -3.72125 2.7525 -3.0625 2.625 C-2.0415625 2.315625 -2.0415625 2.315625 -1 2 C-0.67 1.34 -0.34 0.68 0 0 Z " fill="#8287A2" transform="translate(378,141)"/>
<path d="M0 0 C0.33 0.99 0.66 1.98 1 3 C0.34 3.66 -0.32 4.32 -1 5 C-1.103125 5.61875 -1.20625 6.2375 -1.3125 6.875 C-2.32853514 10.01547224 -4.33414208 11.1794141 -7 13 C-7.66 13 -8.32 13 -9 13 C-7.50923566 9.7173068 -5.61379679 7.06922559 -3.375 4.25 C-2.74335938 3.45078125 -2.11171875 2.6515625 -1.4609375 1.828125 C-0.97882813 1.22484375 -0.49671875 0.6215625 0 0 Z " fill="#E4E8F1" transform="translate(385,135)"/>
<path d="M0 0 C1.32 0.33 2.64 0.66 4 1 C4.33 3.31 4.66 5.62 5 8 C4.01 8.33 3.02 8.66 2 9 C1.34 9.99 0.68 10.98 0 12 C0 8.04 0 4.08 0 0 Z " fill="#7C819D" transform="translate(173,88)"/>
<path d="M0 0 C3.375 -0.125 3.375 -0.125 7 0 C9 2 9 2 9 4 C4.05 3.67 -0.9 3.34 -6 3 C-6 2.67 -6 2.34 -6 2 C-4.02 1.67 -2.04 1.34 0 1 C0 0.67 0 0.34 0 0 Z " fill="#E8EBF1" transform="translate(257,19)"/>
<path d="M0 0 C2.64 0 5.28 0 8 0 C8 0.66 8 1.32 8 2 C11.63 2 15.26 2 19 2 C19 2.33 19 2.66 19 3 C16.58325776 3.02705308 14.1668206 3.04686438 11.75 3.0625 C10.72712891 3.07506836 10.72712891 3.07506836 9.68359375 3.08789062 C6.30657446 3.10428392 3.22708361 3.05628768 0 2 C0 1.34 0 0.68 0 0 Z " fill="#989BB8" transform="translate(224,195)"/>
<path d="M0 0 C2.33333333 7 2.33333333 7 1.25 10.25 C0 12 0 12 -3 13 C-2.52060632 8.28596212 -2.03165952 4.33420699 0 0 Z " fill="#272940" transform="translate(101,144)"/>
<path d="M0 0 C5.75 -0.125 5.75 -0.125 8 1 C8 1.66 8 2.32 8 3 C4.17679443 4.42258812 1.08718695 5.24042276 -3 5 C-2.01 4.34 -1.02 3.68 0 3 C0 2.01 0 1.02 0 0 Z " fill="#171A2F" transform="translate(139,131)"/>
<path d="M0 0 C0.66 0.99 1.32 1.98 2 3 C2.66 3 3.32 3 4 3 C3.45660208 7.56454251 2.20536179 10.9728176 0 15 C-1.2077558 11.37673261 -0.54311128 10.35853631 1 7 C0.34 7 -0.32 7 -1 7 C-0.67 4.69 -0.34 2.38 0 0 Z " fill="#151A2E" transform="translate(337,101)"/>
<path d="M0 0 C3.96 0 7.92 0 12 0 C11.67 2.64 11.34 5.28 11 8 C10.34 8 9.68 8 9 8 C9 5.69 9 3.38 9 1 C6.03 1 3.06 1 0 1 C0 0.67 0 0.34 0 0 Z " fill="#121B2E" transform="translate(200,42)"/>
<path d="M0 0 C0.66 0.33 1.32 0.66 2 1 C1.88617347 2.95901454 1.75858875 4.9172338 1.625 6.875 C1.55539062 7.96554688 1.48578125 9.05609375 1.4140625 10.1796875 C1 13 1 13 -1 15 C-1.18451025 4.44191344 -1.18451025 4.44191344 0 0 Z " fill="#949AC0" transform="translate(262,69)"/>
<path d="M0 0 C1.32 0.33 2.64 0.66 4 1 C3.67 1.66 3.34 2.32 3 3 C3.66 3.33 4.32 3.66 5 4 C4.34 4 3.68 4 3 4 C2.67 4.66 2.34 5.32 2 6 C1.01 6.66 0.02 7.32 -1 8 C-1.93065133 5.39417629 -2.14917407 4.35801776 -1.0625 1.75 C-0.711875 1.1725 -0.36125 0.595 0 0 Z " fill="#EAECF0" transform="translate(30,76)"/>
<path d="M0 0 C1.134375 0.020625 2.26875 0.04125 3.4375 0.0625 C3.4375 0.7225 3.4375 1.3825 3.4375 2.0625 C2.1175 2.0625 0.7975 2.0625 -0.5625 2.0625 C-0.5625 2.7225 -0.5625 3.3825 -0.5625 4.0625 C0.7575 4.3925 2.0775 4.7225 3.4375 5.0625 C0.7975 4.7325 -1.8425 4.4025 -4.5625 4.0625 C-4.5625 -0.28271095 -4.43767807 0.077854 0 0 Z " fill="#E8ECE9" transform="translate(148.5625,18.9375)"/>
<path d="M0 0 C0.97582031 0.19464844 1.95164063 0.38929687 2.95703125 0.58984375 C4.06111328 0.82380859 4.06111328 0.82380859 5.1875 1.0625 C5.1875 1.3925 5.1875 1.7225 5.1875 2.0625 C0.2375 2.3925 -4.7125 2.7225 -9.8125 3.0625 C-10.1425 2.0725 -10.4725 1.0825 -10.8125 0.0625 C-6.8710998 -0.96788433 -3.97634848 -0.81443282 0 0 Z " fill="#EAEEF8" transform="translate(170.8125,18.9375)"/>
<path d="M0 0 C0.99 0.33 1.98 0.66 3 1 C3 2.32 3 3.64 3 5 C0.64561267 6.42944945 -0.48032433 7.08661261 -3.25 6.625 C-3.8275 6.41875 -4.405 6.2125 -5 6 C-4.34 6 -3.68 6 -3 6 C-3 4.68 -3 3.36 -3 2 C-2.01 1.34 -1.02 0.68 0 0 Z " fill="#848BAC" transform="translate(331,170)"/>
<path d="M0 0 C0.66 0 1.32 0 2 0 C3.5625 2.8125 3.5625 2.8125 5 6 C4.67 6.99 4.34 7.98 4 9 C3.34 8.01 2.68 7.02 2 6 C1.67 7.98 1.34 9.96 1 12 C0.67 12 0.34 12 0 12 C-0.19477739 10.37585622 -0.38059458 8.75063577 -0.5625 7.125 C-0.66691406 6.22007812 -0.77132813 5.31515625 -0.87890625 4.3828125 C-1 2 -1 2 0 0 Z " fill="#F5F4F9" transform="translate(28,130)"/>
<path d="M0 0 C0.625 1.875 0.625 1.875 1 4 C0.34 4.66 -0.32 5.32 -1 6 C-1.33 5.67 -1.66 5.34 -2 5 C-2.33 6.65 -2.66 8.3 -3 10 C-3.99 10 -4.98 10 -6 10 C-5.67 7.36 -5.34 4.72 -5 2 C-4.01 1.67 -3.02 1.34 -2 1 C-2 1.66 -2 2.32 -2 3 C-1.34 3 -0.68 3 0 3 C0 2.01 0 1.02 0 0 Z " fill="#787E9A" transform="translate(260,90)"/>
<path d="M0 0 C0.66 0 1.32 0 2 0 C2 0.99 2 1.98 2 3 C3.32 3.66 4.64 4.32 6 5 C1.47907032 6.45606519 -1.51648796 5.27032841 -6 4 C-5.34 3.34 -4.68 2.68 -4 2 C-3.01 2 -2.02 2 -1 2 C-0.67 1.34 -0.34 0.68 0 0 Z " fill="#E1E6EF" transform="translate(284,22)"/>
<path d="M0 0 C0.70125 0.2475 1.4025 0.495 2.125 0.75 C-0.10325644 2.97825644 -1.53261628 3.44239369 -4.5 4.375 C-5.31726562 4.63539062 -6.13453125 4.89578125 -6.9765625 5.1640625 C-7.60304687 5.35742188 -8.22953125 5.55078125 -8.875 5.75 C-8.875 5.09 -8.875 4.43 -8.875 3.75 C-3.85592031 -0.33529742 -3.85592031 -0.33529742 0 0 Z " fill="#8B90AC" transform="translate(67.875,52.25)"/>
<path d="M0 0 C2.97 0 5.94 0 9 0 C8.67 0.99 8.34 1.98 8 3 C5.69 3.33 3.38 3.66 1 4 C0.67 2.68 0.34 1.36 0 0 Z " fill="#EDEEEA" transform="translate(335,38)"/>
<path d="M0 0 C1.485 0.99 1.485 0.99 3 2 C3.55917108 6.02603178 2.39737627 9.24455129 1 13 C-1.30143236 9.54785147 -1.13833854 8.76520676 -0.625 4.8125 C-0.51414063 3.91144531 -0.40328125 3.01039062 -0.2890625 2.08203125 C-0.19367188 1.39496094 -0.09828125 0.70789063 0 0 Z " fill="#232942" transform="translate(228,104)"/>
<path d="M0 0 C2 3 2 3 1.625 5.1875 C1.41875 5.785625 1.2125 6.38375 1 7 C-0.98 6.34 -2.96 5.68 -5 5 C-5 4.01 -5 3.02 -5 2 C-4.360625 1.855625 -3.72125 1.71125 -3.0625 1.5625 C-1.02454854 1.18992819 -1.02454854 1.18992819 0 0 Z " fill="#E5E7EE" transform="translate(353,46)"/>
<path d="M0 0 C1.65 0 3.3 0 5 0 C3.68 0.33 2.36 0.66 1 1 C1 2.32 1 3.64 1 5 C1.99 5.33 2.98 5.66 4 6 C3.01 6.495 3.01 6.495 2 7 C-0.03144641 6.06553465 -2.03533587 5.06775224 -4 4 C-2.68 3.67 -1.36 3.34 0 3 C0 2.01 0 1.02 0 0 Z M3 3 C3.66 3.66 4.32 4.32 5 5 C4.34 5 3.68 5 3 5 C3 4.34 3 3.68 3 3 Z " fill="#848CB2" transform="translate(75,164)"/>
<path d="M0 0 C0.66 0 1.32 0 2 0 C2.1953125 6.0546875 2.1953125 6.0546875 2 8 C1.34 8.66 0.68 9.32 0 10 C-0.66 10 -1.32 10 -2 10 C-1.34 6.7 -0.68 3.4 0 0 Z " fill="#292E45" transform="translate(186,54)"/>
<path d="M0 0 C2.97 0 5.94 0 9 0 C9 1.98 9 3.96 9 6 C8.01 6.495 8.01 6.495 7 7 C6.67 5.35 6.34 3.7 6 2 C4.02 2.33 2.04 2.66 0 3 C0 2.01 0 1.02 0 0 Z " fill="#E9ECED" transform="translate(210,200)"/>
<path d="M0 0 C2.09350689 3.4019487 2.17942163 6.05272412 2 10 C1.34 10 0.68 10 0 10 C-0.33 10.99 -0.66 11.98 -1 13 C-1.07654536 8.48382401 -1.10228696 4.40914783 0 0 Z " fill="#282D45" transform="translate(82,131)"/>
<path d="M0 0 C0.33 0 0.66 0 1 0 C1.21192221 5.19209404 0.5912689 9.126739 -1 14 C-2.3271261 10.0186217 -2.06915913 6.14954773 -2 2 C-1.34 2 -0.68 2 0 2 C0 1.34 0 0.68 0 0 Z " fill="#98A0BC" transform="translate(250,131)"/>
<path d="M0 0 C0.66 0.33 1.32 0.66 2 1 C2.125 4.375 2.125 4.375 2 8 C1.34 8.66 0.68 9.32 0 10 C-0.66 9.34 -1.32 8.68 -2 8 C-1.63723355 5.17042171 -0.90305236 2.70915709 0 0 Z " fill="#8689AD" transform="translate(114,102)"/>
<path d="M0 0 C0.28875 0.61875 0.5775 1.2375 0.875 1.875 C1.93720042 4.13325765 1.93720042 4.13325765 4 6 C3 7 3 7 0.4375 7.0625 C-0.7690625 7.0315625 -0.7690625 7.0315625 -2 7 C-2 3 -2 3 0 0 Z " fill="#292936" transform="translate(163,72)"/>
<path d="M0 0 C0 0.33 0 0.66 0 1 C-1.60875 1.2165625 -1.60875 1.2165625 -3.25 1.4375 C-6.7421427 1.86329753 -6.7421427 1.86329753 -9 2.625 C-12.09222634 3.20479244 -14.92975345 2.53138883 -18 2 C-18 1.67 -18 1.34 -18 1 C-11.95170514 0.10395632 -6.1105424 -0.11269443 0 0 Z " fill="#282C45" transform="translate(154,67)"/>
<path d="M0 0 C0.66 0 1.32 0 2 0 C2.19294408 4.82360189 1.75747614 8.49646738 0 13 C-0.96661363 9.87819599 -0.98988909 7.47916205 -0.5625 4.25 C-0.46066406 3.45078125 -0.35882813 2.6515625 -0.25390625 1.828125 C-0.17011719 1.22484375 -0.08632812 0.6215625 0 0 Z " fill="#171B34" transform="translate(102,138)"/>
<path d="M0 0 C2.64 0.33 5.28 0.66 8 1 C8 1.99 8 2.98 8 4 C5.03 3.67 2.06 3.34 -1 3 C-0.67 2.01 -0.34 1.02 0 0 Z " fill="#878AAD" transform="translate(235,64)"/>
<path d="M0 0 C-0.66 1.32 -1.32 2.64 -2 4 C-3.98 4 -5.96 4 -8 4 C-7.67 3.01 -7.34 2.02 -7 1 C-4 0 -4 0 0 0 Z " fill="#8D93AF" transform="translate(98,38)"/>
<path d="M0 0 C0 0.66 0 1.32 0 2 C-5.41538462 3.23076923 -5.41538462 3.23076923 -8.375 2.0625 C-8.91125 1.711875 -9.4475 1.36125 -10 1 C-3.375 -1.125 -3.375 -1.125 0 0 Z " fill="#949AB1" transform="translate(109,35)"/>
<path d="M0 0 C2.97 1.98 2.97 1.98 6 4 C5.01 4.99 4.02 5.98 3 7 C3.33 7.66 3.66 8.32 4 9 C3.01 9 2.02 9 1 9 C0.67 6.03 0.34 3.06 0 0 Z " fill="#E4E3EB" transform="translate(47,152)"/>
<path d="M0 0 C0.66 0.66 1.32 1.32 2 2 C1.625 4.625 1.625 4.625 1 7 C0.01 7 -0.98 7 -2 7 C-2.33 6.34 -2.66 5.68 -3 5 C-1.5625 2.375 -1.5625 2.375 0 0 Z " fill="#E7E8F5" transform="translate(389,128)"/>
<path d="M0 0 C0.33 0 0.66 0 1 0 C1 2.31 1 4.62 1 7 C1.66 7 2.32 7 3 7 C3.33 6.34 3.66 5.68 4 5 C3.67 6.98 3.34 8.96 3 11 C1.68 10.67 0.36 10.34 -1 10 C-0.67 6.7 -0.34 3.4 0 0 Z " fill="#73779C" transform="translate(249,123)"/>
<path d="M0 0 C0.33 0.99 0.66 1.98 1 3 C1.99 3 2.98 3 4 3 C3.09456151 5.71631546 2.07525194 8.34771188 1 11 C-1.78637633 6.8204355 -0.79562512 4.85331323 0 0 Z " fill="#858AAC" transform="translate(251,114)"/>
<path d="M0 0 C0.99 0.33 1.98 0.66 3 1 C3 5.29 3 9.58 3 14 C2.67 14 2.34 14 2 14 C1.34 9.38 0.68 4.76 0 0 Z " fill="#9195AD" transform="translate(390,98)"/>
<path d="M0 0 C1 3 1 3 0.00390625 5.04296875 C-0.47175781 5.75066406 -0.94742187 6.45835938 -1.4375 7.1875 C-1.91058594 7.90292969 -2.38367188 8.61835937 -2.87109375 9.35546875 C-3.24363281 9.89816406 -3.61617187 10.44085938 -4 11 C-4.33 9.68 -4.66 8.36 -5 7 C-4.34 7 -3.68 7 -3 7 C-3 5.68 -3 4.36 -3 3 C-1.5 1.25 -1.5 1.25 0 0 Z " fill="#F0F3FB" transform="translate(31,81)"/>
<path d="M0 0 C4.92307692 4.30769231 4.92307692 4.30769231 5.3125 7.8125 C5.209375 8.534375 5.10625 9.25625 5 10 C4.01 10.495 4.01 10.495 3 11 C2.51171875 9.01432292 2.0234375 7.02864583 1.53515625 5.04296875 C1.08989295 3.34316798 0.55566015 1.66698046 0 0 Z " fill="#878DAC" transform="translate(338,73)"/>
<path d="M0 0 C-2.98646769 1.99097846 -5.59687262 2.94124926 -9 4 C-9 3.34 -9 2.68 -9 2 C-9.99 1.67 -10.98 1.34 -12 1 C-8.0186217 -0.3271261 -4.14954773 -0.06915913 0 0 Z " fill="#8A8FAB" transform="translate(160,23)"/>
<path d="M0 0 C-0.66 1.32 -1.32 2.64 -2 4 C-4.97 3.505 -4.97 3.505 -8 3 C-5.53387212 -0.1151089 -3.89156016 -0.31553191 0 0 Z " fill="#FAFAFE" transform="translate(259,196)"/>
<path d="M0 0 C2.5 1.1875 2.5 1.1875 4.5 3.1875 C-0.25 4.3125 -0.25 4.3125 -2.5 3.1875 C-2.5 2.5275 -2.5 1.8675 -2.5 1.1875 C-3.16 0.8575 -3.82 0.5275 -4.5 0.1875 C-2.5 -0.8125 -2.5 -0.8125 0 0 Z " fill="#E6E4EE" transform="translate(61.5,162.8125)"/>
<path d="M0 0 C0 3 0 3 -1.42578125 4.640625 C-2.04839844 5.17171875 -2.67101562 5.7028125 -3.3125 6.25 C-4.23482422 7.06210938 -4.23482422 7.06210938 -5.17578125 7.890625 C-5.77777344 8.25671875 -6.37976563 8.6228125 -7 9 C-7.99 8.67 -8.98 8.34 -10 8 C-6.7 5.36 -3.4 2.72 0 0 Z " fill="#101327" transform="translate(331,121)"/>
<path d="M0 0 C2.4992935 2.1732987 3.60976535 3.68300548 4 7 C3.5625 9.75 3.5625 9.75 3 12 C0 8.25 0 8.25 0 6 C0.66 6 1.32 6 2 6 C1.34 4.02 0.68 2.04 0 0 Z " fill="#292D41" transform="translate(337,76)"/>
<path d="M0 0 C0.33 0 0.66 0 1 0 C1.17835515 4.54805635 0.99785435 7.8794254 -1 12 C-1.33 12 -1.66 12 -2 12 C-2.05422947 10.5629191 -2.09289723 9.12524538 -2.125 7.6875 C-2.14820313 6.88699219 -2.17140625 6.08648437 -2.1953125 5.26171875 C-2 3 -2 3 0 0 Z " fill="#9195C3" transform="translate(259,77)"/>
<path d="M0 0 C0.99 0.33 1.98 0.66 3 1 C3 2.65 3 4.3 3 6 C2.67 6 2.34 6 2 6 C1.67 7.98 1.34 9.96 1 12 C0.67 12 0.34 12 0 12 C0 8.04 0 4.08 0 0 Z " fill="#7C81AA" transform="translate(256,76)"/>
<path d="M0 0 C1.32 0.33 2.64 0.66 4 1 C4 1.66 4 2.32 4 3 C6.475 3.99 6.475 3.99 9 5 C8.67 5.66 8.34 6.32 8 7 C5.36 5.68 2.72 4.36 0 3 C0 2.01 0 1.02 0 0 Z " fill="#8C92AC" transform="translate(344,48)"/>
<path d="M0 0 C2.64 0.33 5.28 0.66 8 1 C5.33440687 2.77706209 2.9719385 3.87548273 0 5 C0 3.35 0 1.7 0 0 Z " fill="#E1E5F3" transform="translate(144,193)"/>
<path d="M0 0 C2.875 -0.125 2.875 -0.125 6 0 C6.66 0.66 7.32 1.32 8 2 C5 4 5 4 2.8125 3.625 C2.214375 3.41875 1.61625 3.2125 1 3 C1.33 2.67 1.66 2.34 2 2 C1.34 1.34 0.68 0.68 0 0 Z " fill="#9296B7" transform="translate(135,188)"/>
<path d="M0 0 C4.11979807 1.37326602 7.04297546 4.08595092 9 8 C5.56801397 6.76067171 2.69674368 5.49698489 0 3 C0 2.01 0 1.02 0 0 Z " fill="#8C8DA9" transform="translate(46,149)"/>
<path d="M0 0 C0.33 0 0.66 0 1 0 C1.38909985 1.45463481 1.76088029 2.91391207 2.125 4.375 C2.33382812 5.18710938 2.54265625 5.99921875 2.7578125 6.8359375 C2.83773437 7.55007812 2.91765625 8.26421875 3 9 C2.34 9.66 1.68 10.32 1 11 C0.34 10.34 -0.32 9.68 -1 9 C-0.9765625 6.8359375 -0.9765625 6.8359375 -0.625 4.375 C-0.51414063 3.55773437 -0.40328125 2.74046875 -0.2890625 1.8984375 C-0.19367188 1.27195313 -0.09828125 0.64546875 0 0 Z " fill="#2D314B" transform="translate(249,142)"/>
<path d="M0 0 C0.99 0.33 1.98 0.66 3 1 C1.68 3.31 0.36 5.62 -1 8 C-2 5 -2 5 -2 1 C-1.34 0.67 -0.68 0.34 0 0 Z " fill="#868BAC" transform="translate(386,128)"/>
<path d="M0 0 C0.66 0 1.32 0 2 0 C4.125 4.625 4.125 4.625 3 8 C2.01 8.33 1.02 8.66 0 9 C0 6.03 0 3.06 0 0 Z " fill="#878DB0" transform="translate(179,64)"/>
<path d="M0 0 C2.31 0.33 4.62 0.66 7 1 C6.67 1.66 6.34 2.32 6 3 C4.68 2.67 3.36 2.34 2 2 C2 2.66 2 3.32 2 4 C1.01 3.67 0.02 3.34 -1 3 C-0.67 2.01 -0.34 1.02 0 0 Z " fill="#E7EBEE" transform="translate(49,57)"/>
<path d="M0 0 C0.33 0.66 0.66 1.32 1 2 C-6.42857143 2.28571429 -6.42857143 2.28571429 -10 0 C-3.34250344 -1.36176066 -3.34250344 -1.36176066 0 0 Z " fill="#9399B3" transform="translate(140,27)"/>
<path d="M0 0 C2.64 0.33 5.28 0.66 8 1 C8.33 2.32 8.66 3.64 9 5 C5.22454612 3.90931332 2.52956528 3.0916909 0 0 Z " fill="#9CA1BC" transform="translate(75,170)"/>
<path d="M0 0 C0.33 1.32 0.66 2.64 1 4 C-1.375 5.0625 -1.375 5.0625 -4 6 C-4.66 5.67 -5.32 5.34 -6 5 C-6 4.34 -6 3.68 -6 3 C-5.195625 2.690625 -4.39125 2.38125 -3.5625 2.0625 C-1.10919595 1.23664655 -1.10919595 1.23664655 0 0 Z " fill="#8E9AC2" transform="translate(170,122)"/>
<path d="M0 0 C1.65 1.65 3.3 3.3 5 5 C4.67 5.66 4.34 6.32 4 7 C3.34 7 2.68 7 2 7 C2 6.34 2 5.68 2 5 C1.34 5 0.68 5 0 5 C0 3.35 0 1.7 0 0 Z " fill="#242A3F" transform="translate(250,72)"/>
<path d="M0 0 C1.65 0.33 3.3 0.66 5 1 C4.67 2.32 4.34 3.64 4 5 C3.01 4.67 2.02 4.34 1 4 C0.34 4.66 -0.32 5.32 -1 6 C-0.67 4.02 -0.34 2.04 0 0 Z " fill="#272D43" transform="translate(96,67)"/>
<path d="M0 0 C0.33 0 0.66 0 1 0 C0.88557539 1.60495567 0.75805306 3.20898119 0.625 4.8125 C0.55539063 5.70582031 0.48578125 6.59914063 0.4140625 7.51953125 C0 10 0 10 -2 13 C-2.33 11.35 -2.66 9.7 -3 8 C-2.34 8 -1.68 8 -1 8 C-0.67 5.36 -0.34 2.72 0 0 Z " fill="#9BA1BF" transform="translate(184,56)"/>
<path d="M0 0 C-3.44450737 2.29633824 -5.93812283 2.54016485 -10 3 C-10 2.34 -10 1.68 -10 1 C-6.52674819 -0.1577506 -3.63932552 -0.06866652 0 0 Z " fill="#8E92AF" transform="translate(125,30)"/>
<path d="M0 0 C2.97 0.495 2.97 0.495 6 1 C6 1.66 6 2.32 6 3 C3.69 3 1.38 3 -1 3 C-0.67 2.01 -0.34 1.02 0 0 Z " fill="#E7E9F0" transform="translate(116,187)"/>
<path d="M0 0 C2 3 2 3 1.8125 4.9375 C0.87858188 7.30821524 -0.38827939 9.03790534 -2 11 C-1.125 3.375 -1.125 3.375 0 0 Z " fill="#23273C" transform="translate(251,101)"/>
<path d="M0 0 C2 3 2 3 1.625 5.6875 C1.41875 6.450625 1.2125 7.21375 1 8 C0.01 7.67 -0.98 7.34 -2 7 C-1.34 4.69 -0.68 2.38 0 0 Z " fill="#9699BC" transform="translate(29,88)"/>
<path d="M0 0 C0.33 0 0.66 0 1 0 C0.88557539 1.60495567 0.75805306 3.20898119 0.625 4.8125 C0.55539063 5.70582031 0.48578125 6.59914063 0.4140625 7.51953125 C0 10 0 10 -2 13 C-3.71050559 8.02398374 -2.00885647 4.57383705 0 0 Z " fill="#969CBF" transform="translate(179,80)"/>
<path d="M0 0 C2.97 0.495 2.97 0.495 6 1 C6 2.98 6 4.96 6 7 C5.7525 6.360625 5.505 5.72125 5.25 5.0625 C4.18437567 2.81258459 4.18437567 2.81258459 1.875 2.25 C0.946875 2.12625 0.946875 2.12625 0 2 C0 1.34 0 0.68 0 0 Z " fill="#262B3F" transform="translate(312,85)"/>
<path d="M0 0 C6.875 3.75 6.875 3.75 8 6 C5.6875 6.25 5.6875 6.25 3 6 C1.02389614 3.95575462 0 2.8823175 0 0 Z " fill="#9C9FB9" transform="translate(358,56)"/>
<path d="M0 0 C3.125 -0.1875 3.125 -0.1875 6 0 C4.8125 1.5 4.8125 1.5 3 3 C0.3125 3.1875 0.3125 3.1875 -2 3 C-1.34 2.01 -0.68 1.02 0 0 Z " fill="#8B8FAC" transform="translate(187,195)"/>
<path d="M0 0 C0.66 0.33 1.32 0.66 2 1 C2 2.32 2 3.64 2 5 C0.35 5 -1.3 5 -3 5 C-3 4.01 -3 3.02 -3 2 C-2.01 1.34 -1.02 0.68 0 0 Z " fill="#E2E3EE" transform="translate(342,170)"/>
<path d="M0 0 C0.6875 1.6875 0.6875 1.6875 1 4 C-0.375 6.75 -0.375 6.75 -2 9 C-2.33 9 -2.66 9 -3 9 C-3.36923077 3.46153846 -3.36923077 3.46153846 -1.5 1.125 C-1.005 0.75375 -0.51 0.3825 0 0 Z " fill="#7E84A9" transform="translate(181,75)"/>
<path d="M0 0 C0 0.66 0 1.32 0 2 C-1.98 2.99 -3.96 3.98 -6 5 C-6.33 4.34 -6.66 3.68 -7 3 C-6.67 2.34 -6.34 1.68 -6 1 C-3.911361 0.32624548 -2.19636905 0 0 0 Z " fill="#E9ECF6" transform="translate(64,52)"/>
<path d="M0 0 C-2.24195113 1.36118461 -3.47826762 2.06138028 -6.125 1.75 C-8 1 -8 1 -10 -1 C-6.06329512 -2.31223496 -3.87511856 -1.24296256 0 0 Z " fill="#9499B9" transform="translate(96,42)"/>
<path d="M0 0 C-3.99560608 2.83022097 -7.42737323 1.76210446 -12 1 C-12 0.67 -12 0.34 -12 0 C-7.74433453 -1.16063604 -4.3164922 -0.76173392 0 0 Z " fill="#9FA4B9" transform="translate(151,25)"/>
</svg>
